{
.appVersion = "3134";
.formatVersion = 3;
DisplayStrings = (
"`~!@#$%^&*()_+-=[/backslash ]{|};:'\",.//<>?
Aa Bb Cc Dd Ee Ff Gg Hh Ii Jj Kk Ll Mm Nn Oo Pp Qq Rr Ss Tt Uu Vv Ww Xx Yy Zz
0123456789"
);
customParameters = (
{
name = vendorID;
value = ITFO;
},
{
name = panose;
value = (
0,
0,
9,
0,
0,
0,
0,
0,
0,
0
);
},
{
name = unicodeRanges;
value = (
0,
1,
2,
15
);
},
{
name = codePageRanges;
value = (
"1252",
"1250",
"1254",
"1257",
"bit 29"
);
},
{
name = fsType;
value = (
);
},
{
name = glyphOrder;
value = (
.notdef,
NULL,
CR,
space,
dvA,
dvAA,
dvI,
dvII,
dvU,
dvUU,
dvvR,
dvvRR,
dvvL,
dvvLL,
dvE,
dvAI,
dvO,
dvAU,
dvEcandra,
dvAcandra,
dvOcandra,
dvmAA,
dvmI,
dvmII,
dvmU,
dvmUU,
dvmvR,
dvmvRR,
dvmvL,
dvmvLL,
dvmE,
dvmAI,
dvmO,
dvmAU,
dvmEcandra,
dvmOcandra,
dvKA,
dvKHA,
dvGA,
dvGHA,
dvNGA,
dvCA,
dvCHA,
dvJA,
dvJHA,
dvNYA,
dvTTA,
dvTTHA,
dvDDA,
dvDDHA,
dvNNA,
dvTA,
dvTHA,
dvDA,
dvDHA,
dvNA,
dvPA,
dvPHA,
dvBA,
dvBHA,
dvMA,
dvYA,
dvRA,
dvLA,
dvVA,
dvSHA,
dvSSA,
dvSA,
dvHA,
dvLLA,
dvK_SSA,
dvJ_NYA,
dvKxA,
dvKHxA,
dvGxA,
dvJxA,
dvDDxA,
dvDDHxA,
dvPHxA,
dvRxA,
dvK,
dvKH,
dvG,
dvGH,
dvNG,
dvC,
dvCH,
dvJ,
dvJH,
dvNY,
dvTT,
dvTTH,
dvDD,
dvDDH,
dvNN,
dvT,
dvTH,
dvD,
dvDH,
dvN,
dvP,
dvPH,
dvB,
dvBH,
dvM,
dvY,
dvR,
dvL,
dvV,
dvSH,
dvSS,
dvS,
dvH,
dvLL,
dvK_SS,
dvJ_NY,
dvKx,
dvKHx,
dvGx,
dvJx,
dvPHx,
dvAnusvara,
dvCandrabindu,
dvVisarga,
dvAvagraha,
dvVirama,
dvNukta,
dvZero,
dvOne,
dvTwo,
dvThree,
dvFour,
dvFive,
dvSix,
dvSeven,
dvEight,
dvNine,
dvOm,
dvAbbreviationsign,
danda,
doubledanda,
rupee,
indianrupee,
zerowidthnonjoiner,
zerowidthjoiner,
dottedcircle,
dvReph,
dvEyelash,
dvRashtrasign,
dvK_RA,
dvKH_RA,
dvG_RA,
dvGH_RA,
dvNG_RA,
dvC_RA,
dvCH_RA,
dvJ_RA,
dvJH_RA,
dvNY_RA,
dvTT_RA,
dvTTH_RA,
dvDD_RA,
dvDDH_RA,
dvNN_RA,
dvT_RA,
dvTH_RA,
dvD_RA,
dvDH_RA,
dvN_RA,
dvP_RA,
dvPH_RA,
dvB_RA,
dvBH_RA,
dvM_RA,
dvY_RA,
dvL_RA,
dvV_RA,
dvSH_RA,
dvSS_RA,
dvS_RA,
dvH_RA,
dvLL_RA,
dvKx_RA,
dvKHx_RA,
dvGx_RA,
dvJx_RA,
dvPHx_RA,
dvK_R,
dvKH_R,
dvG_R,
dvGH_R,
dvNG_R,
dvC_R,
dvCH_R,

glyphs = (
{
glyphname = .notdef;
lastChange = "2022-10-20 15:45:51 +0000";
layers = (
{
layerId = m01;
shapes = (
{
closed = 1;
nodes = (
(-62,0,l),
(438,0,l),
(562,700,l),
(62,700,l)
);
},
{
closed = 1;
nodes = (
(258,395,l),
(133,650,l),
(473,650,l)
);
},
{
closed = 1;
nodes = (
(280,350,l),
(495,605,l),
(405,95,l)
);
},
{
closed = 1;
nodes = (
(27,50,l),
(242,305,l),
(367,50,l)
);
},
{
closed = 1;
nodes = (
(95,605,l),
(220,350,l),
(5,95,l)
);
}
);
width = 500;
}
);
note = ".notdef";
},
{
glyphname = dvR;
lastChange = "2022-10-20 15:45:51 +0000";
layers = (
{
layerId = m01;
shapes = (
{
closed = 1;
nodes = (
(218,-290,l),
(402,-290,l),
(307,-60,l),
(128,-60,l)
);
},
{
closed = 1;
nodes = (
(50,590,l),
(353,590,l),
(346,551,ls),
(334,480,o),
(297,432,o),
(192,432,cs),
(92,432,l),
(53,209,ls),
(32,87,o),
(93,-9,o),
(242,-9,cs),
(377,-9,o),
(470,75,o),
(492,204,cs),
(493,208,o),
(495,217,o),
(496,228,c),
(323,228,l),
(317,198,ls),
(312,167,o),
(293,144,o),
(265,144,cs),
(234,144,o),
(225,169,o),
(231,200,cs),
(246,287,l),
(431,291,o),
(501,408,o),
(526,551,cs),
(533,590,l),
(607,590,l),
(634,740,l),
(77,740,l)
);
}
);
width = 529;
}
);
note = dvR;
},
{
glyphname = dvKx;
lastChange = "2022-10-20 15:45:51 +0000";
layers = (
{
layerId = m01;
shapes = (
{
closed = 1;
nodes = (
(352,0,l),
(526,0,l),
(575,278,ls),
(584,330,o),
(616,369,o),
(667,369,cs),
(716,369,o),
(736,332,o),
(728,288,c),
(911,288,l),
(934,418,o),
(883,522,o),
(753,522,cs),
(692,522,o),
(642,499,o),
(607,461,c),
(630,590,l),
(965,590,l),
(991,740,l),
(69,740,l),
(43,590,l),
(456,590,l),
(433,462,l),
(411,499,o),
(368,522,o),
(304,522,cs),
(169,522,o),
(75,426,o),
(50,288,cs),
(26,152,o),
(85,54,o),
(214,54,cs),
(282,54,o),
(335,78,o),
(372,118,c)
);
},
{
closed = 1;
nodes = (
(202,-202,o),
(255,-157,o),
(265,-101,cs),
(275,-43,o),
(238,3,o),
(180,3,cs),
(123,3,o),
(70,-43,o),
(60,-101,cs),
(50,-157,o),
(87,-202,o),
(144,-202,cs)
);
},
{
closed = 1;
nodes = (
(253,205,o),
(226,238,o),
(234,287,cs),
(243,336,o),
(284,369,o),
(333,369,cs),
(387,369,o),
(410,332,o),
(402,288,cs),
(395,244,o),
(356,205,o),
(304,205,cs)
);
}
);
width = 689;
}
);
note = dvKx;
},
{
glyphname = dvGx;
lastChange = "2022-10-20 15:45:51 +0000";
layers = (
{
layerId = m01;
shapes = (
{
closed = 1;
nodes = (
(34,590,l),
(341,590,l),
(302,370,ls),
(297,341,o),
(285,306,o),
(249,306,cs),
(216,306,o),
(210,333,o),
(216,370,cs),
(222,402,l),
(48,402,l),
(45,391,o),
(43,380,o),
(41,369,cs),
(16,226,o),
(87,152,o),
(227,152,cs),
(379,152,o),
(461,250,o),
(484,378,cs),
(521,590,l),
(629,590,l),
(655,740,l),
(60,740,l)
);
},
{
closed = 1;
nodes = (
(240,-104,o),
(293,-59,o),
(302,-3,cs),
(313,55,o),
(276,101,o),
(218,101,cs),
(161,101,o),
(108,55,o),
(97,-3,cs),
(88,-59,o),
(125,-104,o),
(182,-104,cs)
);
}
);
width = 567;
}
);
note = dvGx;
},
{
glyphname = dvJx;
lastChange = "2022-10-20 15:45:51 +0000";
layers = (
{
layerId = m01;
shapes = (
{
closed = 1;
nodes = (
(397,90,o),
(503,186,o),
(527,322,cs),
(529,331,l),
(716,331,l),
(743,485,l),
(380,485,l),
(352,327,ls),
(343,276,o),
(317,248,o),
(279,248,cs),
(240,248,o),
(224,276,o),
(233,327,cs),
(261,485,l),
(79,485,l),
(50,322,ls),
(26,186,o),
(90,90,o),
(251,90,cs)
);
},
{
closed = 1;
nodes = (
(39,590,l),
(761,590,l),
(788,740,l),
(66,740,l)
);
},
{
closed = 1;
nodes = (
(264,-164,o),
(317,-119,o),
(327,-63,cs),
(337,-5,o),
(300,41,o),
(242,41,cs),
(185,41,o),
(132,-5,o),
(122,-63,cs),
(112,-119,o),
(149,-164,o),
(206,-164,cs)
);
}
);
width = 552;
}
);
note = dvJx;
},
{
glyphname = rupee;
lastChange = "2022-10-20 15:45:51 +0000";
layers = (
{
layerId = m01;
shapes = (
{
closed = 1;
nodes = (
(442,420,o),
(410,395,o),
(357,395,cs),
(260,395,l),
(286,542,l),
(383,542,ls),
(436,542,o),
(458,513,o),
(450,468,cs)
);
},
{
closed = 1;
nodes = (
(119,705,l),
(-6,0,l),
(190,0,l),
(236,261,l),
(253,261,l),
(350,0,l),
(570,0,l),
(457,275,l),
(569,306,o),
(635,387,o),
(651,479,cs),
(673,605,o),
(603,705,o),
(428,705,cs)
);
},
{
closed = 1;
nodes = (
(633,185,o),
(976,254,o),
(962,173,cs),
(958,153,o),
(941,138,o),
(902,138,cs),
(863,138,o),
(829,152,o),
(832,189,c),
(639,189,l),
(634,61,o),
(723,-7,o),
(879,-7,cs),
(1025,-7,o),
(1124,69,o),
(1141,168,cs),
(1177,373,o),
(831,311,o),
(845,388,cs),
(849,410,o),
(873,422,o),
(908,422,cs),
(947,422,o),
(976,407,o),
(977,372,c),
(1170,372,l),
(1171,485,o),
(1099,568,o),
(938,568,cs),
(784,568,o),
(687,488,o),
(670,393,cs)
);
}
);
width = 1210;
}
);
note = rupee;
unicode = 8360;
},
{
glyphname = indianrupee;
lastChange = "2022-10-20 15:45:51 +0000";
layers = (
{
layerId = m01;
shapes = (
{
closed = 1;
nodes = (
(74,575,l),
(342,575,l),
(334,529,l),
(66,529,l),
(46,414,l),
(308,414,l),
(283,364,o),
(227,359,o),
(46,359,c),
(24,233,ls),
(-6,64,o),
(69,-10,o),
(222,-10,cs),
(367,-10,o),
(453,76,o),
(483,207,c),
(302,207,l),
(294,160,o),
(278,137,o),
(240,137,cs),
(201,137,o),
(195,165,o),
(202,203,cs),
(207,232,l),
(364,232,o),
(452,307,o),
(491,414,c),
(569,414,l),
(589,529,l),
(517,529,l),
(525,575,l),
(597,575,l),
(620,705,l),
(97,705,l)
);
}
);
width = 588;
}
);
note = indianrupee;
unicode = 8377;
},
{
glyphname = zerowidthnonjoiner;
lastChange = "2022-10-20 15:45:51 +0000";
layers = (
{
layerId = m01;
shapes = (
{
closed = 1;
nodes = (
(-68,-230,l),
(116,811,l),
(69,811,l),
(-115,-230,l)
);
}
);
width = 0;
}
);
note = zerowidthnonjoiner;
unicode = 8204;
},
{
glyphname = zerowidthjoiner;
lastChange = "2022-10-20 15:45:51 +0000";
layers = (
{
layerId = m01;
shapes = (
{
closed = 1;
nodes = (
(181,593,l),
(102,688,l),
(215,784,l),
(188,816,l),
(75,721,l),
(-3,816,l),
(-42,783,l),
(37,688,l),
(-73,595,l),
(-46,562,l),
(36,635,l),
(-116,-230,l),
(-69,-230,l),
(83,635,l),
(142,560,l)
);
}
);
width = 0;
}
);
note = zerowidthjoiner;
unicode = 8205;
},
{
glyphname = dottedcircle;
lastChange = "2022-10-20 15:45:51 +0000";
layers = (
{
layerId = m01;
shapes = (
{
closed = 1;
nodes = (
(587,434,o),
(572,451,o),
(547,451,cs),
(522,451,o),
(501,434,o),
(496,409,cs),
(492,384,o),
(507,367,o),
(532,367,cs),
(557,367,o),
(578,384,o),
(582,409,cs)
);
},
{
closed = 1;
nodes = (
(160,148,o),
(145,165,o),
(120,165,cs),
(95,165,o),
(74,148,o),
(70,123,cs),
(65,98,o),
(80,81,o),
(105,81,cs),
(130,81,o),
(151,98,o),
(156,123,cs)
);
},
{
closed = 1;
nodes = (
(245,72,o),
(230,89,o),
(205,89,cs),
(180,89,o),
(159,72,o),
(154,47,cs),
(150,22,o),
(165,5,o),
(190,5,cs),
(215,5,o),
(236,22,o),
(240,47,cs)
);
},
{
closed = 1;
nodes = (
(135,261,o),
(120,278,o),
(95,278,cs),
(70,278,o),
(49,261,o),
(45,236,cs),
(40,211,o),
(55,194,o),
(80,194,cs),
(105,194,o),
(126,211,o),
(131,236,cs)
);
},
{
closed = 1;
nodes = (
(366,58,o),
(351,75,o),
(326,75,cs),
(301,75,o),
(280,58,o),
(276,33,cs),
(272,8,o),
(287,-9,o),
(312,-9,cs),
(337,-9,o),
(358,8,o),
(362,33,cs)
);
},
{
closed = 1;
nodes = (
(172,382,o),
(157,399,o),
(132,399,cs),
(107,399,o),
(86,382,o),
(81,357,cs),
(77,332,o),
(92,315,o),
(117,315,cs),
(142,315,o),
(163,332,o),
(167,357,cs)
);
},
{
closed = 1;
nodes = (
(490,104,o),
(475,121,o),
(450,121,cs),
(425,121,o),
(404,104,o),
(399,79,cs),
(395,54,o),
(410,37,o),
(435,37,cs),
(460,37,o),
(481,54,o),
(485,79,cs)
);
},
{
closed = 1;
nodes = (
(265,481,o),
(250,498,o),
(225,498,cs),
(200,498,o),
(179,481,o),
(175,456,cs),
(170,431,o),
(185,414,o),
(210,414,cs),
(235,414,o),
(256,431,o),
(261,456,cs)
);
},
{
closed = 1;
nodes = (
(579,200,o),
(564,217,o),
(539,217,cs),
(514,217,o),
(493,200,o),
(489,175,cs),
(485,150,o),
(500,133,o),
(525,133,cs),
(550,133,o),
(571,150,o),
(575,175,cs)
);
},
{
closed = 1;
nodes = (
(389,523,o),
(374,540,o),
(349,540,cs),
(324,540,o),
(303,523,o),
(299,498,cs),
(295,473,o),
(310,456,o),
(335,456,cs),
(360,456,o),
(381,473,o),
(385,498,cs)
);
},
{
closed = 1;
nodes = (
(611,320,o),
(596,337,o),
(571,337,cs),
(546,337,o),
(525,320,o),
(520,295,cs),
(516,270,o),
(531,253,o),
(556,253,cs),
(581,253,o),
(602,270,o),
(606,295,cs)
);
},
{
closed = 1;
nodes = (
(508,508,o),
(493,525,o),
(468,525,cs),
(443,525,o),
(422,508,o),
(417,483,cs),
(413,458,o),
(428,441,o),
(453,441,cs),
(478,441,o),
(499,458,o),
(503,483,cs)
);
}
);
width = 651;
}
);
note = dottedcircle;
unicode = 9676;
},
{
glyphname = dvEyelash;
lastChange = "2022-10-20 15:45:51 +0000";
layers = (
{
layerId = m01;
shapes = (
{
closed = 1;
nodes = (
(385,430,l),
(361,418,o),
(332,407,o),
(291,407,cs),
(236,407,o),
(191,432,o),
(200,502,c),
(28,502,l),
(5,337,o),
(115,278,o),
(243,278,cs),
(314,278,o),
(387,300,o),
(438,332,c)
);
},
{
closed = 1;
nodes = (
(0,590,l),
(481,590,l),
(508,740,l),
(27,740,l)
);
}
);
width = 372;
}
);
note = dvEyelash;
},
{
glyphname = dvRashtrasign;
lastChange = "2022-10-20 15:45:51 +0000";
layers = (
{
layerId = m01;
shapes = (
{
closed = 1;
nodes = (
(-610,-97,l),
(-429,-97,l),
(-332,12,l),
(-273,-97,l),
(-90,-97,l),
(-199,82,l),
(-439,82,l)
);
}
);
width = 0;
}
);
note = dvRashtrasign;
},
{
glyphname = dvKx_RA;
lastChange = "2022-10-20 15:45:51 +0000";
layers = (
{
layerId = m01;
shapes = (
{
closed = 1;
nodes = (
(426,0,l),
(598,0,l),
(647,278,l),
(659,327,o),
(690,369,o),
(741,369,cs),
(790,369,o),
(809,332,o),
(802,288,cs),
(793,240,o),
(757,211,o),
(717,211,cs),
(709,211,o),
(701,212,o),
(697,214,c),
(672,73,l),
(697,67,o),
(716,65,o),
(740,65,cs),
(859,65,o),
(960,148,o),
(985,292,cs),
(1008,418,o),
(956,522,o),
(825,522,cs),
(765,522,o),
(714,499,o),
(679,461,c),
(702,590,l),
(1100,590,l),
(1126,740,l),
(55,740,l),
(29,590,l),
(530,590,l),
(507,461,l),
(485,499,o),
(442,522,o),
(377,522,cs),
(242,522,o),
(149,426,o),
(125,288,cs),
(107,188,o),
(144,111,o),
(219,82,c),
(86,-46,l),
(280,-46,l),
(445,126,ls),
(446,127,o),
(447,128,o),
(449,130,c)
);
},
{
closed = 1;
nodes = (
(57,-22,o),
(102,16,o),
(110,63,cs),
(119,112,o),
(87,151,o),
(39,151,cs),
(-10,151,o),
(-53,112,o),
(-62,63,cs),
(-70,16,o),
(-40,-22,o),
(9,-22,cs)
);
},
{
closed = 1;
nodes = (
(325,205,o),
(299,238,o),
(307,287,cs),
(316,336,o),
(356,369,o),
(407,369,cs),
(460,369,o),
(484,332,o),
(477,288,cs),
(469,244,o),
(429,205,o),
(377,205,cs)
);
}
);
width = 1043;
}
);
note = dvKx_RA;
},
{
glyphname = dvGx_RA;
lastChange = "2022-10-20 15:45:51 +0000";
layers = (
{
layerId = m01;
shapes = (
{
closed = 1;
nodes = (
(524,0,l),
(700,0,l),
(804,590,l),
(891,590,l),
(917,740,l),
(53,740,l),
(27,590,l),
(334,590,l),
(308,443,ls),
(303,414,o),
(291,380,o),
(255,380,cs),
(222,380,o),
(215,406,o),
(222,443,cs),
(227,475,l),
(53,475,l),
(50,464,o),
(48,453,o),
(46,442,cs),
(21,299,o),
(92,226,o),
(232,226,cs),
(384,226,o),
(467,324,o),
(489,451,cs),
(514,590,l),
(624,590,l),
(580,344,l),
(132,-20,l),
(339,-20,l),
(552,162,l)
);
},
{
closed = 1;
nodes = (
(89,7,o),
(133,45,o),
(142,92,cs),
(150,141,o),
(119,180,o),
(71,180,cs),
(22,180,o),
(-22,141,o),
(-30,92,cs),
(-39,45,o),
(-8,7,o),
(41,7,cs)
);
}
);
width = 836;
}
);
note = dvGx_RA;
},
{
glyphname = dvJx_RA;
lastChange = "2022-10-20 15:45:51 +0000";
layers = (
{
layerId = m01;
shapes = (
{
closed = 1;
nodes = (
(29,590,l),
(663,590,l),
(646,491,l),
(371,491,l),
(354,396,ls),
(345,345,o),
(319,317,o),
(280,317,cs),
(241,317,o),
(226,345,o),
(235,396,cs),
(252,491,l),
(70,491,l),
(52,391,ls),
(28,255,o),
(92,159,o),
(253,159,cs),
(382,159,o),
(474,234,o),
(510,345,c),
(620,345,l),
(615,317,l),
(197,-53,l),
(394,-53,l),
(588,134,l),
(564,0,l),
(732,0,l),
(836,590,l),
(923,590,l),
(950,740,l),
(56,740,l)
);
},
{
closed = 1;
nodes = (
(123,-50,o),
(167,-12,o),
(176,35,cs),
(184,84,o),
(153,123,o),
(105,123,cs),
(56,123,o),
(12,84,o),
(4,35,cs),
(-5,-12,o),
(26,-50,o),
(75,-50,cs)
);
}
);
width = 866;
}
);
note = dvJx_RA;
},
{
glyphname = dvKx_R;
lastChange = "2022-10-20 15:45:51 +0000";
layers = (
{
layerId = m01;
shapes = (
{
closed = 1;
nodes = (
(426,0,l),
(598,0,l),
(647,278,l),
(659,327,o),
(690,369,o),
(741,369,cs),
(790,369,o),
(809,332,o),
(802,288,c),
(985,288,l),
(1008,418,o),
(956,522,o),
(825,522,cs),
(765,522,o),
(714,499,o),
(679,461,c),
(702,590,l),
(1038,590,l),
(1064,740,l),
(55,740,l),
(29,590,l),
(530,590,l),
(507,461,l),
(485,499,o),
(442,522,o),
(377,522,cs),
(242,522,o),
(149,426,o),
(125,288,cs),
(107,188,o),
(144,111,o),
(219,82,c),
(86,-46,l),
(280,-46,l),
(445,126,ls),
(446,127,o),
(447,128,o),
(449,130,c)
);
},
{
closed = 1;
nodes = (
(57,-22,o),
(102,16,o),
(110,63,cs),
(119,112,o),
(87,151,o),
(39,151,cs),
(-10,151,o),
(-53,112,o),
(-62,63,cs),
(-70,16,o),
(-40,-22,o),
(9,-22,cs)
);
},
{
closed = 1;
nodes = (
(325,205,o),
(299,238,o),
(307,287,cs),
(316,336,o),
(356,369,o),
(407,369,cs),
(460,369,o),
(484,332,o),
(477,288,cs),
(469,244,o),
(429,205,o),
(377,205,cs)
);
}
);
width = 776;
}
);
note = dvKx_R;
},
{
glyphname = dvGx_R;
lastChange = "2022-10-20 15:45:51 +0000";
layers = (
{
layerId = m01;
shapes = (
{
closed = 1;
nodes = (
(592,197,l),
(625,380,l),
(132,-20,l),
(339,-20,l)
);
},
{
closed = 1;
nodes = (
(27,590,l),
(334,590,l),
(308,443,ls),
(303,414,o),
(291,380,o),
(255,380,cs),
(222,380,o),
(215,406,o),
(222,443,cs),
(227,475,l),
(53,475,l),
(50,464,o),
(48,453,o),
(46,442,cs),
(21,299,o),
(92,226,o),
(232,226,cs),
(384,226,o),
(467,324,o),
(489,451,cs),
(514,590,l),
(662,590,l),
(688,740,l),
(53,740,l)
);
},
{
closed = 1;
nodes = (
(89,7,o),
(133,45,o),
(142,92,cs),
(150,141,o),
(119,180,o),
(71,180,cs),
(22,180,o),
(-22,141,o),
(-30,92,cs),
(-39,45,o),
(-8,7,o),
(41,7,cs)
);
}
);
width = 567;
}
);
note = dvGx_R;
},
{
glyphname = dvJx_R;
lastChange = "2022-10-20 15:45:51 +0000";
layers = (
{
layerId = m01;
shapes = (
{
closed = 1;
nodes = (
(29,590,l),
(751,590,l),
(778,740,l),
(56,740,l)
);
},
{
closed = 1;
nodes = (
(394,-53,l),
(688,231,l),
(734,491,l),
(371,491,l),
(354,396,ls),
(345,345,o),
(319,317,o),
(280,317,cs),
(241,317,o),
(226,345,o),
(235,396,cs),
(252,491,l),
(70,491,l),
(52,391,ls),
(28,255,o),
(92,159,o),
(253,159,cs),
(378,159,o),
(469,230,o),
(507,336,c),
(637,336,l),
(197,-53,l)
);
},
{
closed = 1;
nodes = (
(123,-50,o),
(167,-12,o),
(176,35,cs),
(184,84,o),
(153,123,o),
(105,123,cs),
(56,123,o),
(12,84,o),
(4,35,cs),
(-5,-12,o),
(26,-50,o),
(75,-50,cs)
);
}
);
width = 552;
}
);
note = dvJx_R;
},
{
glyphname = dvKx_KxA;
lastChange = "2022-10-20 15:45:51 +0000";
layers = (
{
layerId = m01;
shapes = (
{
closed = 1;
nodes = (
(630,590,l),
(1131,590,l),
(1108,462,l),
(1086,499,o),
(1043,522,o),
(979,522,cs),
(929,522,o),
(884,509,o),
(847,485,c),
(825,509,o),
(794,522,o),
(751,522,cs),
(691,522,o),
(642,499,o),
(607,462,c)
);
},
{
closed = 1;
nodes = (
(202,-202,o),
(255,-157,o),
(265,-101,cs),
(275,-43,o),
(238,3,o),
(180,3,cs),
(123,3,o),
(70,-43,o),
(60,-101,cs),
(50,-157,o),
(87,-202,o),
(144,-202,cs)
);
},
{
closed = 1;
nodes = (
(877,-202,o),
(930,-157,o),
(940,-101,cs),
(950,-43,o),
(913,3,o),
(855,3,cs),
(798,3,o),
(745,-43,o),
(735,-101,cs),
(725,-157,o),
(762,-202,o),
(819,-202,cs)
);
},
{
closed = 1;
nodes = (
(253,205,o),
(226,238,o),
(234,287,cs),
(243,336,o),
(284,369,o),
(333,369,cs),
(387,369,o),
(410,332,o),
(402,288,cs),
(395,244,o),
(356,205,o),
(304,205,cs)
);
},
{
closed = 1;
nodes = (
(928,205,o),
(901,238,o),
(909,287,cs),
(918,336,o),
(959,369,o),
(1008,369,cs),
(1062,369,o),
(1085,332,o),
(1077,288,cs),
(1070,244,o),
(1031,205,o),
(979,205,cs)
);
},
{
closed = 1;
nodes = (
(1027,0,l),
(1201,0,l),
(1250,278,ls),
(1259,330,o),
(1291,369,o),
(1342,369,cs),
(1391,369,o),
(1411,332,o),
(1403,288,cs),
(1395,240,o),
(1360,211,o),
(1318,211,cs),
(1311,211,o),
(1303,212,o),
(1298,214,c),
(1273,73,l),
(1297,67,o),
(1318,65,o),
(1341,65,cs),
(1460,65,o),
(1562,148,o),
(1587,292,cs),
(1609,418,o),
(1558,522,o),
(1428,522,cs),
(1367,522,o),
(1317,499,o),
(1282,461,c),
(1305,590,l),
(1701,590,l),
(1727,740,l),
(69,740,l),
(43,590,l),
(456,590,l),
(433,462,l),
(411,499,o),
(368,522,o),
(304,522,cs),
(169,522,o),
(75,426,o),
(50,288,cs),
(26,152,o),
(85,54,o),
(214,54,cs),
(282,54,o),
(335,78,o),
(372,118,c),
(352,0,l),
(526,0,l),
(575,278,ls),
(584,330,o),
(615,369,o),
(666,369,cs),
(715,369,o),
(732,332,o),
(724,288,c),
(725,288,l),
(701,152,o),
(760,54,o),
(889,54,cs),
(957,54,o),
(1010,78,o),
(1047,118,c)
);
}
);
width = 1630;
}
);
note = dvKx_KxA;
},
{
glyphname = dvKx_TA;
lastChange = "2022-10-20 15:45:51 +0000";
layers = (
{
layerId = m01;
shapes = (
{
closed = 1;
nodes = (
(686,512,o),
(639,493,o),
(607,459,c),
(630,590,l),
(1180,590,l),
(1162,490,l),
(1036,490,ls),
(977,490,o),
(920,479,o),
(869,456,c),
(845,491,o),
(802,512,o),
(743,512,cs)
);
},
{
closed = 1;
nodes = (
(202,-202,o),
(255,-157,o),
(265,-101,cs),
(275,-43,o),
(238,3,o),
(180,3,cs),
(123,3,o),
(70,-43,o),
(60,-101,cs),
(50,-157,o),
(87,-202,o),
(144,-202,cs)
);
},
{
closed = 1;
nodes = (
(253,205,o),
(226,238,o),
(234,287,cs),
(243,336,o),
(284,369,o),
(333,369,cs),
(387,369,o),
(410,332,o),
(402,288,cs),
(395,244,o),
(356,205,o),
(304,205,cs)
);
},
{
closed = 1;
nodes = (
(575,278,ls),
(584,330,o),
(614,367,o),
(664,367,cs),
(701,367,o),
(724,336,o),
(716,280,c),
(713,269,o),
(710,257,o),
(708,244,cs),
(677,70,o),
(786,1,o),
(925,1,cs),
(971,1,l),
(996,142,l),
(979,142,ls),
(906,142,o),
(880,183,o),
(890,240,cs),
(900,300,o),
(952,336,o),
(1017,336,cs),
(1135,336,l),
(1076,0,l),
(1257,0,l),
(1361,590,l),
(1449,590,l),
(1475,740,l),
(69,740,l),
(43,590,l),
(456,590,l),
(433,462,l),
(411,499,o),
(368,522,o),
(304,522,cs),
(169,522,o),
(75,426,o),
(50,288,cs),
(26,152,o),
(85,54,o),
(214,54,cs),
(282,54,o),
(335,78,o),
(372,118,c),
(352,0,l),
(526,0,l)
);
}
);
width = 1378;
}
);
note = dvKx_TA;
},
{
glyphname = dvKx_PHA;
lastChange = "2022-10-20 15:45:51 +0000";
layers = (
{
layerId = m01;
shapes = (
{
closed = 1;
nodes = (
(630,590,l),
(764,590,l),
(750,513,l),
(749,513,ls),
(689,513,o),
(640,493,o),
(606,458,c)
);
},
{
closed = 1;
nodes = (
(919,299,o),
(901,342,o),
(911,400,cs),
(945,590,l),
(1116,590,l),
(1081,396,ls),
(1072,344,o),
(1035,299,o),
(978,299,cs)
);
},
{
closed = 1;
nodes = (
(575,278,ls),
(584,330,o),
(615,369,o),
(666,369,cs),
(702,369,o),
(720,350,o),
(724,322,c),
(729,219,o),
(789,148,o),
(904,148,cs),
(963,148,o),
(1010,166,o),
(1046,197,c),
(1012,0,l),
(1193,0,l),
(1238,258,ls),
(1250,325,o),
(1286,369,o),
(1343,369,cs),
(1392,369,o),
(1411,332,o),
(1403,288,cs),
(1396,244,o),
(1364,210,o),
(1319,210,cs),
(1310,210,o),
(1301,212,o),
(1292,214,c),
(1268,76,l),
(1292,68,o),
(1317,65,o),
(1342,65,cs),
(1462,65,o),
(1563,150,o),
(1589,297,cs),
(1611,420,o),
(1557,522,o),
(1429,522,cs),
(1365,522,o),
(1312,499,o),
(1274,462,c),
(1297,590,l),
(1700,590,l),
(1726,740,l),
(69,740,l),
(43,590,l),
(456,590,l),
(433,462,l),
(411,499,o),
(368,522,o),
(304,522,cs),
(169,522,o),
(75,426,o),
(50,288,cs),
(26,152,o),
(85,54,o),
(214,54,cs),
(282,54,o),
(335,78,o),
(372,118,c),
(352,0,l),
(526,0,l)
);
},
{
closed = 1;
nodes = (
(202,-202,o),
(255,-157,o),
(265,-101,cs),
(275,-43,o),
(238,3,o),
(180,3,cs),
(123,3,o),
(70,-43,o),
(60,-101,cs),
(50,-157,o),
(87,-202,o),
(144,-202,cs)
);
},
{
closed = 1;
nodes = (
(253,205,o),
(226,238,o),
(234,287,cs),
(243,336,o),
(284,369,o),
(333,369,cs),
(387,369,o),
(410,332,o),
(402,288,cs),
(395,244,o),
(356,205,o),
(304,205,cs)
);
}
);
width = 1629;
}
);
note = dvKx_PHA;
},
{
glyphname = dvKx_PHxA;
lastChange = "2022-10-20 15:45:51 +0000";
layers = (
{
layerId = m01;
shapes = (
{
closed = 1;
nodes = (
(630,590,l),
(765,590,l),
(751,513,l),
(749,513,ls),
(689,513,o),
(640,493,o),
(606,458,c)
);
},
{
closed = 1;
nodes = (
(202,-202,o),
(255,-157,o),
(265,-101,cs),
(275,-43,o),
(238,3,o),
(180,3,cs),
(123,3,o),
(70,-43,o),
(60,-101,cs),
(50,-157,o),
(87,-202,o),
(144,-202,cs)
);
},
{
closed = 1;
nodes = (
(855,-101,o),
(908,-56,o),
(918,0,cs),
(928,58,o),
(891,104,o),
(833,104,cs),
(776,104,o),
(723,58,o),
(713,0,cs),
(703,-56,o),
(740,-101,o),
(797,-101,cs)
);
},
{
closed = 1;
nodes = (
(253,205,o),
(226,238,o),
(234,287,cs),
(243,336,o),
(284,369,o),
(333,369,cs),
(387,369,o),
(410,332,o),
(402,288,cs),
(395,244,o),
(356,205,o),
(304,205,cs)
);
},
{
closed = 1;
nodes = (
(920,299,o),
(902,342,o),
(912,400,cs),
(946,590,l),
(1117,590,l),
(1082,396,ls),
(1073,344,o),
(1036,299,o),
(979,299,cs)
);
},
{
closed = 1;
nodes = (
(575,278,ls),
(584,330,o),
(615,369,o),
(666,369,cs),
(704,369,o),
(723,347,o),
(725,316,c),
(726,316,l),
(733,217,o),
(792,148,o),
(905,148,cs),
(964,148,o),
(1011,166,o),
(1047,197,c),
(1013,0,l),
(1194,0,l),
(1239,258,ls),
(1251,325,o),
(1287,369,o),
(1344,369,cs),
(1393,369,o),
(1412,332,o),
(1404,288,cs),
(1397,244,o),
(1365,210,o),
(1320,210,cs),
(1311,210,o),
(1302,212,o),
(1293,214,c),
(1269,76,l),
(1293,68,o),
(1318,65,o),
(1343,65,cs),
(1463,65,o),
(1564,150,o),
(1590,297,cs),
(1612,420,o),
(1558,522,o),
(1430,522,cs),
(1366,522,o),
(1313,499,o),
(1275,462,c),
(1298,590,l),
(1701,590,l),
(1727,740,l),
(69,740,l),
(43,590,l),
(456,590,l),
(433,462,l),
(411,499,o),
(368,522,o),
(304,522,cs),
(169,522,o),
(75,426,o),
(50,288,cs),
(26,152,o),
(85,54,o),
(214,54,cs),
(282,54,o),
(335,78,o),
(372,118,c),
(352,0,l),
(526,0,l)
);
}
);
width = 1630;
}
);
note = dvKx_PHxA;
},
{
glyphname = dvKx_BA;
lastChange = "2022-10-20 15:45:51 +0000";
layers = (
{
layerId = m01;
shapes = (
{
closed = 1;
nodes = (
(630,590,l),
(1172,590,l),
(1153,485,l),
(1120,515,o),
(1073,533,o),
(1012,533,cs),
(952,533,o),
(895,515,o),
(848,484,c),
(826,508,o),
(795,522,o),
(751,522,cs),
(691,522,o),
(642,499,o),
(607,462,c)
);
},
{
closed = 1;
nodes = (
(1068,0,l),
(1242,0,l),
(1346,590,l),
(1432,590,l),
(1458,740,l),
(69,740,l),
(43,590,l),
(456,590,l),
(433,462,l),
(411,499,o),
(368,522,o),
(304,522,cs),
(169,522,o),
(75,426,o),
(50,288,cs),
(26,152,o),
(85,54,o),
(214,54,cs),
(282,54,o),
(335,78,o),
(372,118,c),
(352,0,l),
(526,0,l),
(575,278,ls),
(584,330,o),
(615,369,o),
(666,369,cs),
(715,369,o),
(732,332,o),
(724,288,c),
(724,288,l),
(703,147,o),
(789,49,o),
(926,49,cs),
(990,49,o),
(1048,69,o),
(1086,105,c)
);
},
{
closed = 1;
nodes = (
(202,-202,o),
(255,-157,o),
(265,-101,cs),
(275,-43,o),
(238,3,o),
(180,3,cs),
(123,3,o),
(70,-43,o),
(60,-101,cs),
(50,-157,o),
(87,-202,o),
(144,-202,cs)
);
},
{
closed = 1;
nodes = (
(253,205,o),
(226,238,o),
(234,287,cs),
(243,336,o),
(284,369,o),
(333,369,cs),
(387,369,o),
(410,332,o),
(402,288,cs),
(395,244,o),
(356,205,o),
(304,205,cs)
);
},
{
closed = 1;
nodes = (
(1104,418,o),
(1142,363,o),
(1130,296,cs),
(1127,283,o),
(1123,270,o),
(1117,258,c),
(951,395,l),
(975,410,o),
(1001,418,o),
(1029,418,cs)
);
},
{
closed = 1;
nodes = (
(920,176,o),
(870,222,o),
(883,296,cs),
(885,310,o),
(890,324,o),
(896,336,c),
(1064,198,l),
(1043,184,o),
(1017,176,o),
(988,176,cs)
);
}
);
width = 1361;
}
);
note = dvKx_BA;
},
{
glyphname = dvKx_MA;
lastChange = "2022-10-20 15:45:51 +0000";
layers = (
{
layerId = m01;
shapes = (
{
closed = 1;
nodes = (
(689,513,o),
(640,492,o),
(606,457,c),
(630,590,l),
(1064,590,l),
(1042,468,l),
(988,468,ls),
(949,468,o),
(911,462,o),
(877,449,c),
(855,489,o),
(813,513,o),
(749,513,cs)
);
},
{
closed = 1;
nodes = (
(202,-202,o),
(255,-157,o),
(265,-101,cs),
(275,-43,o),
(238,3,o),
(180,3,cs),
(123,3,o),
(70,-43,o),
(60,-101,cs),
(50,-157,o),
(87,-202,o),
(144,-202,cs)
);
},
{
closed = 1;
nodes = (
(253,205,o),
(226,238,o),
(234,287,cs),
(243,336,o),
(284,369,o),
(333,369,cs),
(387,369,o),
(410,332,o),
(402,288,cs),
(395,244,o),
(356,205,o),
(304,205,cs)
);
},
{
closed = 1;
nodes = (
(900,201,o),
(878,221,o),
(884,260,cs),
(891,300,o),
(925,321,o),
(968,321,cs),
(1016,321,l),
(1008,273,ls),
(1000,231,o),
(976,201,o),
(933,201,cs)
);
},
{
closed = 1;
nodes = (
(1322,468,l),
(1211,468,l),
(1233,590,l),
(1344,590,l)
);
},
{
closed = 1;
nodes = (
(575,278,ls),
(584,330,o),
(615,369,o),
(666,369,cs),
(713,369,o),
(730,334,o),
(725,291,c),
(722,281,o),
(719,270,o),
(717,259,cs),
(695,132,o),
(771,49,o),
(910,49,cs),
(1059,49,o),
(1153,139,o),
(1178,283,cs),
(1185,321,l),
(1296,321,l),
(1240,0,l),
(1421,0,l),
(1525,590,l),
(1613,590,l),
(1639,740,l),
(69,740,l),
(43,590,l),
(456,590,l),
(433,462,l),
(411,499,o),
(368,522,o),
(304,522,cs),
(169,522,o),
(75,426,o),
(50,288,cs),
(26,152,o),
(85,54,o),
(214,54,cs),
(282,54,o),
(335,78,o),
(372,118,c),
(352,0,l),
(526,0,l)
);
}
);
width = 1530;
}
);
note = dvKx_MA;
},
{
glyphname = dvJx_JxA;
lastChange = "2022-10-20 15:45:51 +0000";
layers = (
{
layerId = m01;
shapes = (
{
closed = 1;
nodes = (
(264,-164,o),
(317,-119,o),
(327,-63,cs),
(337,-5,o),
(300,41,o),
(242,41,cs),
(185,41,o),
(132,-5,o),
(122,-63,cs),
(112,-119,o),
(149,-164,o),
(206,-164,cs)
);
},
{
closed = 1;
nodes = (
(828,-164,o),
(881,-119,o),
(891,-63,cs),
(901,-5,o),
(864,41,o),
(806,41,cs),
(749,41,o),
(696,-5,o),
(686,-63,cs),
(676,-119,o),
(713,-164,o),
(770,-164,cs)
);
},
{
closed = 1;
nodes = (
(1307,0,l),
(1411,590,l),
(1498,590,l),
(1525,740,l),
(66,740,l),
(39,590,l),
(1230,590,l),
(1212,485,l),
(945,485,l),
(917,327,ls),
(908,276,o),
(882,248,o),
(844,248,cs),
(805,248,o),
(789,276,o),
(798,327,cs),
(826,485,l),
(380,485,l),
(352,327,ls),
(343,276,o),
(317,248,o),
(279,248,cs),
(240,248,o),
(224,276,o),
(233,327,cs),
(261,485,l),
(79,485,l),
(50,322,ls),
(26,186,o),
(90,90,o),
(251,90,cs),
(397,90,o),
(503,186,o),
(527,322,cs),
(529,331,l),
(617,331,l),
(615,322,ls),
(591,186,o),
(655,90,o),
(816,90,cs),
(962,90,o),
(1068,186,o),
(1092,322,cs),
(1094,331,l),
(1185,331,l),
(1126,0,l)
);
}
);
width = 1431;
}
);
note = dvJx_JxA;
},
{
glyphname = dvJx_YA;
lastChange = "2022-10-20 15:45:51 +0000";
layers = (
{
layerId = m01;
shapes = (
{
closed = 1;
nodes = (
(1196,0,l),
(1300,590,l),
(1386,590,l),
(1413,740,l),
(66,740,l),
(39,590,l),
(812,590,l),
(806,552,ls),
(795,491,o),
(763,445,o),
(649,445,cs),
(373,445,l),
(352,327,ls),
(343,276,o),
(317,248,o),
(279,248,cs),
(240,248,o),
(224,276,o),
(233,327,cs),
(254,445,l),
(72,445,l),
(50,322,ls),
(26,186,o),
(90,90,o),
(251,90,cs),
(387,90,o),
(489,174,o),
(521,296,c),
(530,296,ls),
(564,296,o),
(592,296,o),
(617,297,c),
(616,158,o),
(693,72,o),
(842,72,cs),
(924,72,o),
(990,97,o),
(1039,138,c),
(1014,0,l)
);
},
{
closed = 1;
nodes = (
(264,-164,o),
(317,-119,o),
(327,-63,cs),
(337,-5,o),
(300,41,o),
(242,41,cs),
(185,41,o),
(132,-5,o),
(122,-63,cs),
(112,-119,o),
(149,-164,o),
(206,-164,cs)
);
},
{
closed = 1;
nodes = (
(827,222,o),
(789,268,o),
(795,328,c),
(900,350,o),
(963,428,o),
(979,519,cs),
(991,590,l),
(1118,590,l),
(1080,374,ls),
(1065,288,o),
(1003,222,o),
(907,222,cs)
);
}
);
width = 1320;
}
);
note = dvJx_YA;
},
{
glyphname = dvEyelash_YA;
lastChange = "2022-10-20 15:45:51 +0000";
layers = (
{
layerId = m01;
shapes = (
{
closed = 1;
nodes = (
(505,222,o),
(467,269,o),
(474,328,c),
(589,345,o),
(641,424,o),
(657,519,cs),
(670,590,l),
(799,590,l),
(761,374,ls),
(746,288,o),
(682,222,o),
(588,222,cs)
);
},
{
closed = 1;
nodes = (
(875,0,l),
(979,590,l),
(1067,590,l),
(1093,740,l),
(51,740,l),
(25,590,l),
(492,590,l),
(485,552,ls),
(472,479,o),
(442,425,o),
(342,420,c),
(342,420,l),
(290,417,o),
(224,443,o),
(236,513,c),
(66,513,l),
(43,348,o),
(157,285,o),
(292,281,c),
(294,152,o),
(373,72,o),
(521,72,cs),
(604,72,o),
(671,97,o),
(719,138,c),
(695,0,l)
);
}
);
width = 1014;
}
);
note = dvEyelash_YA;
},
{
glyphname = dvEyelash_HA;
lastChange = "2022-10-20 15:45:51 +0000";
layers = (
{
layerId = m01;
shapes = (
{
closed = 1;
nodes = (
(580,81,l),
(569,55,o),
(539,34,o),
(502,34,cs),
(463,34,o),
(433,61,o),
(443,118,cs),
(452,172,o),
(493,200,o),
(531,200,cs),
(571,200,o),
(592,176,o),
(592,149,c),
(765,149,l),
(773,261,o),
(712,342,o),
(561,342,cs),
(548,342,o),
(536,341,o),
(524,340,c),
(514,347,o),
(511,358,o),
(513,370,cs),
(518,398,o),
(542,408,o),
(568,408,cs),
(738,408,l),
(770,590,l),
(894,590,l),
(920,740,l),
(61,740,l),
(35,590,l),
(598,590,l),
(588,535,l),
(524,535,ls),
(424,535,o),
(356,484,o),
(341,411,c),
(334,410,o),
(326,409,o),
(317,409,cs),
(267,409,o),
(233,439,o),
(242,490,c),
(72,490,l),
(50,346,o),
(146,267,o),
(260,267,cs),
(319,267,o),
(356,281,o),
(383,295,c),
(383,294,l),
(323,256,o),
(281,198,o),
(267,120,cs),
(242,-24,o),
(326,-114,o),
(476,-114,cs),
(611,-114,o),
(722,-40,o),
(753,81,c)
);
}
);
width = 832;
}
);
note = dvEyelash_HA;
},
{
glyphname = dvmII.aLong;
lastChange = "2022-10-20 15:45:51 +0000";
layers = (
{
layerId = m01;
shapes = (
{
closed = 1;
nodes = (
(-525,701,l),
(-352,701,l),
(-343,748,ls),
(-332,813,o),
(-291,894,o),
(-87,894,cs),
(120,894,o),
(130,813,o),
(119,748,cs),
(117,740,l),
(24,740,l),
(-2,590,l),
(86,590,l),
(-18,0,l),
(162,0,l),
(266,590,l),
(353,590,l),
(379,740,l),
(292,740,l),
(296,761,ls),
(324,922,o),
(243,1045,o),
(-61,1045,cs),
(-353,1045,o),
(-485,927,o),
(-514,761,cs)
);
}
);
width = 327;
}
);
note = dvmII.aLong;
},
{
glyphname = dvmII_Anusvara;
lastChange = "2022-10-20 15:45:51 +0000";
layers = (
{
layerId = m01;
shapes = (
{
closed = 1;
nodes = (
(-222,701,l),
(-47,701,l),
(-34,776,ls),
(-26,821,o),
(-6,890,o),
(67,890,cs),
(137,890,o),
(132,821,o),
(124,776,cs),
(118,740,l),
(25,740,l),
(-2,590,l),
(86,590,l),
(-18,0,l),
(162,0,l),
(266,590,l),
(353,590,l),
(380,740,l),
(293,740,l),
(298,768,ls),
(325,923,o),
(286,1042,o),
(94,1042,cs),
(-94,1042,o),
(-182,927,o),
(-210,768,cs)
);
},
{
closed = 1;
nodes = (
(500,791,o),
(554,837,o),
(564,893,cs),
(574,951,o),
(536,996,o),
(478,996,cs),
(421,996,o),
(368,951,o),
(358,893,cs),
(348,837,o),
(385,791,o),
(442,791,cs)
);
}
);
width = 327;
}
);
note = dvmII_Anusvara;
},
{
glyphname = dvmII_Reph;
lastChange = "2022-10-20 15:45:51 +0000";
layers = (
{
layerId = m01;
shapes = (
{
closed = 1;
nodes = (
(-222,701,l),
(-47,701,l),
(-34,776,ls),
(-26,821,o),
(-6,890,o),
(67,890,cs),
(137,890,o),
(132,821,o),
(124,776,cs),
(118,740,l),
(25,740,l),
(-2,590,l),
(86,590,l),
(-18,0,l),
(162,0,l),
(266,590,l),
(353,590,l),
(380,740,l),
(293,740,l),
(307,822,ls),
(312,850,o),
(324,884,o),
(366,884,cs),
(401,884,o),
(410,860,o),
(400,815,c),
(560,815,l),
(595,955,o),
(538,1027,o),
(437,1027,cs),
(363,1027,o),
(314,995,o),
(284,953,c),
(255,1008,o),
(196,1042,o),
(94,1042,cs),
(-94,1042,o),
(-182,927,o),
(-210,768,cs)
);
}
);
width = 327;
}
);
note = dvmII_Reph;
},
{
glyphname = dvmII_Reph_Anusvara;
lastChange = "2022-10-20 15:45:51 +0000";
layers = (
{
layerId = m01;
shapes = (
{
closed = 1;
nodes = (
(292,740,l),
(305,813,ls),
(315,868,o),
(352,905,o),
(403,905,cs),
(453,905,o),
(473,874,o),
(470,841,c),
(614,841,l),
(647,956,o),
(589,1045,o),
(466,1045,cs),
(379,1045,o),
(319,1005,o),
(283,954,c),
(254,1009,o),
(196,1042,o),
(94,1042,cs),
(-94,1042,o),
(-183,927,o),
(-211,768,cs),
(-223,701,l),
(-48,701,l),
(-34,776,ls),
(-26,821,o),
(-6,890,o),
(67,890,cs),
(137,890,o),
(132,821,o),
(124,776,cs),
(117,740,l),
(24,740,l),
(-2,590,l),
(86,590,l),
(-18,0,l),
(162,0,l),
(266,590,l),
(353,590,l),
(379,740,l)
);
},
{
closed = 1;
nodes = (
(406,769,o),
(434,793,o),
(439,821,cs),
(444,851,o),
(425,874,o),
(395,874,cs),
(366,874,o),
(340,851,o),
(335,821,cs),
(330,793,o),
(347,769,o),
(376,769,cs)
);
}
);
width = 327;
}
);
note = dvmII_Reph_Anusvara;
},
{
glyphname = dvmII_Anusvara.aLong;
lastChange = "2022-10-20 15:45:51 +0000";
layers = (
{
layerId = m01;
shapes = (
{
closed = 1;
nodes = (
(-525,701,l),
(-352,701,l),
(-343,748,ls),
(-332,813,o),
(-291,894,o),
(-87,894,cs),
(120,894,o),
(130,813,o),
(119,748,cs),
(117,740,l),
(24,740,l),
(-2,590,l),
(86,590,l),
(-18,0,l),
(162,0,l),
(266,590,l),
(353,590,l),
(379,740,l),
(292,740,l),
(296,761,ls),
(324,922,o),
(243,1045,o),
(-61,1045,cs),
(-353,1045,o),
(-485,927,o),
(-514,761,cs)
);
},
{
closed = 1;
nodes = (
(499,791,o),
(553,837,o),
(563,893,cs),
(574,951,o),
(535,996,o),
(477,996,cs),
(420,996,o),
(368,951,o),
(357,893,cs),
(347,837,o),
(384,791,o),
(441,791,cs)
);
}
);
width = 327;
}
);
note = dvmII_Anusvara.aLong;
},
{
glyphname = dvmII_Reph.aLong;
lastChange = "2022-10-20 15:45:51 +0000";
layers = (
{
layerId = m01;
shapes = (
{
closed = 1;
nodes = (
(-525,701,l),
(-352,701,l),
(-343,748,ls),
(-332,813,o),
(-291,894,o),
(-87,894,cs),
(120,894,o),
(130,813,o),
(119,748,cs),
(117,740,l),
(24,740,l),
(-2,590,l),
(86,590,l),
(-18,0,l),
(162,0,l),
(266,590,l),
(353,590,l),
(379,740,l),
(292,740,l),
(307,822,ls),
(312,850,o),
(324,884,o),
(366,884,cs),
(401,884,o),
(410,860,o),
(400,815,c),
(560,815,l),
(594,955,o),
(538,1027,o),
(437,1027,cs),
(350,1027,o),
(298,983,o),
(270,931,c),
(223,1001,o),
(121,1045,o),
(-61,1045,cs),
(-353,1045,o),
(-485,927,o),
(-514,761,cs)
);
}
);
width = 327;
}
);
note = dvmII_Reph.aLong;
},
{
glyphname = dvmII_Reph_Anusvara.aLong;
lastChange = "2022-10-20 15:45:51 +0000";
layers = (
{
layerId = m01;
shapes = (
{
closed = 1;
nodes = (
(292,740,l),
(305,813,ls),
(315,868,o),
(352,905,o),
(403,905,cs),
(453,905,o),
(473,874,o),
(470,841,c),
(614,841,l),
(647,956,o),
(589,1045,o),
(466,1045,cs),
(367,1045,o),
(302,992,o),
(269,932,c),
(222,1001,o),
(120,1045,o),
(-61,1045,cs),
(-353,1045,o),
(-485,927,o),
(-514,761,cs),
(-525,701,l),
(-352,701,l),
(-343,748,ls),
(-332,813,o),
(-291,894,o),
(-87,894,cs),
(120,894,o),
(130,813,o),
(119,748,cs),
(117,740,l),
(24,740,l),
(-2,590,l),
(86,590,l),
(-18,0,l),
(162,0,l),
(266,590,l),
(353,590,l),
(379,740,l)
);
},
{
closed = 1;
nodes = (
(406,769,o),
(434,793,o),
(439,821,cs),
(444,851,o),
(425,874,o),
(395,874,cs),
(366,874,o),
(340,851,o),
(335,821,cs),
(330,793,o),
(347,769,o),
(376,769,cs)
);
}
);
width = 327;
}
);
note = dvmII_Reph_Anusvara.aLong;
},
{
glyphname = dvmE_Anusvara;
lastChange = "2022-10-20 15:45:51 +0000";
layers = (
{
layerId = m01;
shapes = (
{
closed = 1;
nodes = (
(-99,735,l),
(-188,975,o),
(-238,1005,o),
(-400,1006,cs),
(-453,1006,l),
(-479,861,l),
(-424,861,ls),
(-338,861,o),
(-319,843,o),
(-268,735,c)
);
},
{
closed = 1;
nodes = (
(55,795,o),
(109,841,o),
(119,897,cs),
(129,955,o),
(91,1000,o),
(33,1000,cs),
(-24,1000,o),
(-77,955,o),
(-87,897,cs),
(-97,841,o),
(-60,795,o),
(-3,795,cs)
);
}
);
width = 0;
}
);
note = dvmE_Anusvara;
},
{
glyphname = dvmE_Reph;
lastChange = "2022-10-20 15:45:51 +0000";
layers = (
{
layerId = m01;
shapes = (
{
closed = 1;
nodes = (
(-99,735,l),
(-108,758,o),
(-112,786,o),
(-108,809,cs),
(-102,845,o),
(-80,870,o),
(-45,870,cs),
(-10,870,o),
(-1,841,o),
(-10,810,c),
(143,810,l),
(174,920,o),
(132,1007,o),
(17,1007,cs),
(-85,1007,o),
(-138,942,o),
(-160,878,c),
(-219,988,o),
(-278,1005,o),
(-400,1006,cs),
(-453,1006,l),
(-479,861,l),
(-424,861,ls),
(-338,861,o),
(-319,843,o),
(-268,735,c)
);
}
);
width = 0;
}
);
note = dvmE_Reph;
},
{
glyphname = dvmE_Reph_Anusvara;
lastChange = "2022-10-20 15:45:51 +0000";
layers = (
{
layerId = m01;
shapes = (
{
closed = 1;
nodes = (
(-100,735,l),
(-102,740,ls),
(-112,766,o),
(-118,790,o),
(-112,822,cs),
(-103,871,o),
(-63,907,o),
(-14,907,cs),
(46,907,o),
(64,862,o),
(55,818,c),
(176,818,l),
(209,941,o),
(149,1021,o),
(30,1021,cs),
(-78,1021,o),
(-141,958,o),
(-168,889,c),
(-225,989,o),
(-285,1005,o),
(-401,1006,cs),
(-454,1006,l),
(-480,861,l),
(-425,861,ls),
(-339,861,o),
(-320,843,o),
(-269,735,c)
);
},
{
closed = 1;
nodes = (
(-11,771,o),
(16,795,o),
(21,823,cs),
(27,853,o),
(8,876,o),
(-22,876,cs),
(-51,876,o),
(-77,853,o),
(-83,823,cs),
(-88,795,o),
(-70,771,o),
(-41,771,cs)
);
}
);
width = 0;
}
);
note = dvmE_Reph_Anusvara;
},
{
glyphname = dvmAI_Anusvara;
lastChange = "2022-10-20 15:45:51 +0000";
layers = (
{
layerId = m01;
shapes = (
{
closed = 1;
nodes = (
(-106,737,l),
(-219,1066,o),
(-245,1081,o),
(-405,1081,cs),
(-461,1081,l),
(-480,969,l),
(-419,969,ls),
(-355,969,o),
(-314,968,o),
(-267,863,c),
(-322,911,o),
(-347,911,o),
(-438,911,cs),
(-491,911,l),
(-510,799,l),
(-453,799,ls),
(-345,799,o),
(-357,799,o),
(-260,737,c)
);
},
{
closed = 1;
nodes = (
(52,792,o),
(106,838,o),
(116,894,cs),
(127,952,o),
(89,997,o),
(31,997,cs),
(-26,997,o),
(-79,952,o),
(-90,894,cs),
(-100,838,o),
(-63,792,o),
(-6,792,cs)
);
}
);
width = 0;
}
);
note = dvmAI_Anusvara;
},
{
glyphname = dvmAI_Reph;
lastChange = "2022-10-20 15:45:51 +0000";
layers = (
{
layerId = m01;
shapes = (
{
closed = 1;
nodes = (
(-106,737,l),
(-108,740,o),
(-109,744,o),
(-110,747,cs),
(-116,768,o),
(-118,790,o),
(-115,809,cs),
(-108,845,o),
(-87,870,o),
(-52,870,cs),
(-17,870,o),
(-8,841,o),
(-16,810,c),
(120,810,l),
(149,920,o),
(112,1007,o),
(8,1007,cs),
(-87,1007,o),
(-139,951,o),
(-162,891,c),
(-233,1071,o),
(-275,1081,o),
(-405,1081,cs),
(-461,1081,l),
(-480,969,l),
(-419,969,ls),
(-355,969,o),
(-314,968,o),
(-267,863,c),
(-322,911,o),
(-347,911,o),
(-438,911,cs),
(-491,911,l),
(-510,799,l),
(-453,799,ls),
(-345,799,o),
(-357,799,o),
(-260,737,c)
);
}
);
width = 0;
}
);
note = dvmAI_Reph;
},
{
glyphname = dvmAI_Reph_Anusvara;
lastChange = "2022-10-20 15:45:51 +0000";
layers = (
{
layerId = m01;
shapes = (
{
closed = 1;
nodes = (
(-106,737,l),
(-115,765,o),
(-124,787,o),
(-118,818,cs),
(-109,871,o),
(-69,907,o),
(-19,907,cs),
(41,907,o),
(59,862,o),
(50,818,c),
(171,818,l),
(203,936,o),
(148,1021,o),
(25,1021,cs),
(-73,1021,o),
(-137,964,o),
(-166,900,c),
(-235,1071,o),
(-277,1081,o),
(-405,1081,cs),
(-461,1081,l),
(-480,969,l),
(-419,969,ls),
(-355,969,o),
(-314,968,o),
(-267,863,c),
(-322,911,o),
(-347,911,o),
(-438,911,cs),
(-491,911,l),
(-510,799,l),
(-453,799,ls),
(-345,799,o),
(-357,799,o),
(-260,737,c)
);
},
{
closed = 1;
nodes = (
(-17,771,o),
(10,795,o),
(15,823,cs),
(20,853,o),
(1,876,o),
(-29,876,cs),
(-58,876,o),
(-84,853,o),
(-89,823,cs),
(-94,795,o),
(-76,771,o),
(-47,771,cs)
);
}
);
width = 0;
}
);
note = dvmAI_Reph_Anusvara;
},
{
glyphname = dvmO_Anusvara;
lastChange = "2022-10-20 15:45:51 +0000";
layers = (
{
layerId = m01;
shapes = (
{
closed = 1;
nodes = (
(165,0,l),
(269,590,l),
(356,590,l),
(383,740,l),
(292,740,l),
(205,975,o),
(155,1005,o),
(-7,1006,cs),
(-60,1006,l),
(-86,861,l),
(-31,861,ls),
(54,861,o),
(73,844,o),
(123,740,c),
(28,740,l),
(1,590,l),
(89,590,l),
(-15,0,l)
);
},
{
closed = 1;
nodes = (
(447,795,o),
(502,841,o),
(511,897,cs),
(522,955,o),
(484,1000,o),
(426,1000,cs),
(369,1000,o),
(316,955,o),
(305,897,cs),
(296,841,o),
(332,795,o),
(389,795,cs)
);
}
);
width = 327;
}
);
note = dvmO_Anusvara;
},
{
glyphname = dvmO_Reph;
lastChange = "2022-10-20 15:45:51 +0000";
layers = (
{
layerId = m01;
shapes = (
{
closed = 1;
nodes = (
(165,0,l),
(269,590,l),
(356,590,l),
(383,740,l),
(292,740,l),
(285,762,o),
(281,788,o),
(285,809,cs),
(291,845,o),
(313,870,o),
(348,870,cs),
(383,870,o),
(392,841,o),
(383,810,c),
(536,810,l),
(566,920,o),
(525,1007,o),
(410,1007,cs),
(308,1007,o),
(254,942,o),
(233,878,c),
(173,988,o),
(114,1005,o),
(-7,1006,cs),
(-60,1006,l),
(-86,861,l),
(-31,861,ls),
(54,861,o),
(73,844,o),
(123,740,c),
(28,740,l),
(1,590,l),
(89,590,l),
(-15,0,l)
);
}
);
width = 327;
}
);
note = dvmO_Reph;
},
{
glyphname = dvmO_Reph_Anusvara;
lastChange = "2022-10-20 15:45:51 +0000";
layers = (
{
layerId = m01;
shapes = (
{
closed = 1;
nodes = (
(164,0,l),
(268,590,l),
(355,590,l),
(381,740,l),
(290,740,l),
(290,740,l),
(281,766,o),
(275,790,o),
(281,822,cs),
(290,871,o),
(330,907,o),
(379,907,cs),
(439,907,o),
(457,862,o),
(448,818,c),
(569,818,l),
(602,941,o),
(542,1021,o),
(423,1021,cs),
(315,1021,o),
(252,958,o),
(225,889,c),
(167,989,o),
(108,1005,o),
(-9,1006,cs),
(-62,1006,l),
(-87,861,l),
(-32,861,ls),
(53,861,o),
(72,844,o),
(121,740,c),
(26,740,l),
(0,590,l),
(88,590,l),
(-16,0,l)
);
},
{
closed = 1;
nodes = (
(382,771,o),
(409,795,o),
(414,823,cs),
(419,853,o),
(400,876,o),
(370,876,cs),
(341,876,o),
(315,853,o),
(310,823,cs),
(305,795,o),
(323,771,o),
(352,771,cs)
);
}
);
width = 327;
}
);
note = dvmO_Reph_Anusvara;
},
{
glyphname = dvmAU_Anusvara;
lastChange = "2022-10-20 15:45:51 +0000";
layers = (
{
layerId = m01;
shapes = (
{
closed = 1;
nodes = (
(159,0,l),
(263,590,l),
(350,590,l),
(376,740,l),
(279,740,l),
(168,1066,o),
(142,1081,o),
(-18,1081,cs),
(-74,1081,l),
(-93,969,l),
(-32,969,ls),
(32,969,o),
(73,968,o),
(120,863,c),
(65,911,o),
(40,911,o),
(-51,911,cs),
(-104,911,l),
(-123,799,l),
(-66,799,ls),
(40,799,o),
(30,799,o),
(122,740,c),
(21,740,l),
(-5,590,l),
(83,590,l),
(-21,0,l)
);
},
{
closed = 1;
nodes = (
(439,792,o),
(493,838,o),
(503,894,cs),
(514,952,o),
(475,997,o),
(417,997,cs),
(360,997,o),
(308,952,o),
(297,894,cs),
(287,838,o),
(324,792,o),
(381,792,cs)
);
}
);
width = 327;
}
);
note = dvmAU_Anusvara;
},
{
glyphname = dvmAU_Reph;
lastChange = "2022-10-20 15:45:51 +0000";
layers = (
{
layerId = m01;
shapes = (
{
closed = 1;
nodes = (
(159,0,l),
(263,590,l),
(350,590,l),
(376,740,l),
(279,740,l),
(279,740,o),
(278,744,o),
(277,747,cs),
(271,768,o),
(269,790,o),
(272,809,cs),
(279,845,o),
(300,870,o),
(335,870,cs),
(370,870,o),
(379,841,o),
(371,810,c),
(507,810,l),
(536,920,o),
(499,1007,o),
(395,1007,cs),
(300,1007,o),
(248,951,o),
(225,891,c),
(154,1071,o),
(112,1081,o),
(-18,1081,cs),
(-74,1081,l),
(-93,969,l),
(-32,969,ls),
(32,969,o),
(73,968,o),
(120,863,c),
(65,911,o),
(40,911,o),
(-51,911,cs),
(-104,911,l),
(-123,799,l),
(-66,799,ls),
(40,799,o),
(30,799,o),
(122,740,c),
(21,740,l),
(-5,590,l),
(83,590,l),
(-21,0,l)
);
}
);
width = 327;
}
);
note = dvmAU_Reph;
},
{
glyphname = dvmAU_Reph_Anusvara;
lastChange = "2022-10-20 15:45:51 +0000";
layers = (
{
layerId = m01;
shapes = (
{
closed = 1;
nodes = (
(159,0,l),
(263,590,l),
(350,590,l),
(376,740,l),
(279,740,l),
(272,765,o),
(263,787,o),
(269,818,cs),
(278,871,o),
(318,907,o),
(368,907,cs),
(428,907,o),
(446,862,o),
(437,818,c),
(558,818,l),
(590,936,o),
(535,1021,o),
(412,1021,cs),
(314,1021,o),
(250,964,o),
(221,900,c),
(152,1071,o),
(110,1081,o),
(-18,1081,cs),
(-74,1081,l),
(-93,969,l),
(-32,969,ls),
(32,969,o),
(73,968,o),
(120,863,c),
(65,911,o),
(40,911,o),
(-51,911,cs),
(-104,911,l),
(-123,799,l),
(-66,799,ls),
(40,799,o),
(30,799,o),
(122,740,c),
(21,740,l),
(-5,590,l),
(83,590,l),
(-21,0,l)
);
},
{
closed = 1;
nodes = (
(370,771,o),
(397,795,o),
(402,823,cs),
(407,853,o),
(388,876,o),
(358,876,cs),
(329,876,o),
(303,853,o),
(298,823,cs),
(293,795,o),
(311,771,o),
(340,771,cs)
);
}
);
width = 327;
}
);
note = dvmAU_Reph_Anusvara;
},
{
glyphname = dvmEcandra_Anusvara;
lastChange = "2022-10-20 15:45:51 +0000";
layers = (
{
layerId = m01;
shapes = (
{
closed = 1;
nodes = (
(-29,809,o),
(75,889,o),
(100,1031,c),
(-45,1031,l),
(-55,978,o),
(-100,936,o),
(-168,936,cs),
(-236,936,o),
(-268,978,o),
(-258,1031,c),
(-401,1031,l),
(-426,889,o),
(-353,809,o),
(-191,809,cs)
);
},
{
closed = 1;
nodes = (
(-121,988,o),
(-88,1017,o),
(-81,1054,cs),
(-75,1091,o),
(-97,1121,o),
(-136,1121,cs),
(-172,1121,o),
(-208,1091,o),
(-214,1054,cs),
(-221,1017,o),
(-196,988,o),
(-160,988,cs)
);
}
);
width = 0;
}
);
note = dvmEcandra_Anusvara;
},
{
glyphname = dvmOcandra_Anusvara;
lastChange = "2022-10-20 15:45:51 +0000";
layers = (
{
layerId = m01;
shapes = (
{
closed = 1;
nodes = (
(-25,0,l),
(155,0,l),
(259,590,l),
(346,590,l),
(373,740,l),
(18,740,l),
(-9,590,l),
(79,590,l)
);
},
{
closed = 1;
nodes = (
(370,809,o),
(473,889,o),
(498,1031,c),
(353,1031,l),
(344,978,o),
(298,936,o),
(230,936,cs),
(162,936,o),
(131,978,o),
(140,1031,c),
(-3,1031,l),
(-28,889,o),
(46,809,o),
(208,809,cs)
);
},
{
closed = 1;
nodes = (
(277,988,o),
(310,1017,o),
(317,1054,cs),
(324,1091,o),
(301,1121,o),
(262,1121,cs),
(226,1121,o),
(191,1091,o),
(184,1054,cs),
(177,1017,o),
(202,988,o),
(238,988,cs)
);
}
);
width = 327;
}
);
note = dvmOcandra_Anusvara;
},
{
glyphname = dvRA_mU;
lastChange = "2022-10-20 15:45:51 +0000";
layers = (
{
layerId = m01;
shapes = (
{
closed = 1;
nodes = (
(26,590,l),
(329,590,l),
(322,552,ls),
(309,481,o),
(273,433,o),
(168,433,cs),
(68,433,l),
(28,209,ls),
(7,87,o),
(68,-9,o),
(217,-9,cs),
(352,-9,o),
(445,74,o),
(467,201,cs),
(468,204,o),
(469,211,o),
(469,218,c),
(296,218,l),
(292,195,ls),
(287,167,o),
(268,144,o),
(240,144,cs),
(209,144,o),
(200,169,o),
(206,200,cs),
(222,289,l),
(570,289,ls),
(604,289,o),
(621,272,o),
(616,246,cs),
(611,218,o),
(590,202,o),
(554,202,cs),
(541,202,o),
(531,203,o),
(522,205,c),
(496,62,l),
(508,59,o),
(529,57,o),
(546,57,cs),
(666,57,o),
(754,129,o),
(774,239,cs),
(796,363,o),
(737,433,o),
(581,433,cs),
(455,433,l),
(478,469,o),
(494,510,o),
(502,552,cs),
(509,590,l),
(881,590,l),
(907,740,l),
(52,740,l)
);
}
);
width = 823;
}
);
note = dvRA_mU;
},
{
glyphname = dvRA_mUU;
lastChange = "2022-10-20 15:45:51 +0000";
layers = (
{
layerId = m01;
shapes = (
{
closed = 1;
nodes = (
(26,590,l),
(329,590,l),
(322,552,ls),
(309,481,o),
(273,433,o),
(168,433,cs),
(68,433,l),
(28,209,ls),
(7,87,o),
(68,-9,o),
(217,-9,cs),
(352,-9,o),
(445,74,o),
(467,201,cs),
(468,204,o),
(469,211,o),
(469,218,c),
(296,218,l),
(292,195,ls),
(287,167,o),
(268,144,o),
(240,144,cs),
(209,144,o),
(200,169,o),
(206,200,cs),
(222,289,l),
(466,289,ls),
(529,289,o),
(553,254,o),
(544,201,cs),
(529,116,l),
(697,116,l),
(713,206,ls),
(737,343,o),
(673,433,o),
(511,433,cs),
(455,433,l),
(478,469,o),
(494,510,o),
(502,552,cs),
(509,590,l),
(826,590,l),
(852,740,l),
(52,740,l)
);
}
);
width = 772;
}
);
note = dvRA_mUU;
},
{
glyphname = dvmI.a01;
lastChange = "2022-10-20 15:45:51 +0000";
layers = (
{
layerId = m01;
shapes = (
{
closed = 1;
nodes = (
(266,590,l),
(353,590,l),
(380,740,l),
(292,740,l),
(318,845,o),
(408,896,o),
(502,896,cs),
(601,896,o),
(676,833,o),
(655,715,cs),
(653,701,l),
(829,701,l),
(832,718,ls),
(864,901,o),
(757,1042,o),
(528,1042,cs),
(304,1042,o),
(152,914,o),
(113,740,c),
(25,740,l),
(-2,590,l),
(86,590,l),
(-18,0,l),
(162,0,l)
);
}
);
width = 327;
}
);
note = dvmI.a01;
},
{
glyphname = dvmI.a02;
lastChange = "2022-10-20 15:45:51 +0000";
layers = (
{
layerId = m01;
shapes = (
{
closed = 1;
nodes = (
(266,590,l),
(353,590,l),
(380,740,l),
(292,740,l),
(318,845,o),
(411,897,o),
(529,897,cs),
(654,897,o),
(733,834,o),
(712,713,cs),
(709,699,l),
(885,699,l),
(889,718,ls),
(921,903,o),
(812,1043,o),
(555,1043,cs),
(307,1043,o),
(154,918,o),
(114,740,c),
(25,740,l),
(-2,590,l),
(86,590,l),
(-18,0,l),
(162,0,l)
);
}
);
width = 327;
}
);
note = dvmI.a02;
},
{
glyphname = dvmI.a03;
lastChange = "2022-10-20 15:45:51 +0000";
layers = (
{
layerId = m01;
shapes = (
{
closed = 1;
nodes = (
(266,590,l),
(353,590,l),
(379,740,l),
(291,740,l),
(318,846,o),
(413,898,o),
(556,898,cs),
(708,898,o),
(791,835,o),
(769,710,cs),
(767,697,l),
(944,697,l),
(947,715,ls),
(980,904,o),
(867,1044,o),
(584,1044,cs),
(310,1044,o),
(154,919,o),
(113,740,c),
(24,740,l),
(-2,590,l),
(86,590,l),
(-18,0,l),
(162,0,l)
);
}
);
width = 327;
}
);
note = dvmI.a03;
},
{
glyphname = dvmI.a04;
lastChange = "2022-10-20 15:45:51 +0000";
layers = (
{
layerId = m01;
shapes = (
{
closed = 1;
nodes = (
(266,590,l),
(353,590,l),
(379,740,l),
(291,740,l),
(319,846,o),
(416,899,o),
(583,899,cs),
(763,899,o),
(848,834,o),
(826,709,cs),
(824,696,l),
(1001,696,l),
(1004,713,ls),
(1037,904,o),
(922,1045,o),
(610,1045,cs),
(312,1045,o),
(154,922,o),
(113,740,c),
(24,740,l),
(-2,590,l),
(86,590,l),
(-18,0,l),
(162,0,l)
);
}
);
width = 327;
}
);
note = dvmI.a04;
},
{
glyphname = dvmI.a05;
lastChange = "2022-10-20 15:45:51 +0000";
layers = (
{
layerId = m01;
shapes = (
{
closed = 1;
nodes = (
(266,590,l),
(353,590,l),
(379,740,l),
(291,740,l),
(319,847,o),
(418,900,o),
(610,900,cs),
(817,900,o),
(906,835,o),
(883,707,cs),
(881,694,l),
(1058,694,l),
(1061,711,ls),
(1096,906,o),
(977,1046,o),
(639,1046,cs),
(315,1046,o),
(155,924,o),
(113,740,c),
(24,740,l),
(-2,590,l),
(86,590,l),
(-18,0,l),
(162,0,l)
);
}
);
width = 327;
}
);
note = dvmI.a05;
},
{
glyphname = dvmI.a06;
lastChange = "2022-10-20 15:45:51 +0000";
layers = (
{
layerId = m01;
shapes = (
{
closed = 1;
nodes = (
(266,590,l),
(353,590,l),
(379,740,l),
(291,740,l),
(319,847,o),
(421,901,o),
(638,901,cs),
(872,901,o),
(963,835,o),
(940,705,cs),
(938,693,l),
(1115,693,l),
(1118,709,ls),
(1153,907,o),
(1032,1047,o),
(666,1047,cs),
(318,1047,o),
(155,925,o),
(113,740,c),
(24,740,l),
(-2,590,l),
(86,590,l),
(-18,0,l),
(162,0,l)
);
}
);
width = 327;
}
);
note = dvmI.a06;
},
{
glyphname = dvmI.a07;
lastChange = "2022-10-20 15:45:51 +0000";
layers = (
{
layerId = m01;
shapes = (
{
closed = 1;
nodes = (
(266,590,l),
(353,590,l),
(379,740,l),
(291,740,l),
(320,848,o),
(424,901,o),
(665,901,cs),
(926,901,o),
(1021,837,o),
(998,703,cs),
(996,691,l),
(1172,691,l),
(1175,708,ls),
(1210,908,o),
(1087,1047,o),
(695,1047,cs),
(322,1047,o),
(156,928,o),
(113,740,c),
(24,740,l),
(-2,590,l),
(86,590,l),
(-18,0,l),
(162,0,l)
);
}
);
width = 327;
}
);
note = dvmI.a07;
},
{
glyphname = dvmI.a08;
lastChange = "2022-10-20 15:45:51 +0000";
layers = (
{
layerId = m01;
shapes = (
{
closed = 1;
nodes = (
(266,590,l),
(353,590,l),
(379,740,l),
(291,740,l),
(320,849,o),
(426,902,o),
(693,902,cs),
(980,902,o),
(1079,837,o),
(1055,702,cs),
(1053,690,l),
(1229,690,l),
(1232,706,ls),
(1268,909,o),
(1143,1048,o),
(723,1048,cs),
(324,1048,o),
(157,931,o),
(113,740,c),
(24,740,l),
(-2,590,l),
(86,590,l),
(-18,0,l),
(162,0,l)
);
}
);
width = 327;
}
);
note = dvmI.a08;
},
{
glyphname = dvmI.a09;
lastChange = "2022-10-20 15:45:51 +0000";
layers = (
{
layerId = m01;
shapes = (
{
closed = 1;
nodes = (
(266,590,l),
(353,590,l),
(379,740,l),
(291,740,l),
(320,850,o),
(429,903,o),
(719,903,cs),
(1033,903,o),
(1134,838,o),
(1110,699,cs),
(1108,689,l),
(1286,688,l),
(1288,703,ls),
(1325,911,o),
(1197,1049,o),
(750,1049,cs),
(326,1049,o),
(157,933,o),
(113,740,c),
(24,740,l),
(-2,590,l),
(86,590,l),
(-18,0,l),
(162,0,l)
);
}
);
width = 327;
}
);
note = dvmI.a09;
},
{
glyphname = dvmI.a10;
lastChange = "2022-10-20 15:45:51 +0000";
layers = (
{
layerId = m01;
shapes = (
{
closed = 1;
nodes = (
(265,590,l),
(352,590,l),
(379,740,l),
(291,740,l),
(320,851,o),
(430,904,o),
(746,904,cs),
(1088,904,o),
(1192,837,o),
(1167,697,cs),
(1166,687,l),
(1344,687,l),
(1346,702,ls),
(1383,911,o),
(1253,1050,o),
(778,1050,cs),
(330,1050,o),
(157,934,o),
(113,740,c),
(24,740,l),
(-3,590,l),
(85,590,l),
(-19,0,l),
(161,0,l)
);
}
);
width = 327;
}
);
note = dvmI.a10;
},
{
glyphname = dvmI.a11;
lastChange = "2022-10-20 15:45:51 +0000";
layers = (
{
layerId = m01;
shapes = (
{
closed = 1;
nodes = (
(265,590,l),
(352,590,l),
(379,740,l),
(291,740,l),
(321,851,o),
(433,905,o),
(774,905,cs),
(1142,905,o),
(1251,838,o),
(1226,695,cs),
(1224,685,l),
(1401,685,l),
(1404,700,ls),
(1441,913,o),
(1309,1051,o),
(806,1051,cs),
(334,1051,o),
(158,936,o),
(113,740,c),
(24,740,l),
(-3,590,l),
(85,590,l),
(-19,0,l),
(161,0,l)
);
}
);
width = 327;
}
);
note = dvmI.a11;
},
{
glyphname = dvmI.a12;
lastChange = "2022-10-20 15:45:51 +0000";
layers = (
{
layerId = m01;
shapes = (
{
closed = 1;
nodes = (
(265,590,l),
(352,590,l),
(379,740,l),
(291,740,l),
(321,852,o),
(436,906,o),
(800,906,cs),
(1196,906,o),
(1309,838,o),
(1284,694,cs),
(1282,684,l),
(1459,684,l),
(1461,698,ls),
(1499,914,o),
(1363,1052,o),
(834,1052,cs),
(336,1052,o),
(159,939,o),
(113,740,c),
(24,740,l),
(-3,590,l),
(85,590,l),
(-19,0,l),
(161,0,l)
);
}
);
width = 327;
}
);
note = dvmI.a12;
},
{
glyphname = dvmI.a13;
lastChange = "2022-10-20 15:45:51 +0000";
layers = (
{
layerId = m01;
shapes = (
{
closed = 1;
nodes = (
(265,590,l),
(352,590,l),
(379,740,l),
(291,740,l),
(321,851,o),
(438,907,o),
(827,907,cs),
(1249,907,o),
(1365,839,o),
(1339,693,cs),
(1337,682,l),
(1516,682,l),
(1519,696,ls),
(1558,915,o),
(1418,1053,o),
(862,1053,cs),
(339,1053,o),
(159,941,o),
(113,740,c),
(24,740,l),
(-3,590,l),
(85,590,l),
(-19,0,l),
(161,0,l)
);
}
);
width = 327;
}
);
note = dvmI.a13;
},
{
glyphname = dvmI.a14;
lastChange = "2022-10-20 15:45:51 +0000";
layers = (
{
layerId = m01;
shapes = (
{
closed = 1;
nodes = (
(265,590,l),
(352,590,l),
(379,740,l),
(291,740,l),
(322,853,o),
(442,908,o),
(855,908,cs),
(1303,908,o),
(1423,839,o),
(1397,690,cs),
(1395,682,l),
(1573,681,l),
(1575,693,ls),
(1615,917,o),
(1473,1054,o),
(890,1054,cs),
(342,1054,o),
(160,944,o),
(113,740,c),
(24,740,l),
(-3,590,l),
(85,590,l),
(-19,0,l),
(161,0,l)
);
}
);
width = 327;
}
);
note = dvmI.a14;
},
{
glyphname = dvmI.a15;
lastChange = "2022-10-20 15:45:51 +0000";
layers = (
{
layerId = m01;
shapes = (
{
closed = 1;
nodes = (
(265,590,l),
(352,590,l),
(378,740,l),
(290,740,l),
(323,854,o),
(444,909,o),
(882,909,cs),
(1357,909,o),
(1481,841,o),
(1454,688,cs),
(1453,680,l),
(1631,680,l),
(1633,693,ls),
(1673,917,o),
(1528,1055,o),
(918,1055,cs),
(345,1055,o),
(161,946,o),
(112,740,c),
(23,740,l),
(-3,590,l),
(85,590,l),
(-19,0,l),
(161,0,l)
);
}
);
width = 327;
}
);
note = dvmI.a15;
},
{
glyphname = dvmI.a16;
lastChange = "2022-10-20 15:45:51 +0000";
layers = (
{
layerId = m01;
shapes = (
{
closed = 1;
nodes = (
(265,590,l),
(352,590,l),
(378,740,l),
(290,740,l),
(324,855,o),
(448,910,o),
(909,910,cs),
(1412,910,o),
(1537,841,o),
(1510,686,cs),
(1509,679,l),
(1689,679,l),
(1691,691,ls),
(1731,919,o),
(1583,1056,o),
(945,1056,cs),
(347,1056,o),
(161,948,o),
(112,740,c),
(23,740,l),
(-3,590,l),
(85,590,l),
(-19,0,l),
(161,0,l)
);
}
);
width = 327;
}
);
note = dvmI.a16;
},
{
glyphname = dvmI.a17;
lastChange = "2022-10-20 15:45:51 +0000";
layers = (
{
layerId = m01;
shapes = (
{
closed = 1;
nodes = (
(265,590,l),
(352,590,l),
(378,740,l),
(290,740,l),
(324,855,o),
(450,911,o),
(936,911,cs),
(1466,911,o),
(1595,841,o),
(1567,684,cs),
(1566,677,l),
(1745,677,l),
(1747,689,ls),
(1788,920,o),
(1638,1057,o),
(973,1057,cs),
(350,1057,o),
(161,950,o),
(112,740,c),
(23,740,l),
(-3,590,l),
(85,590,l),
(-19,0,l),
(161,0,l)
);
}
);
width = 327;
}
);
note = dvmI.a17;
},
{
glyphname = dvmI.a18;
lastChange = "2022-10-20 15:45:51 +0000";
layers = (
{
layerId = m01;
shapes = (
{
closed = 1;
nodes = (
(265,590,l),
(352,590,l),
(378,740,l),
(290,740,l),
(325,856,o),
(453,912,o),
(965,912,cs),
(1520,912,o),
(1653,842,o),
(1625,683,cs),
(1624,675,l),
(1802,675,l),
(1804,687,ls),
(1845,922,o),
(1694,1058,o),
(1001,1058,cs),
(354,1058,o),
(163,953,o),
(112,740,c),
(23,740,l),
(-3,590,l),
(85,590,l),
(-19,0,l),
(161,0,l)
);
}
);
width = 327;
}
);
note = dvmI.a18;
},
{
glyphname = dvmI.a19;
lastChange = "2022-10-20 15:45:51 +0000";
layers = (
{
layerId = m01;
shapes = (
{
closed = 1;
nodes = (
(265,590,l),
(352,590,l),
(378,740,l),
(290,740,l),
(325,856,o),
(456,913,o),
(991,913,cs),
(1573,913,o),
(1710,842,o),
(1682,681,cs),
(1680,674,l),
(1859,673,l),
(1861,685,ls),
(1903,923,o),
(1748,1059,o),
(1028,1059,cs),
(357,1059,o),
(163,954,o),
(112,740,c),
(23,740,l),
(-3,590,l),
(85,590,l),
(-19,0,l),
(161,0,l)
);
}
);
width = 327;
}
);
note = dvmI.a19;
},
{
glyphname = dvmI.a20;
lastChange = "2022-10-20 15:45:51 +0000";
layers = (
{
layerId = m01;
shapes = (
{
closed = 1;
nodes = (
(265,590,l),
(352,590,l),
(378,740,l),
(290,740,l),
(326,857,o),
(460,914,o),
(1017,914,cs),
(1628,914,o),
(1767,843,o),
(1738,678,cs),
(1737,673,l),
(1916,673,l),
(1918,683,ls),
(1960,924,o),
(1804,1060,o),
(1056,1060,cs),
(359,1060,o),
(163,956,o),
(112,740,c),
(23,740,l),
(-3,590,l),
(85,590,l),
(-19,0,l),
(161,0,l)
);
}
);
width = 327;
}
);
note = dvmI.a20;
},
{
glyphname = dvmI.a21;
lastChange = "2022-10-20 15:45:51 +0000";
layers = (
{
layerId = m01;
shapes = (
{
closed = 1;
nodes = (
(264,590,l),
(351,590,l),
(378,740,l),
(290,740,l),
(326,857,o),
(463,914,o),
(1045,914,cs),
(1682,914,o),
(1825,843,o),
(1796,676,cs),
(1795,671,l),
(1974,671,l),
(1976,681,ls),
(2019,925,o),
(1858,1061,o),
(1085,1061,cs),
(362,1061,o),
(164,959,o),
(112,740,c),
(23,740,l),
(-4,590,l),
(84,590,l),
(-20,0,l),
(160,0,l)
);
}
);
width = 327;
}
);
note = dvmI.a21;
},
{
glyphname = dvmI.a22;
lastChange = "2022-10-20 15:45:51 +0000";
layers = (
{
layerId = m01;
shapes = (
{
closed = 1;
nodes = (
(264,590,l),
(351,590,l),
(378,740,l),
(290,740,l),
(325,857,o),
(464,915,o),
(1072,915,cs),
(1736,915,o),
(1883,844,o),
(1853,675,cs),
(1852,669,l),
(2031,669,l),
(2033,679,ls),
(2077,926,o),
(1914,1062,o),
(1113,1062,cs),
(365,1062,o),
(164,961,o),
(112,740,c),
(23,740,l),
(-4,590,l),
(84,590,l),
(-20,0,l),
(160,0,l)
);
}
);
width = 327;
}
);
note = dvmI.a22;
},
{
glyphname = dvmI.a23;
lastChange = "2022-10-20 15:45:51 +0000";
layers = (
{
layerId = m01;
shapes = (
{
closed = 1;
nodes = (
(264,590,l),
(351,590,l),
(378,740,l),
(291,740,l),
(326,859,o),
(468,916,o),
(1099,916,cs),
(1790,916,o),
(1939,844,o),
(1909,673,cs),
(1908,668,l),
(2089,667,l),
(2091,677,ls),
(2135,928,o),
(1969,1063,o),
(1140,1063,cs),
(370,1063,o),
(165,963,o),
(112,740,c),
(23,740,l),
(-4,590,l),
(84,590,l),
(-20,0,l),
(160,0,l)
);
}
);
width = 327;
}
);
note = dvmI.a23;
},
{
glyphname = dvmI.a24;
lastChange = "2022-10-20 15:45:51 +0000";
layers = (
{
layerId = m01;
shapes = (
{
closed = 1;
nodes = (
(264,590,l),
(351,590,l),
(378,740,l),
(291,740,l),
(327,860,o),
(471,917,o),
(1127,917,cs),
(1844,917,o),
(1997,845,o),
(1967,671,cs),
(1966,667,l),
(2146,666,l),
(2147,675,ls),
(2192,929,o),
(2024,1064,o),
(1169,1064,cs),
(372,1064,o),
(165,965,o),
(112,740,c),
(23,740,l),
(-4,590,l),
(84,590,l),
(-20,0,l),
(160,0,l)
);
}
);
width = 327;
}
);
note = dvmI.a24;
},
{
glyphname = exclam;
lastChange = "2022-10-20 15:45:51 +0000";
layers = (
{
layerId = m01;
shapes = (
{
closed = 1;
nodes = (
(112,274,ls),
(110,267,o),
(114,264,o),
(120,264,cs),
(267,264,ls),
(273,264,o),
(277,267,o),
(279,274,cs),
(382,731,ls),
(383,737,o),
(380,741,o),
(374,741,cs),
(181,741,ls),
(175,741,o),
(170,737,o),
(169,731,cs)
);
},
{
closed = 1;
nodes = (
(288,150,o),
(251,195,o),
(182,195,cs),
(112,195,o),
(59,150,o),
(49,93,cs),
(39,36,o),
(76,-8,o),
(146,-8,cs),
(215,-8,o),
(268,36,o),
(278,93,cs)
);
}
);
width = 423;
}
);
note = exclam;
unicode = 33;
},
{
glyphname = quotedbl;
lastChange = "2022-10-20 15:45:51 +0000";
layers = (
{
layerId = m01;
shapes = (
{
closed = 1;
nodes = (
(37,584,ls),
(35,577,o),
(40,574,o),
(46,574,cs),
(158,574,ls),
(164,574,o),
(168,577,o),
(170,584,cs),
(217,792,ls),
(218,798,o),
(216,802,o),
(210,802,cs),
(72,802,ls),
(66,802,o),
(62,798,o),
(61,792,cs)
);
},
{
closed = 1;
nodes = (
(245,584,ls),
(243,577,o),
(248,574,o),
(254,574,cs),
(365,574,ls),
(371,574,o),
(376,577,o),
(378,584,cs),
(425,792,ls),
(426,798,o),
(424,802,o),
(418,802,cs),
(280,802,ls),
(274,802,o),
(270,798,o),
(269,792,cs)
);
}
);
width = 451;
}
);
note = quotedbl;
unicode = 34;
},
{
glyphname = numbersign;
lastChange = "2022-10-20 15:45:51 +0000";
layers = (
{
layerId = m01;
shapes = (
{
closed = 1;
nodes = (
(539,356,ls),
(528,330,o),
(508,316,o),
(481,316,cs),
(420,316,ls),
(389,316,o),
(377,334,o),
(389,365,cs),
(399,390,ls),
(409,416,o),
(429,430,o),
(456,430,cs),
(517,430,ls),
(548,430,o),
(560,412,o),
(548,381,cs)
);
},
{
closed = 1;
nodes = (
(404,11,ls),
(401,4,o),
(404,0,o),
(411,0,cs),
(574,0,ls),
(580,0,o),
(584,3,o),
(586,9,cs),
(621,98,ls),
(632,124,o),
(650,138,o),
(677,138,cs),
(780,138,ls),
(786,138,o),
(791,142,o),
(792,148,cs),
(820,306,ls),
(821,312,o),
(817,316,o),
(811,316,cs),
(756,316,ls),
(725,316,o),
(713,334,o),
(725,365,cs),
(735,390,ls),
(745,416,o),
(765,430,o),
(792,430,cs),
(898,430,ls),
(904,430,o),
(908,434,o),
(909,440,cs),
(937,598,ls),
(938,604,o),
(935,608,o),
(929,608,cs),
(870,608,ls),
(839,608,o),
(827,627,o),
(839,657,cs),
(867,729,ls),
(870,736,o),
(867,740,o),
(860,740,cs),
(697,740,ls),
(691,740,o),
(687,737,o),
(685,731,cs),
(652,648,ls),
(641,622,o),
(623,608,o),
(596,608,cs),
(534,608,ls),
(503,608,o),
(491,627,o),
(503,657,cs),
(531,729,ls),
(534,736,o),
(531,740,o),
(524,740,cs),
(362,740,ls),
(356,740,o),
(352,737,o),
(350,731,cs),
(317,648,ls),
(306,622,o),
(288,608,o),
(261,608,cs),
(133,608,ls),
(127,608,o),
(122,604,o),
(121,598,cs),
(93,440,ls),
(92,434,o),
(96,430,o),
(102,430,cs),
(182,430,ls),
(213,430,o),
(225,412,o),
(213,381,cs),
(204,356,ls),
(193,330,o),
(173,316,o),
(146,316,cs),
(15,316,ls),
(9,316,o),
(5,312,o),
(4,306,cs),
(-24,148,ls),
(-25,142,o),
(-22,138,o),
(-16,138,cs),
(68,138,ls),
(99,138,o),
(111,120,o),
(99,89,cs),
(69,11,ls),
(66,4,o),
(69,0,o),
(76,0,cs),
(238,0,ls),
(244,0,o),
(248,3,o),
(250,9,cs),
(285,98,ls),
(296,124,o),
(314,138,o),
(341,138,cs),
(403,138,ls),
(434,138,o),
(446,120,o),
(434,89,cs)
);
}
);
width = 919;
}
);
note = numbersign;
unicode = 35;
},
{
glyphname = dollar;
lastChange = "2022-10-20 15:45:51 +0000";
layers = (
{
layerId = m01;
shapes = (
{
closed = 1;
nodes = (
(214,-87,l),
(277,-87,l),
(291,-7,l),
(460,-1,o),
(569,93,o),
(589,206,cs),
(617,367,o),
(472,398,o),
(368,431,c),
(391,558,l),
(409,549,o),
(421,530,o),
(418,497,c),
(629,497,l),
(644,630,o),
(563,704,o),
(419,715,c),
(433,796,l),
(370,796,l),
(356,715,l),
(213,708,o),
(86,633,o),
(63,504,cs),
(34,340,o),
(175,308,o),
(279,278,c),
(256,150,l),
(233,160,o),
(220,181,o),
(224,217,c),
(15,217,l),
(-3,82,o),
(90,8,o),
(229,-5,c)
);
},
{
closed = 1;
nodes = (
(375,171,o),
(351,151,o),
(318,145,c),
(338,258,l),
(367,245,o),
(385,228,o),
(380,201,cs)
);
},
{
closed = 1;
nodes = (
(279,542,o),
(299,559,o),
(329,564,c),
(310,454,l),
(284,468,o),
(269,486,o),
(274,513,cs)
);
}
);
width = 661;
}
);
note = dollar;
unicode = 36;
},
{
glyphname = percent;
lastChange = "2022-10-20 15:45:51 +0000";
layers = (
{
layerId = m01;
shapes = (
{
closed = 1;
nodes = (
(39,427,o),
(104,368,o),
(203,368,cs),
(302,368,o),
(386,427,o),
(406,543,cs),
(427,660,o),
(363,718,o),
(264,718,cs),
(165,718,o),
(80,660,o),
(59,543,cs)
);
},
{
closed = 1;
nodes = (
(269,603,o),
(283,584,o),
(275,543,cs),
(268,502,o),
(248,483,o),
(222,483,cs),
(196,483,o),
(184,502,o),
(191,543,cs),
(199,584,o),
(217,603,o),
(243,603,cs)
);
},
{
closed = 1;
nodes = (
(107,0,l),
(295,0,l),
(798,707,l),
(610,707,l)
);
},
{
closed = 1;
nodes = (
(478,48,o),
(543,-11,o),
(642,-11,cs),
(741,-11,o),
(824,48,o),
(845,165,cs),
(865,281,o),
(803,340,o),
(704,340,cs),
(605,340,o),
(519,281,o),
(499,165,cs)
);
},
{
closed = 1;
nodes = (
(707,225,o),
(721,205,o),
(714,165,cs),
(706,123,o),
(686,104,o),
(661,104,cs),
(634,104,o),
(622,123,o),
(630,165,cs),
(637,205,o),
(655,225,o),
(682,225,cs)
);
}
);
width = 904;
}
);
note = percent;
unicode = 37;
},
{
glyphname = ampersand;
lastChange = "2022-10-20 15:45:51 +0000";
layers = (
{
layerId = m01;
shapes = (
{
closed = 1;
nodes = (
(600,528,ls),
(606,528,o),
(610,531,o),
(611,538,cs),
(625,632,o),
(565,719,o),
(418,719,cs),
(269,719,o),
(172,633,o),
(154,530,cs),
(146,487,o),
(153,450,o),
(179,407,c),
(80,362,o),
(24,288,o),
(10,205,cs),
(-13,76,o),
(77,-11,o),
(245,-11,cs),
(334,-11,o),
(413,11,o),
(483,54,c),
(526,5,ls),
(529,2,o),
(533,0,o),
(538,0,cs),
(734,0,ls),
(743,0,o),
(746,5,o),
(741,12,cs),
(612,164,l),
(650,205,o),
(684,254,o),
(717,309,c),
(748,353,ls),
(752,360,o),
(750,365,o),
(743,365,cs),
(570,365,ls),
(565,365,o),
(559,362,o),
(557,358,cs),
(536,329,l),
(527,314,o),
(518,300,o),
(509,286,c),
(372,447,ls),
(345,480,o),
(333,507,o),
(337,532,cs),
(342,559,o),
(366,575,o),
(392,575,cs),
(413,575,o),
(430,563,o),
(429,538,cs),
(429,531,o),
(433,528,o),
(439,528,cs)
);
},
{
closed = 1;
nodes = (
(223,146,o),
(194,181,o),
(202,222,cs),
(207,251,o),
(229,280,o),
(268,301,c),
(383,169,l),
(354,154,o),
(321,146,o),
(285,146,cs)
);
}
);
width = 814;
}
);
note = ampersand;
unicode = 38;
},
{
glyphname = quotesingle;
lastChange = "2022-10-20 15:45:51 +0000";
layers = (
{
layerId = m01;
shapes = (
{
closed = 1;
nodes = (
(37,584,ls),
(35,577,o),
(40,574,o),
(46,574,cs),
(158,574,ls),
(164,574,o),
(168,577,o),
(170,584,cs),
(217,792,ls),
(218,798,o),
(216,802,o),
(210,802,cs),
(72,802,ls),
(66,802,o),
(62,798,o),
(61,792,cs)
);
}
);
width = 243;
}
);
note = quotesingle;
unicode = 39;
},
{
glyphname = parenleft;
lastChange = "2022-10-20 15:45:51 +0000";
layers = (
{
layerId = m01;
shapes = (
{
closed = 1;
nodes = (
(369,-219,l),
(372,-201,l),
(265,-64,o),
(222,136,o),
(258,340,cs),
(294,544,o),
(409,748,o),
(569,886,c),
(572,904,l),
(380,904,l),
(226,781,o),
(111,570,o),
(71,340,cs),
(30,111,o),
(72,-97,o),
(178,-219,c)
);
}
);
width = 470;
}
);
note = parenleft;
unicode = 40;
},
{
glyphname = parenright;
lastChange = "2022-10-20 15:45:51 +0000";
layers = (
{
layerId = m01;
shapes = (
{
closed = 1;
nodes = (
(-97,-219,l),
(-94,-201,l),
(61,-64,o),
(176,136,o),
(212,340,cs),
(248,544,o),
(205,748,o),
(93,886,c),
(96,904,l),
(288,904,l),
(398,781,o),
(439,570,o),
(399,340,cs),
(358,111,o),
(244,-97,o),
(94,-219,c)
);
}
);
width = 470;
}
);
note = parenright;
unicode = 41;
},
{
glyphname = asterisk;
lastChange = "2022-10-20 15:45:51 +0000";
layers = (
{
layerId = m01;
shapes = (
{
closed = 1;
nodes = (
(373,731,ls),
(375,737,o),
(373,742,o),
(366,742,cs),
(257,742,ls),
(250,742,o),
(247,737,o),
(247,731,cs),
(251,637,ls),
(251,627,o),
(245,624,o),
(239,630,cs),
(176,694,ls),
(172,699,o),
(167,697,o),
(163,691,cs),
(95,600,ls),
(91,594,o),
(93,589,o),
(98,587,cs),
(178,560,ls),
(186,557,o),
(185,550,o),
(175,547,cs),
(84,518,ls),
(78,516,o),
(75,510,o),
(77,504,cs),
(116,405,ls),
(118,399,o),
(124,398,o),
(130,403,cs),
(210,469,ls),
(218,475,o),
(224,472,o),
(220,463,cs),
(184,371,ls),
(182,364,o),
(184,360,o),
(191,360,cs),
(297,360,ls),
(304,360,o),
(308,364,o),
(308,371,cs),
(304,463,ls),
(304,473,o),
(311,476,o),
(317,470,cs),
(375,405,ls),
(379,400,o),
(386,401,o),
(390,407,cs),
(461,503,ls),
(465,509,o),
(463,514,o),
(458,516,cs),
(376,545,ls),
(367,548,o),
(369,555,o),
(378,558,cs),
(470,587,ls),
(477,589,o),
(481,595,o),
(479,601,cs),
(443,692,ls),
(441,698,o),
(436,700,o),
(430,695,cs),
(345,631,ls),
(336,624,o),
(331,627,o),
(335,637,cs)
);
}
);
width = 548;
}
);
note = asterisk;
unicode = 42;
},
{
glyphname = plus;
lastChange = "2022-10-20 15:45:51 +0000";
layers = (
{
layerId = m01;
shapes = (
{
closed = 1;
nodes = (
(256,600,ls),
(250,600,o),
(245,596,o),
(244,590,cs),
(224,478,ls),
(219,449,o),
(201,433,o),
(172,433,cs),
(65,433,ls),
(59,433,o),
(54,429,o),
(53,423,cs),
(25,266,ls),
(24,260,o),
(27,256,o),
(33,256,cs),
(140,256,ls),
(169,256,o),
(182,240,o),
(177,211,cs),
(158,100,ls),
(157,94,o),
(160,90,o),
(166,90,cs),
(334,90,ls),
(340,90,o),
(345,94,o),
(346,100,cs),
(365,211,ls),
(370,240,o),
(389,256,o),
(418,256,cs),
(524,256,ls),
(530,256,o),
(535,260,o),
(536,266,cs),
(564,423,ls),
(565,429,o),
(562,433,o),
(556,433,cs),
(450,433,ls),
(421,433,o),
(407,449,o),
(412,478,cs),
(432,590,ls),
(433,596,o),
(430,600,o),
(424,600,cs)
);
}
);
width = 589;
}
);
note = plus;
unicode = 43;
},
{
glyphname = comma;
lastChange = "2022-10-20 15:45:51 +0000";
layers = (
{
layerId = m01;
shapes = (
{
closed = 1;
nodes = (
(0,-145,ls),
(-3,-151,o),
(0,-156,o),
(7,-156,cs),
(117,-156,ls),
(122,-156,o),
(126,-154,o),
(129,-148,cs),
(308,177,ls),
(312,184,o),
(309,189,o),
(302,189,cs),
(126,189,ls),
(120,189,o),
(116,186,o),
(114,180,cs)
);
}
);
width = 319;
}
);
note = comma;
unicode = 44;
},
{
glyphname = hyphen;
lastChange = "2022-10-20 15:45:51 +0000";
layers = (
{
layerId = m01;
shapes = (
{
closed = 1;
nodes = (
(23,275,ls),
(22,269,o),
(26,265,o),
(32,265,cs),
(465,265,ls),
(471,265,o),
(475,269,o),
(476,275,cs),
(502,418,ls),
(503,424,o),
(499,428,o),
(493,428,cs),
(60,428,ls),
(54,428,o),
(50,424,o),
(49,418,cs)
);
}
);
width = 578;
}
);
note = hyphen;
unicode = 45;
},
{
glyphname = period;
lastChange = "2022-10-20 15:45:51 +0000";
layers = (
{
layerId = m01;
shapes = (
{
closed = 1;
nodes = (
(275,150,o),
(238,195,o),
(169,195,cs),
(99,195,o),
(46,150,o),
(36,93,cs),
(26,36,o),
(63,-8,o),
(133,-8,cs),
(202,-8,o),
(255,36,o),
(265,93,cs)
);
}
);
width = 301;
}
);
note = period;
unicode = 46;
},
{
glyphname = slash;
lastChange = "2022-10-20 15:45:51 +0000";
layers = (
{
layerId = m01;
shapes = (
{
closed = 1;
nodes = (
(-114,-193,l),
(75,-193,l),
(544,952,l),
(355,952,l)
);
}
);
width = 426;
}
);
note = slash;
unicode = 47;
},
{
glyphname = zero;
lastChange = "2022-10-20 15:45:51 +0000";
layers = (
{
layerId = m01;
shapes = (
{
closed = 1;
nodes = (
(1,157,o),
(54,4,o),
(264,4,cs),
(474,4,o),
(582,157,o),
(620,376,cs),
(658,592,o),
(604,746,o),
(394,746,cs),
(184,746,o),
(77,592,o),
(39,376,cs)
);
},
{
closed = 1;
nodes = (
(408,272,o),
(383,189,o),
(296,189,cs),
(209,189,o),
(214,272,o),
(232,376,cs),
(250,477,o),
(275,561,o),
(362,561,cs),
(449,561,o),
(444,477,o),
(426,376,cs)
);
}
);
width = 657;
}
);
note = zero;
unicode = 48;
},
{
glyphname = one;
lastChange = "2022-10-20 15:45:51 +0000";
layers = (
{
layerId = m01;
shapes = (
{
closed = 1;
nodes = (
(57,0,l),
(262,0,l),
(383,686,ls),
(388,715,o),
(374,731,o),
(345,731,cs),
(121,731,l),
(50,547,l),
(108,547,ls),
(137,547,o),
(150,531,o),
(145,502,cs)
);
}
);
width = 387;
}
);
note = one;
unicode = 49;
},
{
glyphname = two;
lastChange = "2022-10-20 15:45:51 +0000";
layers = (
{
layerId = m01;
shapes = (
{
closed = 1;
nodes = (
(-32,10,l),
(468,10,ls),
(474,10,o),
(479,14,o),
(480,20,cs),
(498,124,ls),
(503,153,o),
(490,169,o),
(461,169,cs),
(256,169,l),
(387,250,o),
(535,375,o),
(562,527,cs),
(583,647,o),
(532,746,o),
(358,746,cs),
(226,746,o),
(94,674,o),
(52,495,cs),
(51,489,o),
(54,485,o),
(60,485,cs),
(197,485,ls),
(225,485,o),
(240,500,o),
(252,529,cs),
(266,564,o),
(290,581,o),
(317,581,cs),
(355,581,o),
(369,555,o),
(362,513,cs),
(342,399,o),
(164,274,o),
(-6,157,c)
);
}
);
width = 569;
}
);
note = two;
unicode = 50;
},
{
glyphname = three;
lastChange = "2022-10-20 15:45:51 +0000";
layers = (
{
layerId = m01;
shapes = (
{
closed = 1;
nodes = (
(224,513,ls),
(251,513,o),
(264,527,o),
(280,552,cs),
(291,570,o),
(309,584,o),
(335,584,cs),
(368,584,o),
(387,564,o),
(380,522,cs),
(369,460,o),
(315,454,o),
(277,455,cs),
(255,455,o),
(240,439,o),
(235,410,cs),
(223,341,ls),
(218,312,o),
(228,296,o),
(250,296,cs),
(324,296,o),
(350,272,o),
(341,222,cs),
(334,183,o),
(306,156,o),
(267,156,cs),
(231,156,o),
(211,172,o),
(206,199,cs),
(201,225,o),
(193,240,o),
(166,240,cs),
(27,240,ls),
(21,240,o),
(16,236,o),
(15,230,cs),
(-6,63,o),
(92,-6,o),
(247,-6,cs),
(401,-6,o),
(506,81,o),
(528,207,cs),
(545,301,o),
(503,353,o),
(437,379,c),
(438,381,ls),
(438,382,o),
(442,384,o),
(451,387,cs),
(498,406,o),
(559,454,o),
(575,546,cs),
(595,658,o),
(526,747,o),
(368,747,cs),
(216,747,o),
(109,668,o),
(75,523,cs),
(74,517,o),
(77,513,o),
(83,513,cs)
);
}
);
width = 610;
}
);
note = three;
unicode = 51;
},
{
glyphname = four;
lastChange = "2022-10-20 15:45:51 +0000";
layers = (
{
layerId = m01;
shapes = (
{
closed = 1;
nodes = (
(313,10,ls),
(312,4,o),
(316,0,o),
(322,0,cs),
(500,0,ls),
(506,0,o),
(510,4,o),
(511,10,cs),
(531,120,l),
(598,120,ls),
(604,120,o),
(608,124,o),
(609,130,cs),
(638,290,l),
(606,290,ls),
(577,290,o),
(563,306,o),
(569,335,cs),
(635,710,ls),
(636,716,o),
(632,720,o),
(626,720,cs),
(421,720,l),
(37,282,l),
(9,120,l),
(333,120,l)
);
},
{
closed = 1;
nodes = (
(240,290,l),
(415,499,l),
(378,290,l)
);
}
);
width = 691;
}
);
note = four;
unicode = 52;
},
{
glyphname = five;
lastChange = "2022-10-20 15:45:51 +0000";
layers = (
{
layerId = m01;
shapes = (
{
closed = 1;
nodes = (
(167,731,ls),
(161,731,o),
(157,727,o),
(156,721,cs),
(80,289,l),
(271,289,l),
(279,314,o),
(304,336,o),
(342,336,cs),
(389,336,o),
(411,309,o),
(402,256,cs),
(393,205,o),
(364,168,o),
(315,168,cs),
(272,168,o),
(257,192,o),
(256,216,cs),
(255,222,o),
(252,225,o),
(246,225,cs),
(74,225,ls),
(68,225,o),
(64,221,o),
(62,215,cs),
(46,89,o),
(128,0,o),
(294,0,cs),
(454,0,o),
(563,96,o),
(591,253,cs),
(613,375,o),
(569,491,o),
(418,491,cs),
(364,491,o),
(315,473,o),
(285,447,c),
(305,558,l),
(560,558,ls),
(589,558,o),
(608,574,o),
(613,603,cs),
(634,721,ls),
(635,727,o),
(631,731,o),
(625,731,cs)
);
}
);
width = 655;
}
);
note = five;
unicode = 53;
},
{
glyphname = six;
lastChange = "2022-10-20 15:45:51 +0000";
layers = (
{
layerId = m01;
shapes = (
{
closed = 1;
nodes = (
(585,521,ls),
(591,521,o),
(595,525,o),
(595,531,cs),
(604,641,o),
(553,745,o),
(393,745,cs),
(202,745,o),
(102,624,o),
(56,365,cs),
(19,153,o),
(45,-5,o),
(267,-5,cs),
(426,-5,o),
(538,92,o),
(564,240,cs),
(591,393,o),
(516,472,o),
(391,472,cs),
(329,472,o),
(271,446,o),
(237,405,c),
(259,524,o),
(289,587,o),
(354,587,cs),
(382,587,o),
(398,577,o),
(406,558,cs),
(415,534,o),
(426,521,o),
(452,521,cs)
);
},
{
closed = 1;
nodes = (
(365,320,o),
(389,290,o),
(380,241,cs),
(371,189,o),
(336,162,o),
(289,162,cs),
(238,162,o),
(213,190,o),
(223,243,cs),
(232,294,o),
(271,320,o),
(316,320,cs)
);
}
);
width = 635;
}
);
note = six;
unicode = 54;
},
{
glyphname = seven;
lastChange = "2022-10-20 15:45:51 +0000";
layers = (
{
layerId = m01;
shapes = (
{
closed = 1;
nodes = (
(97,730,ls),
(91,730,o),
(87,726,o),
(86,720,cs),
(66,607,ls),
(61,578,o),
(74,562,o),
(103,562,cs),
(286,562,ls),
(320,562,o),
(329,540,o),
(310,509,cs),
(9,12,ls),
(5,5,o),
(8,0,o),
(15,0,cs),
(195,0,ls),
(200,0,o),
(204,2,o),
(207,8,cs),
(546,585,l),
(570,720,ls),
(571,726,o),
(567,730,o),
(561,730,cs)
);
}
);
width = 523;
}
);
note = seven;
unicode = 55;
},
{
glyphname = eight;
lastChange = "2022-10-20 15:45:51 +0000";
layers = (
{
layerId = m01;
shapes = (
{
closed = 1;
nodes = (
(88,361,o),
(39,301,o),
(25,219,cs),
(-2,68,o),
(110,-13,o),
(259,-13,cs),
(408,-13,o),
(548,68,o),
(575,219,cs),
(589,301,o),
(562,361,o),
(500,397,c),
(558,426,o),
(603,477,o),
(616,550,cs),
(635,654,o),
(570,746,o),
(393,746,cs),
(216,746,o),
(119,654,o),
(100,550,cs),
(87,476,o),
(114,427,o),
(162,397,c)
);
},
{
closed = 1;
nodes = (
(303,447,o),
(279,472,o),
(287,519,cs),
(295,566,o),
(328,593,o),
(366,593,cs),
(405,593,o),
(427,566,o),
(419,519,cs),
(411,472,o),
(377,447,o),
(340,447,cs)
);
},
{
closed = 1;
nodes = (
(368,313,o),
(395,280,o),
(386,230,cs),
(378,184,o),
(341,148,o),
(287,148,cs),
(233,148,o),
(209,184,o),
(217,230,cs),
(226,281,o),
(267,313,o),
(317,313,cs)
);
}
);
width = 653;
}
);
note = eight;
unicode = 56;
},
{
glyphname = nine;
lastChange = "2022-10-20 15:45:51 +0000";
layers = (
{
layerId = m01;
shapes = (
{
closed = 1;
nodes = (
(43,221,ls),
(37,221,o),
(32,217,o),
(32,211,cs),
(23,99,o),
(87,-5,o),
(244,-5,cs),
(441,-5,o),
(528,137,o),
(572,386,cs),
(610,601,o),
(578,747,o),
(361,747,cs),
(205,747,o),
(91,652,o),
(64,502,cs),
(37,346,o),
(116,269,o),
(239,269,cs),
(299,269,o),
(354,293,o),
(387,332,c),
(366,214,o),
(340,153,o),
(278,153,cs),
(249,153,o),
(231,164,o),
(222,185,cs),
(212,208,o),
(203,221,o),
(177,221,cs)
);
},
{
closed = 1;
nodes = (
(262,421,o),
(239,452,o),
(247,498,cs),
(256,549,o),
(291,577,o),
(338,577,cs),
(385,577,o),
(411,551,o),
(401,497,cs),
(393,450,o),
(359,421,o),
(313,421,cs)
);
}
);
width = 606;
}
);
note = nine;
unicode = 57;
},
{
glyphname = colon;
lastChange = "2022-10-20 15:45:51 +0000";
layers = (
{
layerId = m01;
shapes = (
{
closed = 1;
nodes = (
(240,150,o),
(202,195,o),
(133,195,cs),
(63,195,o),
(11,150,o),
(0,93,cs),
(-10,36,o),
(28,-8,o),
(98,-8,cs),
(167,-8,o),
(219,36,o),
(229,93,cs)
);
},
{
closed = 1;
nodes = (
(310,552,o),
(273,597,o),
(204,597,cs),
(134,597,o),
(81,552,o),
(71,495,cs),
(61,438,o),
(99,394,o),
(169,394,cs),
(238,394,o),
(290,438,o),
(300,495,cs)
);
}
);
width = 302;
}
);
note = colon;
unicode = 58;
},
{
glyphname = semicolon;
lastChange = "2022-10-20 15:45:51 +0000";
layers = (
{
layerId = m01;
shapes = (
{
closed = 1;
nodes = (
(355,540,o),
(318,585,o),
(249,585,cs),
(179,585,o),
(126,540,o),
(116,483,cs),
(106,426,o),
(144,382,o),
(214,382,cs),
(283,382,o),
(335,426,o),
(345,483,cs)
);
},
{
closed = 1;
nodes = (
(-16,-156,l),
(113,-156,l),
(303,189,l),
(106,189,l)
);
}
);
width = 366;
}
);
note = semicolon;
unicode = 59;
},
{
glyphname = less;
lastChange = "2022-10-20 15:45:51 +0000";
layers = (
{
layerId = m01;
shapes = (
{
closed = 1;
nodes = (
(306,313,ls),
(292,334,o),
(296,356,o),
(318,377,cs),
(501,552,ls),
(507,558,o),
(507,564,o),
(499,564,cs),
(276,564,ls),
(271,564,o),
(266,562,o),
(262,558,cs),
(72,377,ls),
(50,356,o),
(46,334,o),
(60,313,cs),
(188,133,ls),
(190,129,o),
(193,127,o),
(198,127,cs),
(421,127,ls),
(429,127,o),
(434,133,o),
(429,139,cs)
);
}
);
width = 524;
}
);
note = less;
unicode = 60;
},
{
glyphname = equal;
lastChange = "2022-10-20 15:45:51 +0000";
layers = (
{
layerId = m01;
shapes = (
{
closed = 1;
nodes = (
(7,133,ls),
(6,127,o),
(9,123,o),
(15,123,cs),
(568,123,ls),
(574,123,o),
(579,127,o),
(580,133,cs),
(607,289,ls),
(608,295,o),
(605,299,o),
(599,299,cs),
(46,299,ls),
(40,299,o),
(35,295,o),
(34,289,cs)
);
},
{
closed = 1;
nodes = (
(54,400,ls),
(53,394,o),
(56,390,o),
(62,390,cs),
(615,390,ls),
(621,390,o),
(626,394,o),
(627,400,cs),
(654,557,ls),
(655,563,o),
(652,567,o),
(646,567,cs),
(93,567,ls),
(87,567,o),
(82,563,o),
(81,557,cs)
);
}
);
width = 661;
}
);
note = equal;
unicode = 61;
},
{
glyphname = greater;
lastChange = "2022-10-20 15:45:51 +0000";
layers = (
{
layerId = m01;
shapes = (
{
closed = 1;
nodes = (
(13,133,o),
(14,127,o),
(22,127,cs),
(245,127,ls),
(250,127,o),
(255,129,o),
(259,133,cs),
(449,313,ls),
(471,334,o),
(475,356,o),
(461,377,cs),
(333,558,ls),
(331,562,o),
(328,564,o),
(323,564,cs),
(100,564,ls),
(92,564,o),
(88,558,o),
(92,552,cs),
(215,377,ls),
(229,356,o),
(225,334,o),
(203,313,cs),
(20,139,ls)
);
}
);
width = 519;
}
);
note = greater;
unicode = 62;
},
{
glyphname = question;
lastChange = "2022-10-20 15:45:51 +0000";
layers = (
{
layerId = m01;
shapes = (
{
closed = 1;
nodes = (
(226,536,ls),
(232,536,o),
(237,539,o),
(238,546,cs),
(248,576,o),
(269,597,o),
(304,597,cs),
(336,597,o),
(354,577,o),
(349,542,cs),
(340,484,o),
(280,468,o),
(195,468,cs),
(123,468,l),
(96,279,ls),
(95,272,o),
(98,269,o),
(104,269,cs),
(257,269,ls),
(263,269,o),
(269,272,o),
(270,279,cs),
(285,342,l),
(415,344,o),
(518,417,o),
(540,541,cs),
(566,684,o),
(477,757,o),
(337,757,cs),
(173,757,o),
(75,662,o),
(53,546,cs),
(52,539,o),
(55,536,o),
(61,536,cs)
);
},
{
closed = 1;
nodes = (
(275,150,o),
(238,195,o),
(169,195,cs),
(99,195,o),
(46,150,o),
(36,93,cs),
(26,36,o),
(64,-8,o),
(134,-8,cs),
(203,-8,o),
(255,36,o),
(265,93,cs)
);
}
);
width = 538;
}
);
note = question;
unicode = 63;
},
{
glyphname = at;
lastChange = "2022-10-20 15:45:51 +0000";
layers = (
{
layerId = m01;
shapes = (
{
closed = 1;
nodes = (
(898,-5,o),
(1016,142,o),
(1046,314,cs),
(1084,529,o),
(954,677,o),
(712,677,cs),
(395,677,o),
(115,450,o),
(60,135,cs),
(20,-90,o),
(148,-235,o),
(384,-235,cs),
(463,-235,o),
(539,-221,o),
(608,-195,cs),
(614,-192,o),
(617,-188,o),
(617,-182,cs),
(611,-113,ls),
(609,-84,o),
(591,-74,o),
(560,-83,cs),
(517,-95,o),
(469,-102,o),
(420,-102,cs),
(257,-102,o),
(179,-6,o),
(206,149,cs),
(245,369,o),
(445,547,o),
(671,547,cs),
(839,547,o),
(925,454,o),
(899,308,cs),
(883,216,o),
(840,122,o),
(777,122,cs),
(742,122,o),
(741,149,o),
(756,191,cs),
(822,378,ls),
(832,408,o),
(820,427,o),
(789,427,cs),
(693,427,ls),
(687,427,o),
(683,424,o),
(681,418,cs),
(664,371,l),
(655,409,o),
(622,433,o),
(565,433,cs),
(432,433,o),
(317,300,o),
(292,156,cs),
(273,53,o),
(322,-7,o),
(420,-7,cs),
(490,-7,o),
(554,22,o),
(598,74,c),
(609,24,o),
(653,-5,o),
(726,-5,cs)
);
},
{
closed = 1;
nodes = (
(602,175,o),
(553,131,o),
(508,131,cs),
(473,131,o),
(457,155,o),
(464,192,cs),
(474,249,o),
(519,296,o),
(567,296,cs),
(602,296,o),
(619,270,o),
(612,232,cs)
);
}
);
width = 1104;
}
);
note = at;
unicode = 64;
},
{
glyphname = A;
lastChange = "2022-10-20 15:45:51 +0000";
layers = (
{
layerId = m01;
shapes = (
{
closed = 1;
nodes = (
(474,29,ls),
(477,12,o),
(490,0,o),
(508,0,cs),
(673,0,ls),
(680,0,o),
(684,4,o),
(683,11,cs),
(558,678,ls),
(555,695,o),
(542,705,o),
(524,705,cs),
(356,705,ls),
(338,705,o),
(321,695,o),
(312,678,cs),
(-48,11,ls),
(-51,4,o),
(-49,0,o),
(-42,0,cs),
(122,0,ls),
(140,0,o),
(157,12,o),
(166,29,cs),
(206,107,ls),
(209,112,o),
(214,115,o),
(219,115,cs),
(451,115,ls),
(456,115,o),
(461,112,o),
(462,107,cs)
);
},
{
closed = 1;
nodes = (
(436,276,ls),
(436,269,o),
(433,265,o),
(426,265,cs),
(299,265,ls),
(292,265,o),
(289,269,o),
(293,276,cs),
(392,474,ls),
(397,483,o),
(403,483,o),
(404,474,cs)
);
}
);
width = 755;
}
);
note = A;
unicode = 65;
},
{
glyphname = B;
lastChange = "2022-10-20 15:45:51 +0000";
layers = (
{
layerId = m01;
shapes = (
{
closed = 1;
nodes = (
(409,178,o),
(381,158,o),
(332,158,cs),
(218,158,l),
(232,241,ls),
(237,270,o),
(256,286,o),
(285,286,cs),
(353,286,ls),
(401,286,o),
(424,263,o),
(417,220,cs)
);
},
{
closed = 1;
nodes = (
(441,445,o),
(412,425,o),
(364,425,cs),
(265,425,l),
(279,504,ls),
(284,533,o),
(303,549,o),
(332,549,cs),
(386,549,ls),
(434,549,o),
(456,528,o),
(449,486,cs)
);
},
{
closed = 1;
nodes = (
(627,272,o),
(588,343,o),
(508,362,c),
(580,381,o),
(640,437,o),
(655,522,cs),
(676,639,o),
(599,705,o),
(456,705,cs),
(128,705,ls),
(122,705,o),
(117,701,o),
(116,695,cs),
(-4,10,ls),
(-5,4,o),
(-2,0,o),
(4,0,cs),
(343,0,ls),
(494,0,o),
(592,73,o),
(613,192,cs)
);
}
);
width = 671;
}
);
note = B;
unicode = 66;
},
{
glyphname = C;
lastChange = "2022-10-20 15:45:51 +0000";
layers = (
{
layerId = m01;
shapes = (
{
closed = 1;
nodes = (
(-5,143,o),
(108,-5,o),
(320,-5,cs),
(477,-5,o),
(609,76,o),
(680,206,cs),
(697,237,o),
(683,257,o),
(651,257,cs),
(501,257,ls),
(496,257,o),
(492,255,o),
(488,250,cs),
(454,201,o),
(404,175,o),
(349,175,cs),
(259,175,o),
(212,245,o),
(231,354,cs),
(250,462,o),
(321,532,o),
(411,532,cs),
(466,532,o),
(508,506,o),
(524,457,cs),
(526,452,o),
(530,450,o),
(535,450,cs),
(685,450,ls),
(717,450,o),
(739,470,o),
(732,501,cs),
(707,631,o),
(603,712,o),
(446,712,cs),
(234,712,o),
(69,564,o),
(32,354,cs)
);
}
);
width = 758;
}
);
note = C;
unicode = 67;
},
{
glyphname = D;
lastChange = "2022-10-20 15:45:51 +0000";
layers = (
{
layerId = m01;
shapes = (
{
closed = 1;
nodes = (
(143,705,ls),
(127,705,o),
(117,696,o),
(114,680,cs),
(-2,25,ls),
(-5,9,o),
(3,0,o),
(19,0,cs),
(273,0,ls),
(498,0,o),
(667,149,o),
(703,353,cs),
(740,560,o),
(622,705,o),
(397,705,cs)
);
},
{
closed = 1;
nodes = (
(220,173,l),
(276,490,ls),
(281,519,o),
(300,535,o),
(329,535,cs),
(352,535,ls),
(465,535,o),
(525,470,o),
(504,353,cs),
(484,237,o),
(401,173,o),
(288,173,cs)
);
}
);
width = 735;
}
);
note = D;
unicode = 68;
},
{
glyphname = E;
lastChange = "2022-10-20 15:45:51 +0000";
layers = (
{
layerId = m01;
shapes = (
{
closed = 1;
nodes = (
(567,695,ls),
(568,701,o),
(565,705,o),
(559,705,cs),
(128,705,ls),
(122,705,o),
(117,701,o),
(116,695,cs),
(-4,10,ls),
(-5,4,o),
(-2,0,o),
(4,0,cs),
(435,0,ls),
(441,0,o),
(446,4,o),
(447,10,cs),
(465,112,ls),
(470,141,o),
(457,157,o),
(428,157,cs),
(263,157,ls),
(234,157,o),
(220,173,o),
(225,202,cs),
(238,274,ls),
(239,280,o),
(244,284,o),
(250,284,cs),
(455,284,ls),
(461,284,o),
(466,288,o),
(467,294,cs),
(489,423,ls),
(490,429,o),
(487,433,o),
(481,433,cs),
(276,433,ls),
(270,433,o),
(267,437,o),
(268,443,cs),
(279,503,ls),
(284,532,o),
(302,548,o),
(331,548,cs),
(496,548,ls),
(525,548,o),
(544,564,o),
(549,593,cs)
);
}
);
width = 548;
}
);
note = E;
unicode = 69;
},
{
glyphname = F;
lastChange = "2022-10-20 15:45:51 +0000";
layers = (
{
layerId = m01;
shapes = (
{
closed = 1;
nodes = (
(-4,10,ls),
(-5,4,o),
(-2,0,o),
(4,0,cs),
(180,0,ls),
(186,0,o),
(191,4,o),
(192,10,cs),
(237,266,ls),
(238,272,o),
(243,276,o),
(249,276,cs),
(437,276,ls),
(443,276,o),
(447,280,o),
(448,286,cs),
(471,415,ls),
(472,421,o),
(469,425,o),
(463,425,cs),
(275,425,ls),
(269,425,o),
(265,429,o),
(267,435,cs),
(279,504,ls),
(284,533,o),
(303,549,o),
(332,549,cs),
(524,549,ls),
(553,549,o),
(571,565,o),
(577,594,cs),
(594,695,ls),
(595,701,o),
(592,705,o),
(586,705,cs),
(163,705,ls),
(134,705,o),
(115,689,o),
(110,660,cs)
);
}
);
width = 561;
}
);
note = F;
unicode = 70;
},
{
glyphname = G;
lastChange = "2022-10-20 15:45:51 +0000";
layers = (
{
layerId = m01;
shapes = (
{
closed = 1;
nodes = (
(236,712,o),
(69,564,o),
(32,354,cs),
(-5,143,o),
(111,-5,o),
(327,-5,cs),
(511,-5,o),
(640,109,o),
(700,212,c),
(732,392,ls),
(733,398,o),
(730,402,o),
(724,402,cs),
(413,402,ls),
(384,402,o),
(365,386,o),
(360,357,cs),
(344,271,ls),
(343,265,o),
(347,261,o),
(353,261,cs),
(540,261,l),
(500,200,o),
(444,168,o),
(376,168,cs),
(260,168,o),
(210,233,o),
(231,354,cs),
(250,462,o),
(322,531,o),
(421,531,cs),
(461,531,o),
(491,520,o),
(511,499,cs),
(525,483,o),
(537,473,o),
(561,473,cs),
(727,473,ls),
(734,473,o),
(738,477,o),
(738,484,cs),
(731,625,o),
(626,712,o),
(452,712,cs)
);
}
);
width = 757;
}
);
note = G;
unicode = 71;
},
{
glyphname = H;
lastChange = "2022-10-20 15:45:51 +0000";
layers = (
{
layerId = m01;
shapes = (
{
closed = 1;
nodes = (
(437,45,ls),
(432,16,o),
(445,0,o),
(474,0,cs),
(615,0,ls),
(621,0,o),
(626,4,o),
(627,10,cs),
(747,695,ls),
(748,701,o),
(745,705,o),
(739,705,cs),
(563,705,ls),
(557,705,o),
(552,701,o),
(551,695,cs),
(514,485,ls),
(509,456,o),
(490,440,o),
(461,440,cs),
(277,440,ls),
(271,440,o),
(268,444,o),
(269,450,cs),
(306,660,ls),
(311,689,o),
(298,705,o),
(269,705,cs),
(128,705,ls),
(122,705,o),
(117,701,o),
(116,695,cs),
(-4,10,ls),
(-5,4,o),
(-2,0,o),
(4,0,cs),
(180,0,ls),
(186,0,o),
(191,4,o),
(192,10,cs),
(232,238,ls),
(237,267,o),
(256,283,o),
(285,283,cs),
(469,283,ls),
(475,283,o),
(478,279,o),
(477,273,cs)
);
}
);
width = 743;
}
);
note = H;
unicode = 72;
},
{
glyphname = I;
lastChange = "2022-10-20 15:45:51 +0000";
layers = (
{
layerId = m01;
shapes = (
{
closed = 1;
nodes = (
(-4,10,ls),
(-5,4,o),
(-2,0,o),
(4,0,cs),
(180,0,ls),
(186,0,o),
(191,4,o),
(192,10,cs),
(306,660,ls),
(311,689,o),
(298,705,o),
(269,705,cs),
(128,705,ls),
(122,705,o),
(117,701,o),
(116,695,cs)
);
}
);
width = 308;
}
);
note = I;
unicode = 73;
},
{
glyphname = J;
lastChange = "2022-10-20 15:45:51 +0000";
layers = (
{
layerId = m01;
shapes = (
{
closed = 1;
nodes = (
(307,238,ls),
(299,189,o),
(274,170,o),
(241,170,cs),
(215,170,o),
(197,181,o),
(193,210,cs),
(189,238,o),
(180,253,o),
(153,253,cs),
(11,253,ls),
(5,253,o),
(0,249,o),
(-1,243,cs),
(-26,78,o),
(66,-7,o),
(218,-7,cs),
(366,-7,o),
(475,76,o),
(503,238,cs),
(584,695,ls),
(585,701,o),
(582,705,o),
(576,705,cs),
(435,705,ls),
(406,705,o),
(387,689,o),
(382,660,cs)
);
}
);
width = 584;
}
);
note = J;
unicode = 74;
},
{
glyphname = K;
lastChange = "2022-10-20 15:45:51 +0000";
layers = (
{
layerId = m01;
shapes = (
{
closed = 1;
nodes = (
(408,6,ls),
(410,1,o),
(414,0,o),
(419,0,cs),
(633,0,ls),
(641,0,o),
(645,6,o),
(641,12,cs),
(446,352,ls),
(442,359,o),
(443,366,o),
(450,373,cs),
(748,693,ls),
(754,699,o),
(752,705,o),
(744,705,cs),
(541,705,ls),
(536,705,o),
(532,704,o),
(528,699,cs),
(283,426,ls),
(273,414,o),
(264,418,o),
(266,432,cs),
(306,660,ls),
(311,689,o),
(298,705,o),
(269,705,cs),
(128,705,ls),
(122,705,o),
(117,701,o),
(116,695,cs),
(2,45,ls),
(-3,16,o),
(10,0,o),
(39,0,cs),
(180,0,ls),
(186,0,o),
(191,4,o),
(192,10,cs),
(239,277,ls),
(241,291,o),
(252,295,o),
(258,283,cs)
);
}
);
width = 726;
}
);
note = K;
unicode = 75;
},
{
glyphname = L;
lastChange = "2022-10-20 15:45:51 +0000";
layers = (
{
layerId = m01;
shapes = (
{
closed = 1;
nodes = (
(128,705,ls),
(122,705,o),
(117,701,o),
(116,695,cs),
(-4,10,ls),
(-5,4,o),
(-2,0,o),
(4,0,cs),
(364,0,ls),
(393,0,o),
(412,16,o),
(417,45,cs),
(434,140,ls),
(435,146,o),
(431,150,o),
(425,150,cs),
(261,150,ls),
(232,150,o),
(219,166,o),
(224,195,cs),
(306,660,ls),
(311,689,o),
(298,705,o),
(269,705,cs)
);
}
);
width = 491;
}
);
note = L;
unicode = 76;
},
{
glyphname = M;
lastChange = "2022-10-20 15:45:51 +0000";
layers = (
{
layerId = m01;
shapes = (
{
closed = 1;
nodes = (
(-4,10,ls),
(-5,4,o),
(-2,0,o),
(4,0,cs),
(145,0,ls),
(174,0,o),
(193,16,o),
(198,45,cs),
(253,357,ls),
(254,366,o),
(263,368,o),
(264,359,cs),
(318,37,ls),
(322,12,o),
(337,0,o),
(363,0,cs),
(449,0,ls),
(475,0,o),
(495,13,o),
(507,37,cs),
(673,356,ls),
(677,365,o),
(685,363,o),
(683,354,cs),
(629,45,ls),
(624,16,o),
(637,0,o),
(666,0,cs),
(807,0,ls),
(813,0,o),
(818,4,o),
(819,10,cs),
(939,695,ls),
(940,701,o),
(937,705,o),
(931,705,cs),
(743,705,ls),
(717,705,o),
(699,694,o),
(686,669,cs),
(461,264,ls),
(457,256,o),
(449,256,o),
(447,264,cs),
(363,670,ls),
(358,694,o),
(343,705,o),
(317,705,cs),
(128,705,ls),
(122,705,o),
(117,701,o),
(116,695,cs)
);
}
);
width = 935;
}
);
note = M;
unicode = 77;
},
{
glyphname = N;
lastChange = "2022-10-20 15:45:51 +0000";
layers = (
{
layerId = m01;
shapes = (
{
closed = 1;
nodes = (
(585,705,ls),
(579,705,o),
(574,701,o),
(573,695,cs),
(505,306,l),
(317,698,ls),
(315,702,o),
(311,705,o),
(306,705,cs),
(128,705,ls),
(122,705,o),
(117,701,o),
(116,695,cs),
(2,45,ls),
(-3,16,o),
(10,0,o),
(39,0,cs),
(180,0,ls),
(186,0,o),
(191,4,o),
(192,10,cs),
(259,394,l),
(448,6,ls),
(450,2,o),
(454,0,o),
(459,0,cs),
(637,0,ls),
(643,0,o),
(648,4,o),
(649,10,cs),
(763,660,ls),
(768,689,o),
(755,705,o),
(726,705,cs)
);
}
);
width = 765;
}
);
note = N;
unicode = 78;
},
{
glyphname = O;
lastChange = "2022-10-20 15:45:51 +0000";
layers = (
{
layerId = m01;
shapes = (
{
closed = 1;
nodes = (
(792,567,o),
(659,716,o),
(458,716,cs),
(258,716,o),
(69,567,o),
(32,355,cs),
(-5,143,o),
(130,-7,o),
(330,-7,cs),
(530,-7,o),
(718,143,o),
(755,355,cs)
);
},
{
closed = 1;
nodes = (
(252,466,o),
(324,536,o),
(426,536,cs),
(527,536,o),
(576,466,o),
(556,355,cs),
(537,246,o),
(463,175,o),
(362,175,cs),
(260,175,o),
(213,246,o),
(232,355,cs)
);
}
);
width = 787;
}
);
note = O;
unicode = 79;
},
{
glyphname = P;
lastChange = "2022-10-20 15:45:51 +0000";
layers = (
{
layerId = m01;
shapes = (
{
closed = 1;
nodes = (
(259,394,l),
(278,502,ls),
(283,531,o),
(302,547,o),
(331,547,cs),
(364,547,ls),
(423,547,o),
(442,517,o),
(434,470,cs),
(426,424,o),
(396,394,o),
(337,394,cs)
);
},
{
closed = 1;
nodes = (
(658,606,o),
(586,705,o),
(411,705,cs),
(128,705,ls),
(122,705,o),
(117,701,o),
(116,695,cs),
(-4,10,ls),
(-5,4,o),
(-2,0,o),
(4,0,cs),
(145,0,ls),
(174,0,o),
(193,16,o),
(198,45,cs),
(232,238,l),
(329,238,ls),
(508,238,o),
(612,347,o),
(634,470,cs)
);
}
);
width = 636;
}
);
note = P;
unicode = 80;
},
{
glyphname = Q;
lastChange = "2022-10-20 15:45:51 +0000";
layers = (
{
layerId = m01;
shapes = (
{
closed = 1;
nodes = (
(261,466,o),
(334,536,o),
(436,536,cs),
(537,536,o),
(585,466,o),
(566,355,cs),
(547,246,o),
(473,175,o),
(372,175,cs),
(270,175,o),
(223,246,o),
(242,355,cs)
);
},
{
closed = 1;
nodes = (
(802,567,o),
(669,716,o),
(468,716,cs),
(268,716,o),
(79,567,o),
(42,355,cs),
(4,143,o),
(140,-7,o),
(340,-7,cs),
(363,-7,o),
(385,-5,o),
(408,-1,c),
(463,-112,ls),
(465,-116,o),
(468,-118,o),
(473,-118,cs),
(683,-118,ls),
(691,-118,o),
(696,-112,o),
(692,-106,cs),
(584,72,l),
(675,136,o),
(744,236,o),
(765,355,cs)
);
}
);
width = 788;
}
);
note = Q;
unicode = 81;
},
{
glyphname = R;
lastChange = "2022-10-20 15:45:51 +0000";
layers = (
{
layerId = m01;
shapes = (
{
closed = 1;
nodes = (
(441,420,o),
(409,394,o),
(356,394,cs),
(259,394,l),
(277,496,ls),
(282,525,o),
(301,541,o),
(330,541,cs),
(382,541,ls),
(435,541,o),
(457,512,o),
(449,468,cs)
);
},
{
closed = 1;
nodes = (
(163,705,ls),
(134,705,o),
(115,689,o),
(110,660,cs),
(-4,10,ls),
(-5,4,o),
(-2,0,o),
(4,0,cs),
(180,0,ls),
(186,0,o),
(191,4,o),
(192,10,cs),
(236,260,l),
(257,260,l),
(339,32,ls),
(348,10,o),
(362,0,o),
(387,0,cs),
(556,0,ls),
(564,0,o),
(568,5,o),
(565,12,cs),
(459,275,l),
(570,307,o),
(634,387,o),
(650,479,cs),
(673,605,o),
(602,705,o),
(427,705,cs)
);
}
);
width = 661;
}
);
note = R;
unicode = 82;
},
{
glyphname = S;
lastChange = "2022-10-20 15:45:51 +0000";
layers = (
{
layerId = m01;
shapes = (
{
closed = 1;
nodes = (
(600,440,o),
(255,406,o),
(274,511,cs),
(280,545,o),
(306,562,o),
(334,561,cs),
(357,561,o),
(376,553,o),
(384,535,cs),
(395,511,o),
(401,497,o),
(427,497,cs),
(591,497,ls),
(597,497,o),
(602,501,o),
(602,507,cs),
(615,641,o),
(523,716,o),
(365,716,cs),
(216,716,o),
(88,642,o),
(63,504,cs),
(17,259,o),
(369,312,o),
(350,199,cs),
(344,166,o),
(314,148,o),
(279,148,cs),
(254,148,o),
(232,157,o),
(223,180,cs),
(215,205,o),
(206,219,o),
(180,219,cs),
(21,219,ls),
(15,219,o),
(10,215,o),
(10,209,cs),
(-2,65,o),
(105,-7,o),
(258,-7,cs),
(425,-7,o),
(538,90,o),
(560,214,cs)
);
}
);
width = 620;
}
);
note = S;
unicode = 83;
},
{
glyphname = T;
lastChange = "2022-10-20 15:45:51 +0000";
layers = (
{
layerId = m01;
shapes = (
{
closed = 1;
nodes = (
(53,559,ls),
(52,553,o),
(56,549,o),
(62,549,cs),
(193,549,ls),
(222,549,o),
(235,533,o),
(230,504,cs),
(143,10,ls),
(142,4,o),
(145,0,o),
(151,0,cs),
(327,0,ls),
(333,0,o),
(338,4,o),
(339,10,cs),
(426,504,ls),
(431,533,o),
(450,549,o),
(479,549,cs),
(612,549,ls),
(618,549,o),
(622,553,o),
(623,559,cs),
(647,695,ls),
(648,701,o),
(645,705,o),
(639,705,cs),
(89,705,ls),
(83,705,o),
(78,701,o),
(77,695,cs)
);
}
);
width = 604;
}
);
note = T;
unicode = 84;
},
{
glyphname = U;
lastChange = "2022-10-20 15:45:51 +0000";
layers = (
{
layerId = m01;
shapes = (
{
closed = 1;
nodes = (
(44,296,ls),
(8,95,o),
(118,-7,o),
(288,-7,cs),
(457,-7,o),
(615,95,o),
(651,296,cs),
(721,695,ls),
(722,701,o),
(719,705,o),
(713,705,cs),
(572,705,ls),
(543,705,o),
(524,689,o),
(519,660,cs),
(455,296,ls),
(442,223,o),
(399,177,o),
(325,177,cs),
(251,177,o),
(226,223,o),
(239,296,cs),
(303,660,ls),
(308,689,o),
(295,705,o),
(266,705,cs),
(126,705,ls),
(120,705,o),
(115,701,o),
(114,695,cs)
);
}
);
width = 712;
}
);
note = U;
unicode = 85;
},
{
glyphname = V;
lastChange = "2022-10-20 15:45:51 +0000";
layers = (
{
layerId = m01;
shapes = (
{
closed = 1;
nodes = (
(356,216,ls),
(351,206,o),
(345,206,o),
(344,216,cs),
(282,668,ls),
(278,694,o),
(263,705,o),
(237,705,cs),
(78,705,ls),
(71,705,o),
(67,701,o),
(68,694,cs),
(179,36,ls),
(183,12,o),
(199,0,o),
(225,0,cs),
(398,0,ls),
(424,0,o),
(444,12,o),
(456,36,cs),
(798,694,ls),
(801,701,o),
(799,705,o),
(792,705,cs),
(634,705,ls),
(608,705,o),
(589,694,o),
(577,668,cs)
);
}
);
width = 747;
}
);
note = V;
unicode = 86;
},
{
glyphname = W;
lastChange = "2022-10-20 15:45:51 +0000";
layers = (
{
layerId = m01;
shapes = (
{
closed = 1;
nodes = (
(134,39,ls),
(135,12,o),
(149,0,o),
(176,0,cs),
(337,0,ls),
(364,0,o),
(382,12,o),
(393,39,cs),
(541,405,ls),
(545,414,o),
(553,414,o),
(553,405,cs),
(571,40,ls),
(572,14,o),
(587,0,o),
(614,0,cs),
(774,0,ls),
(801,0,o),
(820,13,o),
(831,39,cs),
(1106,694,ls),
(1109,701,o),
(1107,705,o),
(1100,705,cs),
(940,705,ls),
(913,705,o),
(895,692,o),
(885,664,cs),
(743,257,ls),
(740,248,o),
(732,248,o),
(731,257,cs),
(711,666,ls),
(710,693,o),
(696,705,o),
(669,705,cs),
(534,705,ls),
(507,705,o),
(489,693,o),
(478,666,cs),
(310,252,ls),
(307,243,o),
(299,244,o),
(298,253,cs),
(301,664,ls),
(301,692,o),
(287,705,o),
(260,705,cs),
(100,705,ls),
(93,705,o),
(89,701,o),
(90,694,cs)
);
}
);
width = 1076;
}
);
note = W;
unicode = 87;
},
{
glyphname = X;
lastChange = "2022-10-20 15:45:51 +0000";
layers = (
{
layerId = m01;
shapes = (
{
closed = 1;
nodes = (
(432,6,ls),
(434,1,o),
(438,0,o),
(443,0,cs),
(651,0,ls),
(659,0,o),
(663,6,o),
(660,12,cs),
(502,319,ls),
(492,340,o),
(494,361,o),
(512,382,cs),
(765,693,ls),
(770,700,o),
(769,705,o),
(761,705,cs),
(560,705,ls),
(555,705,o),
(551,702,o),
(547,698,cs),
(443,561,ls),
(421,532,o),
(393,531,o),
(379,559,cs),
(308,699,ls),
(306,704,o),
(302,705,o),
(297,705,cs),
(89,705,ls),
(81,705,o),
(77,699,o),
(80,693,cs),
(235,392,ls),
(245,371,o),
(243,350,o),
(225,329,cs),
(-32,12,ls),
(-37,5,o),
(-36,0,o),
(-28,0,cs),
(173,0,ls),
(178,0,o),
(182,3,o),
(186,7,cs),
(294,149,ls),
(316,178,o),
(343,179,o),
(357,151,cs)
);
}
);
width = 739;
}
);
note = X;
unicode = 88;
},
{
glyphname = Y;
lastChange = "2022-10-20 15:45:51 +0000";
layers = (
{
layerId = m01;
shapes = (
{
closed = 1;
nodes = (
(229,224,l),
(192,10,ls),
(191,4,o),
(194,0,o),
(200,0,cs),
(377,0,ls),
(383,0,o),
(388,4,o),
(389,10,cs),
(426,224,l),
(751,693,ls),
(755,700,o),
(753,705,o),
(746,705,cs),
(575,705,ls),
(550,705,o),
(531,694,o),
(517,671,cs),
(376,448,ls),
(371,440,o),
(363,440,o),
(362,448,cs),
(299,671,ls),
(293,694,o),
(278,705,o),
(253,705,cs),
(79,705,ls),
(72,705,o),
(68,700,o),
(70,693,cs)
);
}
);
width = 701;
}
);
note = Y;
unicode = 89;
},
{
glyphname = Z;
lastChange = "2022-10-20 15:45:51 +0000";
layers = (
{
layerId = m01;
shapes = (
{
closed = 1;
nodes = (
(623,695,ls),
(624,701,o),
(621,705,o),
(615,705,cs),
(122,705,ls),
(116,705,o),
(111,701,o),
(110,695,cs),
(92,592,ls),
(87,563,o),
(100,547,o),
(129,547,cs),
(359,547,ls),
(367,547,o),
(369,541,o),
(363,535,cs),
(14,149,l),
(-12,0,l),
(491,0,ls),
(497,0,o),
(502,4,o),
(503,10,cs),
(521,114,ls),
(526,143,o),
(513,159,o),
(484,159,cs),
(251,159,ls),
(243,159,o),
(241,165,o),
(247,171,cs),
(599,556,l)
);
}
);
width = 613;
}
);
note = Z;
unicode = 90;
},
{
glyphname = bracketleft;
lastChange = "2022-10-20 15:45:51 +0000";
layers = (
{
layerId = m01;
shapes = (
{
closed = 1;
nodes = (
(11,-209,ls),
(10,-215,o),
(13,-219,o),
(19,-219,cs),
(339,-219,ls),
(345,-219,o),
(350,-215,o),
(351,-209,cs),
(375,-70,ls),
(376,-64,o),
(373,-60,o),
(367,-60,cs),
(266,-60,ls),
(237,-60,o),
(224,-44,o),
(229,-15,cs),
(355,701,ls),
(360,730,o),
(379,746,o),
(408,746,cs),
(509,746,ls),
(515,746,o),
(520,750,o),
(521,756,cs),
(545,894,ls),
(546,900,o),
(543,904,o),
(537,904,cs),
(217,904,ls),
(211,904,o),
(206,900,o),
(205,894,cs)
);
}
);
width = 522;
}
);
note = bracketleft;
unicode = 91;
},
{
glyphname = backslash;
lastChange = "2022-10-20 15:45:51 +0000";
layers = (
{
layerId = m01;
shapes = (
{
closed = 1;
nodes = (
(481,952,l),
(293,952,l),
(345,-193,l),
(533,-193,l)
);
}
);
width = 840;
}
);
note = backslash;
unicode = 92;
},
{
glyphname = bracketright;
lastChange = "2022-10-20 15:45:51 +0000";
layers = (
{
layerId = m01;
shapes = (
{
closed = 1;
nodes = (
(316,-209,ls),
(315,-215,o),
(310,-219,o),
(304,-219,cs),
(-16,-219,ls),
(-22,-219,o),
(-25,-215,o),
(-24,-209,cs),
(0,-70,ls),
(1,-64,o),
(6,-60,o),
(12,-60,cs),
(113,-60,ls),
(142,-60,o),
(161,-44,o),
(166,-15,cs),
(292,701,ls),
(297,730,o),
(284,746,o),
(255,746,cs),
(154,746,ls),
(148,746,o),
(145,750,o),
(146,756,cs),
(170,894,ls),
(171,900,o),
(176,904,o),
(182,904,cs),
(502,904,ls),
(508,904,o),
(511,900,o),
(510,894,cs)
);
}
);
width = 521;
}
);
note = bracketright;
unicode = 93;
},
{
glyphname = asciicircum;
lastChange = "2022-10-20 15:45:51 +0000";
layers = (
{
layerId = m01;
shapes = (
{
closed = 1;
nodes = (
(462,163,l),
(658,163,l),
(512,707,l),
(319,707,l),
(-20,163,l),
(176,163,l),
(376,483,l)
);
}
);
width = 733;
}
);
note = asciicircum;
unicode = 94;
},
{
glyphname = underscore;
lastChange = "2022-10-20 15:45:51 +0000";
layers = (
{
layerId = m01;
shapes = (
{
closed = 1;
nodes = (
(52,-222,ls),
(51,-228,o),
(54,-232,o),
(60,-232,cs),
(688,-232,ls),
(694,-232,o),
(699,-228,o),
(700,-222,cs),
(730,-52,ls),
(731,-46,o),
(728,-42,o),
(722,-42,cs),
(94,-42,ls),
(88,-42,o),
(83,-46,o),
(82,-52,cs)
);
}
);
width = 772;
}
);
note = underscore;
unicode = 95;
},
{
glyphname = grave;
lastChange = "2022-10-20 15:45:51 +0000";
layers = (
{
layerId = m01;
shapes = (
{
closed = 1;
nodes = (
(6,697,l),
(238,599,l),
(262,732,l),
(32,845,l)
);
}
);
width = 307;
}
);
note = grave;
unicode = 96;
},
{
glyphname = a;
lastChange = "2022-10-20 15:45:51 +0000";
layers = (
{
layerId = m01;
shapes = (
{
closed = 1;
nodes = (
(-7,102,o),
(79,-7,o),
(212,-7,cs),
(291,-7,o),
(354,28,o),
(392,78,c),
(386,45,ls),
(381,16,o),
(395,0,o),
(424,0,cs),
(565,0,ls),
(571,0,o),
(575,4,o),
(576,10,cs),
(666,516,ls),
(671,545,o),
(657,561,o),
(628,561,cs),
(487,561,ls),
(481,561,o),
(477,557,o),
(476,551,cs),
(464,483,l),
(444,533,o),
(394,568,o),
(314,568,cs),
(181,568,o),
(56,460,o),
(24,281,cs)
);
},
{
closed = 1;
nodes = (
(405,205,o),
(350,164,o),
(295,164,cs),
(239,164,o),
(201,206,o),
(214,281,cs),
(227,357,o),
(281,397,o),
(337,397,cs),
(392,397,o),
(431,356,o),
(418,281,cs)
);
}
);
width = 680;
}
);
note = a;
unicode = 97;
},
{
glyphname = b;
lastChange = "2022-10-20 15:45:51 +0000";
layers = (
{
layerId = m01;
shapes = (
{
closed = 1;
nodes = (
(316,730,ls),
(317,736,o),
(314,740,o),
(308,740,cs),
(167,740,ls),
(138,740,o),
(119,724,o),
(114,695,cs),
(-7,10,ls),
(-8,4,o),
(-5,0,o),
(1,0,cs),
(142,0,ls),
(171,0,o),
(190,16,o),
(195,45,cs),
(201,78,l),
(222,27,o),
(271,-7,o),
(350,-7,cs),
(484,-7,o),
(608,102,o),
(640,281,cs),
(671,460,o),
(586,568,o),
(452,568,cs),
(374,568,o),
(312,534,o),
(273,483,c)
);
},
{
closed = 1;
nodes = (
(433,206,o),
(378,164,o),
(323,164,cs),
(268,164,o),
(229,205,o),
(242,281,cs),
(255,356,o),
(309,397,o),
(364,397,cs),
(419,397,o),
(459,357,o),
(446,281,cs)
);
}
);
width = 680;
}
);
note = b;
unicode = 98;
},
{
glyphname = c;
lastChange = "2022-10-20 15:45:51 +0000";
layers = (
{
layerId = m01;
shapes = (
{
closed = 1;
nodes = (
(-7,102,o),
(90,-7,o),
(257,-7,cs),
(381,-7,o),
(487,56,o),
(546,164,cs),
(564,195,o),
(549,215,o),
(517,215,cs),
(371,215,ls),
(366,215,o),
(361,212,o),
(358,207,cs),
(341,177,o),
(317,160,o),
(283,160,cs),
(235,160,o),
(210,200,o),
(224,281,cs),
(238,361,o),
(277,401,o),
(325,401,cs),
(359,401,o),
(377,383,o),
(384,354,cs),
(385,349,o),
(390,346,o),
(395,346,cs),
(541,346,ls),
(573,346,o),
(594,366,o),
(589,397,cs),
(567,506,o),
(483,568,o),
(359,568,cs),
(192,568,o),
(55,459,o),
(24,281,cs)
);
}
);
width = 607;
}
);
note = c;
unicode = 99;
},
{
glyphname = d;
lastChange = "2022-10-20 15:45:51 +0000";
layers = (
{
layerId = m01;
shapes = (
{
closed = 1;
nodes = (
(-23,102,o),
(64,-7,o),
(197,-7,cs),
(276,-7,o),
(338,28,o),
(376,78,c),
(370,45,ls),
(365,16,o),
(378,0,o),
(407,0,cs),
(549,0,ls),
(555,0,o),
(560,4,o),
(561,10,cs),
(682,695,ls),
(687,724,o),
(674,740,o),
(645,740,cs),
(503,740,ls),
(497,740,o),
(492,736,o),
(491,730,cs),
(448,484,l),
(426,535,o),
(374,568,o),
(300,568,cs),
(166,568,o),
(40,460,o),
(9,281,cs)
);
},
{
closed = 1;
nodes = (
(380,205,o),
(325,164,o),
(270,164,cs),
(214,164,o),
(176,206,o),
(189,281,cs),
(202,357,o),
(255,397,o),
(311,397,cs),
(366,397,o),
(406,356,o),
(393,281,cs)
);
}
);
width = 680;
}
);
note = d;
unicode = 100;
},
{
glyphname = e;
lastChange = "2022-10-20 15:45:51 +0000";
layers = (
{
layerId = m01;
shapes = (
{
closed = 1;
nodes = (
(373,413,o),
(405,390,o),
(403,347,cs),
(402,340,o),
(398,336,o),
(392,336,cs),
(240,336,ls),
(233,336,o),
(230,340,o),
(233,347,c),
(252,391,o),
(288,413,o),
(331,413,cs)
);
},
{
closed = 1;
nodes = (
(356,194,l),
(341,171,o),
(316,150,o),
(278,150,cs),
(234,150,o),
(204,176,o),
(211,241,c),
(582,241,l),
(587,256,o),
(591,272,o),
(593,287,cs),
(624,461,o),
(526,568,o),
(360,568,cs),
(192,568,o),
(55,459,o),
(24,281,cs),
(-7,102,o),
(92,-7,o),
(258,-7,cs),
(386,-7,o),
(498,65,o),
(552,166,cs),
(561,183,o),
(554,194,o),
(536,194,cs)
);
}
);
width = 616;
}
);
note = e;
unicode = 101;
},
{
glyphname = f;
lastChange = "2022-10-20 15:45:51 +0000";
layers = (
{
layerId = m01;
shapes = (
{
closed = 1;
nodes = (
(6,10,ls),
(5,4,o),
(8,0,o),
(14,0,cs),
(191,0,ls),
(197,0,o),
(202,4,o),
(203,10,cs),
(270,388,ls),
(271,394,o),
(276,398,o),
(282,398,cs),
(350,398,ls),
(356,398,o),
(360,402,o),
(361,408,cs),
(387,551,ls),
(388,557,o),
(384,561,o),
(378,561,cs),
(311,561,ls),
(305,561,o),
(301,565,o),
(303,572,cs),
(312,600,o),
(327,615,o),
(352,620,cs),
(382,626,o),
(400,637,o),
(405,665,cs),
(425,778,ls),
(426,784,o),
(423,788,o),
(417,789,cs),
(242,798,o),
(131,718,o),
(104,566,cs),
(104,563,o),
(99,561,o),
(93,561,cs),
(52,561,ls),
(46,561,o),
(42,557,o),
(41,551,cs),
(15,408,ls),
(14,402,o),
(18,398,o),
(24,398,cs),
(30,398,ls),
(59,398,o),
(72,382,o),
(67,353,cs)
);
}
);
width = 373;
}
);
note = f;
unicode = 102;
},
{
glyphname = g;
lastChange = "2022-10-20 15:45:51 +0000";
layers = (
{
layerId = m01;
shapes = (
{
closed = 1;
nodes = (
(16,102,o),
(103,-7,o),
(236,-7,cs),
(315,-7,o),
(378,28,o),
(416,78,c),
(403,6,ls),
(388,-81,o),
(339,-106,o),
(284,-106,cs),
(251,-106,o),
(226,-97,o),
(213,-80,cs),
(198,-62,o),
(191,-49,o),
(166,-49,cs),
(20,-49,ls),
(14,-49,o),
(8,-53,o),
(8,-60,cs),
(3,-192,o),
(95,-276,o),
(266,-276,cs),
(468,-276,o),
(573,-144,o),
(599,6,cs),
(695,551,ls),
(696,557,o),
(693,561,o),
(687,561,cs),
(546,561,ls),
(517,561,o),
(498,545,o),
(493,516,cs),
(487,483,l),
(467,533,o),
(416,568,o),
(337,568,cs),
(204,568,o),
(79,460,o),
(48,281,cs)
);
},
{
closed = 1;
nodes = (
(438,205,o),
(384,164,o),
(329,164,cs),
(273,164,o),
(235,206,o),
(248,281,cs),
(261,357,o),
(314,397,o),
(370,397,cs),
(425,397,o),
(465,356,o),
(452,281,cs)
);
}
);
width = 680;
}
);
note = g;
unicode = 103;
},
{
glyphname = h;
lastChange = "2022-10-20 15:45:51 +0000";
layers = (
{
layerId = m01;
shapes = (
{
closed = 1;
nodes = (
(-7,10,ls),
(-9,4,o),
(-5,0,o),
(1,0,cs),
(177,0,ls),
(183,0,o),
(187,4,o),
(189,10,cs),
(240,301,ls),
(251,366,o),
(294,404,o),
(352,404,cs),
(408,404,o),
(437,366,o),
(426,301,cs),
(381,45,ls),
(376,16,o),
(389,0,o),
(418,0,cs),
(559,0,ls),
(565,0,o),
(569,4,o),
(571,10,cs),
(626,327,ls),
(652,474,o),
(588,566,o),
(460,566,cs),
(379,566,o),
(313,529,o),
(272,481,c),
(309,695,ls),
(314,724,o),
(301,740,o),
(272,740,cs),
(131,740,ls),
(125,740,o),
(121,736,o),
(119,730,cs)
);
}
);
width = 686;
}
);
note = h;
unicode = 104;
},
{
glyphname = i;
lastChange = "2022-10-20 15:45:51 +0000";
layers = (
{
layerId = m01;
shapes = (
{
closed = 1;
nodes = (
(-8,45,ls),
(-13,16,o),
(0,0,o),
(29,0,cs),
(170,0,ls),
(176,0,o),
(181,4,o),
(182,10,cs),
(271,516,ls),
(276,545,o),
(263,561,o),
(234,561,cs),
(93,561,ls),
(87,561,o),
(82,557,o),
(81,551,cs)
);
},
{
closed = 1;
nodes = (
(260,613,o),
(313,657,o),
(323,713,cs),
(333,770,o),
(296,815,o),
(227,815,cs),
(157,815,o),
(104,770,o),
(94,713,cs),
(84,657,o),
(121,613,o),
(191,613,cs)
);
}
);
width = 308;
}
);
note = i;
unicode = 105;
},
{
glyphname = j;
lastChange = "2022-10-20 15:45:51 +0000";
layers = (
{
layerId = m01;
shapes = (
{
closed = 1;
nodes = (
(283,613,o),
(336,657,o),
(345,713,cs),
(356,770,o),
(318,815,o),
(249,815,cs),
(179,815,o),
(127,770,o),
(116,713,cs),
(107,657,o),
(144,613,o),
(214,613,cs)
);
},
{
closed = 1;
nodes = (
(117,561,ls),
(111,561,o),
(106,557,o),
(105,551,cs),
(-2,-58,ls),
(-8,-88,o),
(-23,-101,o),
(-57,-101,cs),
(-84,-101,o),
(-102,-117,o),
(-107,-146,cs),
(-127,-258,ls),
(-128,-264,o),
(-124,-268,o),
(-118,-268,cs),
(-57,-268,ls),
(67,-268,o),
(166,-215,o),
(194,-55,cs),
(295,516,ls),
(300,545,o),
(287,561,o),
(258,561,cs)
);
}
);
width = 307;
}
);
note = j;
unicode = 106;
},
{
glyphname = k;
lastChange = "2022-10-20 15:45:51 +0000";
layers = (
{
layerId = m01;
shapes = (
{
closed = 1;
nodes = (
(-1,45,ls),
(-6,16,o),
(7,0,o),
(36,0,cs),
(177,0,ls),
(183,0,o),
(187,4,o),
(189,10,cs),
(221,197,ls),
(224,211,o),
(235,215,o),
(241,203,cs),
(339,6,ls),
(341,1,o),
(345,0,o),
(350,0,cs),
(565,0,ls),
(573,0,o),
(577,5,o),
(573,12,cs),
(411,269,ls),
(407,276,o),
(409,283,o),
(415,290,cs),
(664,549,ls),
(670,555,o),
(668,561,o),
(660,561,cs),
(449,561,ls),
(444,561,o),
(440,560,o),
(436,555,cs),
(269,367,ls),
(259,355,o),
(250,359,o),
(253,373,cs),
(309,695,ls),
(314,724,o),
(301,740,o),
(272,740,cs),
(131,740,ls),
(125,740,o),
(121,736,o),
(119,730,cs)
);
}
);
width = 647;
}
);
note = k;
unicode = 107;
},
{
glyphname = l;
lastChange = "2022-10-20 15:45:51 +0000";
layers = (
{
layerId = m01;
shapes = (
{
closed = 1;
nodes = (
(-1,45,ls),
(-6,16,o),
(7,0,o),
(36,0,cs),
(177,0,ls),
(183,0,o),
(187,4,o),
(189,10,cs),
(309,695,ls),
(314,724,o),
(301,740,o),
(272,740,cs),
(131,740,ls),
(125,740,o),
(121,736,o),
(119,730,cs)
);
}
);
width = 308;
}
);
note = l;
unicode = 108;
},
{
glyphname = m;
lastChange = "2022-10-20 15:45:51 +0000";
layers = (
{
layerId = m01;
shapes = (
{
closed = 1;
nodes = (
(778,45,ls),
(773,16,o),
(786,0,o),
(815,0,cs),
(956,0,ls),
(962,0,o),
(967,4,o),
(968,10,cs),
(1024,327,ls),
(1050,474,o),
(981,566,o),
(839,566,cs),
(756,566,o),
(682,520,o),
(634,463,c),
(608,528,o),
(549,566,o),
(465,566,cs),
(389,566,o),
(328,532,o),
(288,487,c),
(293,516,ls),
(298,545,o),
(285,561,o),
(256,561,cs),
(115,561,ls),
(109,561,o),
(104,557,o),
(103,551,cs),
(8,10,ls),
(7,4,o),
(10,0,o),
(16,0,cs),
(192,0,ls),
(198,0,o),
(203,4,o),
(204,10,cs),
(255,301,ls),
(266,362,o),
(308,396,o),
(366,396,cs),
(422,396,o),
(452,362,o),
(441,301,cs),
(396,45,ls),
(391,16,o),
(404,0,o),
(433,0,cs),
(574,0,ls),
(580,0,o),
(585,4,o),
(586,10,cs),
(637,301,ls),
(648,362,o),
(690,396,o),
(747,396,cs),
(803,396,o),
(834,362,o),
(823,301,cs)
);
}
);
width = 1067;
}
);
note = m;
unicode = 109;
},
{
glyphname = n;
lastChange = "2022-10-20 15:45:51 +0000";
layers = (
{
layerId = m01;
shapes = (
{
closed = 1;
nodes = (
(396,45,ls),
(391,16,o),
(404,0,o),
(433,0,cs),
(574,0,ls),
(580,0,o),
(585,4,o),
(586,10,cs),
(642,327,ls),
(668,474,o),
(603,566,o),
(473,566,cs),
(394,566,o),
(328,529,o),
(287,481,c),
(293,516,ls),
(298,545,o),
(285,561,o),
(256,561,cs),
(115,561,ls),
(109,561,o),
(104,557,o),
(103,551,cs),
(8,10,ls),
(7,4,o),
(10,0,o),
(16,0,cs),
(192,0,ls),
(198,0,o),
(203,4,o),
(204,10,cs),
(255,301,ls),
(267,366,o),
(309,404,o),
(367,404,cs),
(423,404,o),
(453,366,o),
(441,301,cs)
);
}
);
width = 686;
}
);
note = n;
unicode = 110;
},
{
glyphname = o;
lastChange = "2022-10-20 15:45:51 +0000";
layers = (
{
layerId = m01;
shapes = (
{
closed = 1;
nodes = (
(643,459,o),
(536,568,o),
(369,568,cs),
(202,568,o),
(55,459,o),
(24,281,cs),
(-7,102,o),
(99,-7,o),
(266,-7,cs),
(433,-7,o),
(581,102,o),
(612,281,cs)
);
},
{
closed = 1;
nodes = (
(238,361,o),
(289,398,o),
(339,398,cs),
(389,398,o),
(427,361,o),
(413,281,cs),
(399,200,o),
(346,163,o),
(296,163,cs),
(245,163,o),
(210,200,o),
(224,281,cs)
);
}
);
width = 636;
}
);
note = o;
unicode = 111;
},
{
glyphname = p;
lastChange = "2022-10-20 15:45:51 +0000";
layers = (
{
layerId = m01;
shapes = (
{
closed = 1;
nodes = (
(317,516,ls),
(322,545,o),
(308,561,o),
(279,561,cs),
(138,561,ls),
(132,561,o),
(128,557,o),
(127,551,cs),
(-10,-223,ls),
(-15,-252,o),
(-2,-268,o),
(27,-268,cs),
(168,-268,ls),
(174,-268,o),
(179,-264,o),
(180,-258,cs),
(239,78,l),
(261,29,o),
(309,-7,o),
(388,-7,cs),
(522,-7,o),
(647,102,o),
(678,281,cs),
(710,460,o),
(624,568,o),
(490,568,cs),
(412,568,o),
(349,533,o),
(311,483,c)
);
},
{
closed = 1;
nodes = (
(480,206,o),
(425,164,o),
(370,164,cs),
(315,164,o),
(276,205,o),
(289,281,cs),
(302,356,o),
(357,397,o),
(412,397,cs),
(467,397,o),
(506,357,o),
(493,281,cs)
);
}
);
width = 680;
}
);
note = p;
unicode = 112;
},
{
glyphname = q;
lastChange = "2022-10-20 15:45:51 +0000";
layers = (
{
layerId = m01;
shapes = (
{
closed = 1;
nodes = (
(17,108,o),
(112,-7,o),
(247,-7,cs),
(313,-7,o),
(367,21,o),
(413,66,c),
(356,-258,ls),
(355,-264,o),
(358,-268,o),
(364,-268,cs),
(505,-268,ls),
(534,-268,o),
(553,-252,o),
(558,-223,cs),
(695,551,ls),
(696,557,o),
(693,561,o),
(687,561,cs),
(546,561,ls),
(517,561,o),
(498,545,o),
(493,516,cs),
(491,504,l),
(462,545,o),
(416,566,o),
(350,566,cs),
(214,566,o),
(77,448,o),
(47,278,cs)
);
},
{
closed = 1;
nodes = (
(424,198,o),
(361,164,o),
(316,164,cs),
(270,164,o),
(219,195,o),
(234,278,cs),
(248,361,o),
(311,396,o),
(357,396,cs),
(402,396,o),
(453,363,o),
(438,281,cs)
);
}
);
width = 680;
}
);
note = q;
unicode = 113;
},
{
glyphname = r;
lastChange = "2022-10-20 15:45:51 +0000";
layers = (
{
layerId = m01;
shapes = (
{
closed = 1;
nodes = (
(245,245,ls),
(260,331,o),
(310,357,o),
(391,357,cs),
(401,357,ls),
(430,357,o),
(449,373,o),
(454,402,cs),
(481,556,ls),
(482,562,o),
(479,566,o),
(473,566,cs),
(401,562,o),
(334,520,o),
(284,462,c),
(293,516,ls),
(298,545,o),
(285,561,o),
(256,561,cs),
(115,561,ls),
(109,561,o),
(104,557,o),
(103,551,cs),
(8,10,ls),
(7,4,o),
(10,0,o),
(16,0,cs),
(192,0,ls),
(198,0,o),
(203,4,o),
(204,10,cs)
);
}
);
width = 447;
}
);
note = r;
unicode = 114;
},
{
glyphname = s;
lastChange = "2022-10-20 15:45:51 +0000";
layers = (
{
layerId = m01;
shapes = (
{
closed = 1;
nodes = (
(544,378,o),
(234,314,o),
(248,394,cs),
(252,415,o),
(271,428,o),
(303,428,cs),
(329,428,o),
(348,420,o),
(357,405,cs),
(370,385,o),
(378,372,o),
(403,372,cs),
(532,372,ls),
(538,372,o),
(544,376,o),
(544,383,cs),
(546,488,o),
(480,568,o),
(332,568,cs),
(180,568,o),
(84,487,o),
(67,389,cs),
(31,183,o),
(341,250,o),
(326,168,cs),
(323,148,o),
(301,132,o),
(268,132,cs),
(242,132,o),
(221,140,o),
(210,156,cs),
(197,176,o),
(189,189,o),
(164,189,cs),
(22,189,ls),
(16,189,o),
(10,185,o),
(10,179,cs),
(5,72,o),
(93,-7,o),
(244,-7,cs),
(389,-7,o),
(490,67,o),
(508,165,cs)
);
}
);
width = 568;
}
);
note = s;
unicode = 115;
},
{
glyphname = t;
lastChange = "2022-10-20 15:45:51 +0000";
layers = (
{
layerId = m01;
shapes = (
{
closed = 1;
nodes = (
(63,213,ls),
(35,52,o),
(117,0,o),
(241,0,cs),
(316,0,ls),
(322,0,o),
(326,4,o),
(327,10,cs),
(347,122,ls),
(352,151,o),
(339,167,o),
(310,167,cs),
(298,167,ls),
(265,167,o),
(254,180,o),
(260,210,cs),
(293,398,l),
(385,398,ls),
(391,398,o),
(395,402,o),
(396,408,cs),
(422,551,ls),
(423,557,o),
(419,561,o),
(413,561,cs),
(321,561,l),
(344,687,ls),
(345,693,o),
(341,697,o),
(335,697,cs),
(158,697,ls),
(152,697,o),
(148,693,o),
(147,687,cs),
(132,606,ls),
(127,577,o),
(108,561,o),
(79,561,cs),
(55,561,l),
(27,398,l),
(96,398,l)
);
}
);
width = 421;
}
);
note = t;
unicode = 116;
},
{
glyphname = u;
lastChange = "2022-10-20 15:45:51 +0000";
layers = (
{
layerId = m01;
shapes = (
{
closed = 1;
nodes = (
(678,551,ls),
(679,557,o),
(676,561,o),
(670,561,cs),
(493,561,ls),
(487,561,o),
(482,557,o),
(481,551,cs),
(430,260,ls),
(418,195,o),
(376,157,o),
(319,157,cs),
(263,157,o),
(232,195,o),
(244,260,cs),
(289,516,ls),
(294,545,o),
(281,561,o),
(252,561,cs),
(112,561,ls),
(106,561,o),
(101,557,o),
(100,551,cs),
(44,235,ls),
(18,87,o),
(83,-5,o),
(213,-5,cs),
(292,-5,o),
(358,32,o),
(398,80,c),
(392,45,ls),
(387,16,o),
(400,0,o),
(429,0,cs),
(571,0,ls),
(577,0,o),
(582,4,o),
(583,10,cs)
);
}
);
width = 686;
}
);
note = u;
unicode = 117;
},
{
glyphname = v;
lastChange = "2022-10-20 15:45:51 +0000";
layers = (
{
layerId = m01;
shapes = (
{
closed = 1;
nodes = (
(70,561,ls),
(63,561,o),
(60,557,o),
(61,550,cs),
(146,37,ls),
(150,13,o),
(166,0,o),
(192,0,cs),
(358,0,ls),
(384,0,o),
(404,13,o),
(416,37,cs),
(683,550,ls),
(686,557,o),
(683,561,o),
(676,561,cs),
(519,561,ls),
(493,561,o),
(473,548,o),
(462,523,cs),
(318,207,ls),
(313,198,o),
(307,198,o),
(306,207,cs),
(272,523,ls),
(269,548,o),
(253,561,o),
(227,561,cs)
);
}
);
width = 649;
}
);
note = v;
unicode = 118;
},
{
glyphname = w;
lastChange = "2022-10-20 15:45:51 +0000";
layers = (
{
layerId = m01;
shapes = (
{
closed = 1;
nodes = (
(91,39,ls),
(94,12,o),
(108,0,o),
(135,0,cs),
(274,0,ls),
(301,0,o),
(319,12,o),
(329,39,cs),
(444,314,ls),
(447,323,o),
(455,323,o),
(456,314,cs),
(470,39,ls),
(472,12,o),
(486,0,o),
(513,0,cs),
(653,0,ls),
(680,0,o),
(698,13,o),
(709,39,cs),
(930,550,ls),
(933,557,o),
(930,561,o),
(923,561,cs),
(792,561,ls),
(765,561,o),
(745,547,o),
(736,520,cs),
(633,218,ls),
(629,209,o),
(621,209,o),
(621,218,cs),
(605,522,ls),
(603,549,o),
(589,561,o),
(562,561,cs),
(433,561,ls),
(406,561,o),
(387,547,o),
(376,521,cs),
(256,219,ls),
(253,210,o),
(245,210,o),
(244,219,cs),
(246,520,ls),
(246,548,o),
(232,561,o),
(205,561,cs),
(62,561,ls),
(55,561,o),
(52,557,o),
(53,550,cs)
);
}
);
width = 885;
}
);
note = w;
unicode = 119;
},
{
glyphname = x;
lastChange = "2022-10-20 15:45:51 +0000";
layers = (
{
layerId = m01;
shapes = (
{
closed = 1;
nodes = (
(354,6,ls),
(356,1,o),
(360,0,o),
(365,0,cs),
(562,0,ls),
(570,0,o),
(574,6,o),
(570,12,cs),
(444,244,ls),
(432,265,o),
(436,285,o),
(454,307,cs),
(658,549,ls),
(663,555,o),
(661,561,o),
(653,561,cs),
(461,561,ls),
(456,561,o),
(452,558,o),
(448,554,cs),
(385,470,ls),
(363,440,o),
(337,439,o),
(322,467,cs),
(274,555,ls),
(272,560,o),
(268,561,o),
(263,561,cs),
(66,561,ls),
(58,561,o),
(54,555,o),
(58,549,cs),
(182,322,ls),
(194,301,o),
(190,280,o),
(172,259,cs),
(-29,12,ls),
(-35,5,o),
(-33,0,o),
(-25,0,cs),
(168,0,ls),
(173,0,o),
(177,3,o),
(181,7,cs),
(242,90,ls),
(265,120,o),
(291,122,o),
(306,94,cs)
);
}
);
width = 628;
}
);
note = x;
unicode = 120;
},
{
glyphname = y;
lastChange = "2022-10-20 15:45:51 +0000";
layers = (
{
layerId = m01;
shapes = (
{
closed = 1;
nodes = (
(357,261,ls),
(353,253,o),
(346,253,o),
(344,261,cs),
(288,553,ls),
(287,559,o),
(283,561,o),
(278,561,cs),
(81,561,ls),
(74,561,o),
(69,556,o),
(71,549,cs),
(203,24,l),
(25,-255,ls),
(21,-262,o),
(24,-267,o),
(31,-267,cs),
(194,-267,ls),
(219,-267,o),
(238,-256,o),
(252,-233,cs),
(726,549,ls),
(730,556,o),
(727,561,o),
(720,561,cs),
(556,561,ls),
(530,561,o),
(512,549,o),
(499,525,cs)
);
}
);
width = 655;
}
);
note = y;
unicode = 121;
},
{
glyphname = z;
lastChange = "2022-10-20 15:45:51 +0000";
layers = (
{
layerId = m01;
shapes = (
{
closed = 1;
nodes = (
(521,551,ls),
(522,557,o),
(518,561,o),
(512,561,cs),
(87,561,ls),
(81,561,o),
(77,557,o),
(76,551,cs),
(57,443,ls),
(52,414,o),
(65,398,o),
(94,398,cs),
(253,398,ls),
(261,398,o),
(264,393,o),
(257,386,cs),
(4,155,l),
(-22,10,ls),
(-23,4,o),
(-19,0,o),
(-13,0,cs),
(432,0,l),
(452,118,ls),
(457,147,o),
(444,163,o),
(415,163,cs),
(238,163,ls),
(230,163,o),
(228,168,o),
(235,175,cs),
(495,406,l)
);
}
);
width = 507;
}
);
note = z;
unicode = 122;
},
{
glyphname = braceleft;
lastChange = "2022-10-20 15:45:51 +0000";
layers = (
{
layerId = m01;
shapes = (
{
closed = 1;
nodes = (
(133,137,o),
(94,46,o),
(81,-27,cs),
(59,-152,o),
(131,-221,o),
(256,-221,cs),
(330,-221,l),
(358,-62,l),
(322,-62,ls),
(278,-62,o),
(265,-42,o),
(271,-7,cs),
(280,41,o),
(314,137,o),
(325,200,cs),
(338,274,o),
(314,327,o),
(243,341,c),
(243,343,l),
(320,357,o),
(362,410,o),
(375,484,cs),
(386,547,o),
(386,643,o),
(394,690,cs),
(401,726,o),
(420,746,o),
(464,746,cs),
(500,746,l),
(528,905,l),
(454,905,ls),
(329,905,o),
(233,836,o),
(211,711,cs),
(198,638,o),
(205,547,o),
(195,491,cs),
(188,447,o),
(158,423,o),
(90,422,c),
(62,263,l),
(130,261,o),
(150,234,o),
(143,192,cs)
);
}
);
width = 492;
}
);
note = braceleft;
unicode = 123;
},
{
glyphname = bar;
lastChange = "2022-10-20 15:45:51 +0000";
layers = (
{
layerId = m01;
shapes = (
{
closed = 1;
nodes = (
(125,822,l),
(-45,-137,l),
(152,-137,l),
(322,822,l)
);
}
);
width = 277;
}
);
note = bar;
unicode = 124;
},
{
glyphname = braceright;
lastChange = "2022-10-20 15:45:51 +0000";
layers = (
{
layerId = m01;
shapes = (
{
closed = 1;
nodes = (
(287,137,o),
(294,46,o),
(281,-27,cs),
(259,-152,o),
(163,-221,o),
(38,-221,cs),
(-36,-221,l),
(-8,-62,l),
(28,-62,ls),
(72,-62,o),
(91,-42,o),
(97,-7,cs),
(106,41,o),
(106,137,o),
(117,200,cs),
(130,274,o),
(172,327,o),
(249,341,c),
(249,343,l),
(178,357,o),
(154,410,o),
(167,484,cs),
(178,547,o),
(212,643,o),
(220,690,cs),
(227,726,o),
(214,746,o),
(170,746,cs),
(134,746,l),
(162,905,l),
(236,905,ls),
(361,905,o),
(433,836,o),
(411,711,cs),
(398,638,o),
(359,547,o),
(349,491,cs),
(342,447,o),
(362,423,o),
(430,422,c),
(402,263,l),
(334,261,o),
(304,234,o),
(297,192,cs)
);
}
);
width = 492;
}
);
note = braceright;
unicode = 125;
},
{
glyphname = asciitilde;
lastChange = "2022-10-20 15:45:51 +0000";
layers = (
{
layerId = m01;
shapes = (
{
closed = 1;
nodes = (
(147,194,l),
(163,242,o),
(186,262,o),
(222,262,cs),
(281,262,o),
(319,196,o),
(411,196,cs),
(518,196,o),
(614,265,o),
(671,436,c),
(525,436,l),
(510,388,o),
(487,369,o),
(452,369,cs),
(394,369,o),
(354,435,o),
(262,435,cs),
(154,435,o),
(60,365,o),
(3,194,c)
);
}
);
width = 674;
}
);
note = asciitilde;
unicode = 126;
},
{
glyphname = exclamdown;
lastChange = "2022-10-20 15:45:51 +0000";
layers = (
{
layerId = m01;
shapes = (
{
closed = 1;
nodes = (
(146,302,l),
(313,302,l),
(252,-175,l),
(39,-175,l)
);
},
{
closed = 1;
nodes = (
(364,416,o),
(311,371,o),
(242,371,cs),
(172,371,o),
(135,416,o),
(145,473,cs),
(155,530,o),
(208,574,o),
(278,574,cs),
(347,574,o),
(384,530,o),
(374,473,cs)
);
}
);
width = 423;
}
);
note = exclamdown;
unicode = 161;
},
{
glyphname = cent;
lastChange = "2022-10-20 15:45:51 +0000";
layers = (
{
layerId = m01;
shapes = (
{
closed = 1;
nodes = (
(370,198,l),
(357,167,o),
(323,152,o),
(290,152,cs),
(232,152,o),
(207,190,o),
(218,254,cs),
(229,319,o),
(268,358,o),
(326,358,cs),
(359,358,o),
(385,344,o),
(390,312,c),
(570,312,l),
(584,435,o),
(496,506,o),
(380,515,c),
(394,593,l),
(332,593,l),
(318,515,l),
(166,502,o),
(58,407,o),
(31,255,cs),
(4,103,o),
(78,7,o),
(226,-6,c),
(212,-84,l),
(274,-84,l),
(288,-6,l),
(408,3,o),
(520,75,o),
(550,198,c)
);
}
);
width = 605;
}
);
note = cent;
unicode = 162;
},
{
glyphname = sterling;
lastChange = "2022-10-20 15:45:51 +0000";
layers = (
{
layerId = m01;
shapes = (
{
closed = 1;
nodes = (
(115,490,o),
(116,448,o),
(119,412,c),
(40,412,l),
(17,281,l),
(123,281,l),
(105,193,o),
(65,140,o),
(-6,89,c),
(4,-5,l),
(535,-5,l),
(562,148,l),
(221,148,l),
(273,187,o),
(298,242,o),
(308,281,c),
(461,281,l),
(484,412,l),
(309,412,l),
(305,450,o),
(300,486,o),
(306,516,cs),
(315,570,o),
(343,599,o),
(388,599,cs),
(435,599,o),
(449,568,o),
(444,526,c),
(625,526,l),
(641,658,o),
(576,759,o),
(410,759,cs),
(265,759,o),
(148,678,o),
(123,537,cs)
);
}
);
width = 671;
}
);
note = sterling;
unicode = 163;
},
{
glyphname = currency;
lastChange = "2022-10-20 15:45:51 +0000";
layers = (
{
layerId = m01;
shapes = (
{
closed = 1;
nodes = (
(354,328,o),
(317,308,o),
(283,308,cs),
(249,308,o),
(222,328,o),
(231,377,cs),
(239,427,o),
(274,448,o),
(309,448,cs),
(343,448,o),
(371,427,o),
(363,377,cs)
);
},
{
closed = 1;
nodes = (
(415,144,l),
(502,218,l),
(460,270,l),
(488,299,o),
(507,336,o),
(515,379,cs),
(523,423,o),
(516,460,o),
(497,489,c),
(558,541,l),
(499,615,l),
(419,547,l),
(392,555,o),
(362,560,o),
(329,560,cs),
(294,560,o),
(262,555,o),
(231,546,c),
(175,615,l),
(88,541,l),
(134,486,l),
(106,458,o),
(86,422,o),
(79,379,cs),
(72,337,o),
(77,300,o),
(95,271,c),
(32,218,l),
(91,144,l),
(169,210,l),
(196,200,o),
(227,194,o),
(263,194,cs),
(298,194,o),
(331,199,o),
(362,209,c)
);
}
);
width = 590;
}
);
note = currency;
unicode = 164;
},
{
glyphname = yen;
lastChange = "2022-10-20 15:45:51 +0000";
layers = (
{
layerId = m01;
shapes = (
{
closed = 1;
nodes = (
(609,131,l),
(632,260,l),
(452,260,l),
(485,309,l),
(640,309,l),
(663,439,l),
(575,439,l),
(759,705,l),
(538,705,l),
(362,407,l),
(290,705,l),
(66,705,l),
(156,439,l),
(66,439,l),
(43,309,l),
(200,309,l),
(217,260,l),
(35,260,l),
(12,131,l),
(213,131,l),
(190,0,l),
(387,0,l),
(410,131,l)
);
}
);
width = 701;
}
);
note = yen;
unicode = 165;
},
{
glyphname = brokenbar;
lastChange = "2022-10-20 15:45:51 +0000";
layers = (
{
layerId = m01;
shapes = (
{
closed = 1;
nodes = (
(95,284,l),
(20,-137,l),
(217,-137,l),
(292,284,l)
);
},
{
closed = 1;
nodes = (
(312,402,l),
(387,822,l),
(190,822,l),
(115,402,l)
);
}
);
width = 407;
}
);
note = brokenbar;
unicode = 166;
},
{
glyphname = section;
lastChange = "2022-10-20 15:45:51 +0000";
layers = (
{
layerId = m01;
shapes = (
{
closed = 1;
nodes = (
(105,481,o),
(116,432,o),
(152,391,c),
(71,360,o),
(36,303,o),
(26,244,cs),
(12,164,o),
(59,105,o),
(148,61,cs),
(252,6,o),
(284,-15,o),
(277,-55,cs),
(273,-80,o),
(257,-92,o),
(236,-92,cs),
(213,-92,o),
(199,-77,o),
(206,-30,c),
(11,-30,l),
(-2,-147,o),
(64,-230,o),
(207,-230,cs),
(359,-230,o),
(458,-151,o),
(477,-44,cs),
(486,7,o),
(475,56,o),
(439,97,c),
(522,134,o),
(555,184,o),
(566,244,cs),
(580,324,o),
(530,382,o),
(443,428,cs),
(338,482,o),
(307,503,o),
(314,543,cs),
(318,568,o),
(334,580,o),
(355,580,cs),
(378,580,o),
(392,565,o),
(385,518,c),
(580,518,l),
(593,635,o),
(527,718,o),
(384,718,cs),
(232,718,o),
(133,639,o),
(114,532,cs)
);
},
{
closed = 1;
nodes = (
(351,207,o),
(323,177,o),
(284,177,cs),
(245,177,o),
(227,207,o),
(234,244,cs),
(241,282,o),
(270,311,o),
(309,311,cs),
(349,311,o),
(365,281,o),
(358,244,cs)
);
}
);
width = 591;
}
);
note = section;
unicode = 167;
},
{
glyphname = dieresis;
lastChange = "2022-10-20 15:45:51 +0000";
layers = (
{
layerId = m01;
shapes = (
{
closed = 1;
nodes = (
(121,620,o),
(162,654,o),
(170,699,cs),
(178,745,o),
(149,780,o),
(103,780,cs),
(58,780,o),
(18,745,o),
(10,699,cs),
(2,654,o),
(30,620,o),
(75,620,cs)
);
},
{
closed = 1;
nodes = (
(334,620,o),
(374,654,o),
(382,699,cs),
(390,745,o),
(362,780,o),
(316,780,cs),
(271,780,o),
(231,745,o),
(223,699,cs),
(215,654,o),
(243,620,o),
(288,620,cs)
);
}
);
width = 392;
}
);
note = dieresis;
unicode = 168;
},
{
glyphname = copyright;
lastChange = "2022-10-20 15:45:51 +0000";
layers = (
{
layerId = m01;
shapes = (
{
closed = 1;
nodes = (
(-3,144,o),
(114,-7,o),
(324,-7,cs),
(534,-7,o),
(704,144,o),
(741,356,cs),
(779,568,o),
(662,716,o),
(452,716,cs),
(242,716,o),
(72,568,o),
(34,356,cs)
);
},
{
closed = 1;
nodes = (
(645,174,o),
(513,54,o),
(335,54,cs),
(156,54,o),
(67,174,o),
(99,356,cs),
(131,538,o),
(262,656,o),
(441,656,cs),
(619,656,o),
(709,538,o),
(677,356,cs)
);
},
{
closed = 1;
nodes = (
(445,406,l),
(442,429,o),
(428,448,o),
(399,448,cs),
(361,448,o),
(332,418,o),
(321,355,cs),
(310,292,o),
(329,262,o),
(367,262,cs),
(398,262,o),
(415,282,o),
(427,304,c),
(592,304,l),
(556,199,o),
(458,132,o),
(351,132,cs),
(220,132,o),
(142,218,o),
(166,355,cs),
(190,492,o),
(298,578,o),
(429,578,cs),
(536,578,o),
(611,513,o),
(610,406,c)
);
}
);
width = 775;
}
);
note = copyright;
unicode = 169;
},
{
glyphname = ordfeminine;
lastChange = "2022-10-20 15:45:51 +0000";
layers = (
{
layerId = m01;
shapes = (
{
closed = 1;
nodes = (
(214,349,o),
(251,366,o),
(280,395,c),
(273,355,l),
(419,355,l),
(481,707,l),
(335,707,l),
(328,666,l),
(308,694,o),
(276,711,o),
(220,711,cs),
(127,711,o),
(43,645,o),
(23,530,cs),
(3,415,o),
(64,349,o),
(158,349,cs)
);
},
{
closed = 1;
nodes = (
(285,596,o),
(312,573,o),
(304,531,cs),
(297,488,o),
(262,466,o),
(228,466,cs),
(193,466,o),
(165,486,o),
(173,529,cs),
(180,572,o),
(216,596,o),
(251,596,cs)
);
}
);
width = 475;
}
);
note = ordfeminine;
unicode = 170;
},
{
glyphname = guillemotleft;
lastChange = "2022-10-20 15:45:51 +0000";
layers = (
{
layerId = m01;
shapes = (
{
closed = 1;
nodes = (
(222,295,l),
(336,470,l),
(157,470,l),
(45,295,l),
(95,120,l),
(274,120,l)
);
},
{
closed = 1;
nodes = (
(462,295,l),
(576,470,l),
(397,470,l),
(285,295,l),
(335,120,l),
(514,120,l)
);
}
);
width = 588;
}
);
note = guillemotleft;
unicode = 171;
},
{
glyphname = logicalnot;
lastChange = "2022-10-20 15:45:51 +0000";
layers = (
{
layerId = m01;
shapes = (
{
closed = 1;
nodes = (
(49,297,l),
(489,297,l),
(467,168,l),
(664,168,l),
(712,445,l),
(75,445,l)
);
}
);
width = 748;
}
);
note = logicalnot;
unicode = 172;
},
{
glyphname = uni00AD;
lastChange = "2022-10-20 15:45:51 +0000";
layers = (
{
layerId = m01;
shapes = (
{
closed = 1;
nodes = (
(22,265,l),
(475,265,l),
(503,428,l),
(50,428,l)
);
}
);
width = 578;
}
);
note = uni00AD;
unicode = 173;
},
{
glyphname = registered;
lastChange = "2022-10-20 15:45:51 +0000";
layers = (
{
layerId = m01;
shapes = (
{
closed = 1;
nodes = (
(380,657,o),
(430,593,o),
(413,498,cs),
(397,404,o),
(324,338,o),
(229,338,cs),
(132,338,o),
(83,404,o),
(99,498,cs),
(116,593,o),
(188,657,o),
(285,657,cs)
);
},
{
closed = 1;
nodes = (
(347,278,o),
(455,369,o),
(478,498,cs),
(501,626,o),
(425,717,o),
(296,717,cs),
(166,717,o),
(58,626,o),
(35,498,cs),
(12,369,o),
(88,278,o),
(218,278,cs)
);
},
{
closed = 1;
nodes = (
(371,580,o),
(344,606,o),
(298,606,cs),
(182,606,l),
(145,395,l),
(221,395,l),
(234,468,l),
(240,468,l),
(265,395,l),
(349,395,l),
(315,477,l),
(340,488,o),
(358,510,o),
(363,538,cs)
);
},
{
closed = 1;
nodes = (
(271,545,ls),
(280,545,o),
(285,540,o),
(284,531,cs),
(282,521,o),
(275,517,o),
(266,517,cs),
(240,517,l),
(245,545,l)
);
}
);
width = 512;
}
);
note = registered;
unicode = 174;
},
{
glyphname = macron;
lastChange = "2022-10-20 15:45:51 +0000";
layers = (
{
layerId = m01;
shapes = (
{
closed = 1;
nodes = (
(-2,625,l),
(414,625,l),
(438,757,l),
(22,757,l)
);
}
);
width = 436;
}
);
note = macron;
unicode = 175;
},
{
glyphname = degree;
lastChange = "2022-10-20 15:45:51 +0000";
layers = (
{
layerId = m01;
shapes = (
{
closed = 1;
nodes = (
(5,419,o),
(82,347,o),
(211,347,cs),
(339,347,o),
(437,419,o),
(456,531,cs),
(476,645,o),
(401,712,o),
(273,712,cs),
(144,712,o),
(44,645,o),
(24,531,cs)
);
},
{
closed = 1;
nodes = (
(295,474,o),
(259,452,o),
(229,452,cs),
(197,452,o),
(165,474,o),
(175,530,cs),
(185,586,o),
(224,609,o),
(255,609,cs),
(285,609,o),
(315,586,o),
(305,530,cs)
);
}
);
width = 480;
}
);
note = degree;
unicode = 176;
},
{
glyphname = plusminus;
lastChange = "2022-10-20 15:45:51 +0000";
layers = (
{
layerId = m01;
shapes = (
{
closed = 1;
nodes = (
(247,628,l),
(229,527,l),
(68,527,l),
(37,351,l),
(198,351,l),
(186,280,l),
(25,280,l),
(-6,103,l),
(504,103,l),
(535,280,l),
(374,280,l),
(386,351,l),
(547,351,l),
(578,527,l),
(417,527,l),
(435,628,l)
);
}
);
width = 590;
}
);
note = plusminus;
unicode = 177;
},
{
glyphname = twosuperior;
lastChange = "2022-10-20 15:45:51 +0000";
layers = (
{
layerId = m01;
shapes = (
{
closed = 1;
nodes = (
(191,577,l),
(196,600,o),
(206,612,o),
(220,612,cs),
(231,612,o),
(237,606,o),
(235,595,cs),
(231,574,o),
(211,553,o),
(172,533,cs),
(31,461,l),
(12,352,l),
(339,352,l),
(359,465,l),
(187,465,l),
(241,487,ls),
(339,526,o),
(382,558,o),
(391,606,cs),
(400,658,o),
(367,716,o),
(256,716,cs),
(142,716,o),
(64,658,o),
(45,577,c)
);
}
);
width = 403;
}
);
note = twosuperior;
unicode = 178;
},
{
glyphname = threesuperior;
lastChange = "2022-10-20 15:45:51 +0000";
layers = (
{
layerId = m01;
shapes = (
{
closed = 1;
nodes = (
(169,585,l),
(174,605,o),
(182,614,o),
(197,614,cs),
(211,614,o),
(217,605,o),
(214,591,cs),
(211,570,o),
(198,561,o),
(176,561,cs),
(152,561,l),
(142,506,l),
(174,506,ls),
(195,506,o),
(206,498,o),
(202,477,cs),
(199,458,o),
(187,450,o),
(175,450,cs),
(161,450,o),
(155,457,o),
(156,476,c),
(4,476,l),
(-4,399,o),
(35,349,o),
(169,349,cs),
(269,349,o),
(341,385,o),
(353,451,cs),
(360,492,o),
(340,518,o),
(288,532,c),
(288,535,l),
(336,544,o),
(365,568,o),
(373,610,cs),
(384,672,o),
(331,716,o),
(231,716,cs),
(100,716,o),
(43,651,o),
(29,585,c)
);
}
);
width = 389;
}
);
note = threesuperior;
unicode = 179;
},
{
glyphname = acute;
lastChange = "2022-10-20 15:45:51 +0000";
layers = (
{
layerId = m01;
shapes = (
{
closed = 1;
nodes = (
(12,732,l),
(-12,599,l),
(256,697,l),
(282,845,l)
);
}
);
width = 270;
}
);
note = acute;
unicode = 180;
},
{
glyphname = uni00B5;
lastChange = "2022-10-20 15:45:51 +0000";
layers = (
{
layerId = m01;
shapes = (
{
closed = 1;
nodes = (
(726,561,l),
(530,561,l),
(477,261,ls),
(466,200,o),
(424,165,o),
(366,165,cs),
(310,165,o),
(280,200,o),
(291,261,cs),
(344,561,l),
(148,561,l),
(2,-268,l),
(198,-268,l),
(245,-3,l),
(250,-4,o),
(257,-5,o),
(264,-5,cs),
(342,-5,o),
(405,31,o),
(445,81,c),
(431,0,l),
(627,0,l)
);
}
);
width = 728;
}
);
note = uni00B5;
unicode = 181;
},
{
glyphname = paragraph;
lastChange = "2022-10-20 15:45:51 +0000";
layers = (
{
layerId = m01;
shapes = (
{
closed = 1;
nodes = (
(326,705,ls),
(155,705,o),
(68,596,o),
(49,486,cs),
(29,377,o),
(78,269,o),
(249,269,cs),
(276,269,l),
(229,0,l),
(387,0,l),
(485,557,l),
(545,557,l),
(447,0,l),
(606,0,l),
(730,705,l)
);
}
);
width = 743;
}
);
note = paragraph;
unicode = 182;
},
{
glyphname = periodcentered;
lastChange = "2022-10-20 15:45:51 +0000";
layers = (
{
layerId = m01;
shapes = (
{
closed = 1;
nodes = (
(287,362,o),
(250,407,o),
(181,407,cs),
(111,407,o),
(58,362,o),
(48,305,cs),
(38,248,o),
(75,204,o),
(145,204,cs),
(214,204,o),
(267,248,o),
(277,305,cs)
);
}
);
width = 324;
}
);
note = periodcentered;
unicode = 183;
},
{
glyphname = cedilla;
lastChange = "2022-10-20 15:45:51 +0000";
layers = (
{
layerId = m01;
shapes = (
{
closed = 1;
nodes = (
(212,7,l),
(96,7,l),
(73,-124,l),
(151,-124,ls),
(172,-124,o),
(183,-130,o),
(181,-145,cs),
(178,-159,o),
(165,-166,o),
(144,-166,cs),
(4,-166,l),
(-14,-269,l),
(149,-269,ls),
(217,-269,o),
(299,-239,o),
(315,-150,cs),
(330,-61,o),
(259,-32,o),
(205,-32,c)
);
}
);
width = 328;
}
);
note = cedilla;
unicode = 184;
},
{
glyphname = onesuperior;
lastChange = "2022-10-20 15:45:51 +0000";
layers = (
{
layerId = m01;
shapes = (
{
closed = 1;
nodes = (
(52,352,l),
(198,352,l),
(260,704,l),
(51,704,l),
(31,591,l),
(94,591,l)
);
}
);
width = 267;
}
);
note = onesuperior;
unicode = 185;
},
{
glyphname = ordmasculine;
lastChange = "2022-10-20 15:45:51 +0000";
layers = (
{
layerId = m01;
shapes = (
{
closed = 1;
nodes = (
(5,425,o),
(71,347,o),
(199,347,cs),
(327,347,o),
(423,425,o),
(441,529,cs),
(460,634,o),
(392,709,o),
(264,709,cs),
(136,709,o),
(42,634,o),
(23,529,cs)
);
},
{
closed = 1;
nodes = (
(284,483,o),
(252,460,o),
(219,460,cs),
(187,460,o),
(164,483,o),
(172,529,cs),
(180,575,o),
(211,597,o),
(244,597,cs),
(276,597,o),
(300,575,o),
(292,529,cs)
);
}
);
width = 464;
}
);
note = ordmasculine;
unicode = 186;
},
{
glyphname = guillemotright;
lastChange = "2022-10-20 15:45:51 +0000";
layers = (
{
layerId = m01;
shapes = (
{
closed = 1;
nodes = (
(439,120,l),
(550,295,l),
(501,470,l),
(321,470,l),
(374,295,l),
(259,120,l)
);
},
{
closed = 1;
nodes = (
(199,120,l),
(310,295,l),
(261,470,l),
(81,470,l),
(134,295,l),
(19,120,l)
);
}
);
width = 588;
}
);
note = guillemotright;
unicode = 187;
},
{
glyphname = onequarter;
lastChange = "2022-10-20 15:45:51 +0000";
layers = (
{
layerId = m01;
shapes = (
{
closed = 1;
nodes = (
(37,0,l),
(228,0,l),
(738,705,l),
(548,705,l)
);
},
{
closed = 1;
nodes = (
(732,141,l),
(769,351,l),
(566,351,l),
(385,136,l),
(371,60,l),
(570,60,l),
(560,0,l),
(707,0,l),
(717,60,l),
(755,60,l),
(770,141,l)
);
},
{
closed = 1;
nodes = (
(524,144,l),
(612,258,l),
(592,144,l)
);
},
{
closed = 1;
nodes = (
(105,352,l),
(251,352,l),
(313,704,l),
(104,704,l),
(84,591,l),
(147,591,l)
);
}
);
width = 833;
}
);
note = onequarter;
unicode = 188;
},
{
glyphname = onehalf;
lastChange = "2022-10-20 15:45:51 +0000";
layers = (
{
layerId = m01;
shapes = (
{
closed = 1;
nodes = (
(37,0,l),
(228,0,l),
(743,707,l),
(553,707,l)
);
},
{
closed = 1;
nodes = (
(105,352,l),
(251,352,l),
(313,704,l),
(104,704,l),
(84,591,l),
(147,591,l)
);
},
{
closed = 1;
nodes = (
(592,224,l),
(597,247,o),
(607,259,o),
(621,259,cs),
(632,259,o),
(638,253,o),
(636,242,cs),
(633,221,o),
(613,200,o),
(573,180,cs),
(433,108,l),
(414,-1,l),
(741,-1,l),
(761,112,l),
(589,112,l),
(642,134,ls),
(740,173,o),
(784,205,o),
(792,253,cs),
(802,305,o),
(769,363,o),
(658,363,cs),
(544,363,o),
(466,305,o),
(446,224,c)
);
}
);
width = 874;
}
);
note = onehalf;
unicode = 189;
},
{
glyphname = threequarters;
lastChange = "2022-10-20 15:45:51 +0000";
layers = (
{
layerId = m01;
shapes = (
{
closed = 1;
nodes = (
(169,0,l),
(360,0,l),
(862,707,l),
(671,707,l)
);
},
{
closed = 1;
nodes = (
(865,141,l),
(902,351,l),
(684,351,l),
(517,136,l),
(503,60,l),
(703,60,l),
(693,0,l),
(840,0,l),
(850,60,l),
(887,60,l),
(902,141,l)
);
},
{
closed = 1;
nodes = (
(657,141,l),
(749,274,l),
(726,141,l)
);
},
{
closed = 1;
nodes = (
(244,585,l),
(249,605,o),
(257,614,o),
(272,614,cs),
(286,614,o),
(292,605,o),
(289,591,cs),
(285,570,o),
(273,561,o),
(251,561,cs),
(227,561,l),
(217,506,l),
(249,506,ls),
(270,506,o),
(281,498,o),
(277,477,cs),
(274,458,o),
(262,450,o),
(250,450,cs),
(236,450,o),
(229,457,o),
(231,476,c),
(79,476,l),
(71,399,o),
(109,349,o),
(243,349,cs),
(343,349,o),
(416,385,o),
(427,451,cs),
(435,492,o),
(415,518,o),
(363,532,c),
(363,535,l),
(411,544,o),
(440,568,o),
(447,610,cs),
(458,672,o),
(406,716,o),
(306,716,cs),
(175,716,o),
(118,651,o),
(104,585,c)
);
}
);
width = 957;
}
);
note = threequarters;
unicode = 190;
},
{
glyphname = questiondown;
lastChange = "2022-10-20 15:45:51 +0000";
layers = (
{
layerId = m01;
shapes = (
{
closed = 1;
nodes = (
(300,33,l),
(293,-2,o),
(271,-28,o),
(232,-28,cs),
(200,-28,o),
(182,-8,o),
(187,27,cs),
(196,85,o),
(256,101,o),
(341,101,cs),
(413,101,l),
(442,300,l),
(269,300,l),
(251,227,l),
(121,225,o),
(18,152,o),
(-4,28,cs),
(-30,-115,o),
(59,-188,o),
(199,-188,cs),
(368,-188,o),
(467,-87,o),
(485,33,c)
);
},
{
closed = 1;
nodes = (
(261,419,o),
(298,374,o),
(367,374,cs),
(437,374,o),
(490,419,o),
(500,476,cs),
(510,533,o),
(472,577,o),
(402,577,cs),
(333,577,o),
(281,533,o),
(271,476,cs)
);
}
);
width = 538;
}
);
note = questiondown;
unicode = 191;
},
{
glyphname = Agrave;
lastChange = "2022-10-20 15:45:51 +0000";
layers = (
{
layerId = m01;
shapes = (
{
closed = 1;
nodes = (
(453,0,l),
(660,0,l),
(528,705,l),
(302,705,l),
(-79,0,l),
(127,0,l),
(185,115,l),
(435,115,l)
);
},
{
closed = 1;
nodes = (
(311,844,l),
(544,746,l),
(568,879,l),
(337,992,l)
);
},
{
closed = 1;
nodes = (
(412,265,l),
(261,265,l),
(376,493,l)
);
}
);
width = 755;
}
);
note = Agrave;
unicode = 192;
},
{
glyphname = Aacute;
lastChange = "2022-10-20 15:45:51 +0000";
layers = (
{
layerId = m01;
shapes = (
{
closed = 1;
nodes = (
(453,0,l),
(660,0,l),
(528,705,l),
(302,705,l),
(-79,0,l),
(127,0,l),
(185,115,l),
(435,115,l)
);
},
{
closed = 1;
nodes = (
(318,879,l),
(294,746,l),
(561,844,l),
(587,992,l)
);
},
{
closed = 1;
nodes = (
(412,265,l),
(261,265,l),
(376,493,l)
);
}
);
width = 755;
}
);
note = Aacute;
unicode = 193;
},
{
glyphname = Acircumflex;
lastChange = "2022-10-20 15:45:51 +0000";
layers = (
{
layerId = m01;
shapes = (
{
closed = 1;
nodes = (
(456,0,l),
(663,0,l),
(531,705,l),
(305,705,l),
(-76,0,l),
(130,0,l),
(188,115,l),
(438,115,l)
);
},
{
closed = 1;
nodes = (
(608,877,l),
(462,954,l),
(288,877,l),
(264,746,l),
(440,826,l),
(584,746,l)
);
},
{
closed = 1;
nodes = (
(416,265,l),
(265,265,l),
(380,493,l)
);
}
);
width = 755;
}
);
note = Acircumflex;
unicode = 194;
},
{
glyphname = Atilde;
lastChange = "2022-10-20 15:45:51 +0000";
layers = (
{
layerId = m01;
shapes = (
{
closed = 1;
nodes = (
(460,0,l),
(667,0,l),
(535,705,l),
(309,705,l),
(-72,0,l),
(134,0,l),
(192,115,l),
(442,115,l)
);
},
{
closed = 1;
nodes = (
(310,750,l),
(321,782,o),
(339,796,o),
(363,796,cs),
(403,796,o),
(430,751,o),
(492,751,cs),
(568,751,o),
(630,796,o),
(670,913,c),
(571,913,l),
(561,882,o),
(543,867,o),
(519,867,cs),
(479,867,o),
(452,913,o),
(390,913,cs),
(314,913,o),
(252,867,o),
(212,750,c)
);
},
{
closed = 1;
nodes = (
(419,265,l),
(268,265,l),
(383,493,l)
);
}
);
width = 755;
}
);
note = Atilde;
unicode = 195;
},
{
glyphname = Adieresis;
lastChange = "2022-10-20 15:45:51 +0000";
layers = (
{
layerId = m01;
shapes = (
{
closed = 1;
nodes = (
(458,0,l),
(665,0,l),
(534,705,l),
(308,705,l),
(-74,0,l),
(132,0,l),
(191,115,l),
(441,115,l)
);
},
{
closed = 1;
nodes = (
(371,767,o),
(412,801,o),
(419,846,cs),
(428,892,o),
(399,927,o),
(353,927,cs),
(308,927,o),
(268,892,o),
(259,846,cs),
(252,801,o),
(280,767,o),
(325,767,cs)
);
},
{
closed = 1;
nodes = (
(584,767,o),
(624,801,o),
(631,846,cs),
(640,892,o),
(612,927,o),
(566,927,cs),
(521,927,o),
(481,892,o),
(472,846,cs),
(465,801,o),
(493,767,o),
(538,767,cs)
);
},
{
closed = 1;
nodes = (
(418,265,l),
(267,265,l),
(382,493,l)
);
}
);
width = 755;
}
);
note = Adieresis;
unicode = 196;
},
{
glyphname = Aring;
lastChange = "2022-10-20 15:45:51 +0000";
layers = (
{
layerId = m01;
shapes = (
{
closed = 1;
nodes = (
(452,0,l),
(659,0,l),
(527,705,l),
(301,705,l),
(-80,0,l),
(126,0,l),
(184,115,l),
(434,115,l)
);
},
{
closed = 1;
nodes = (
(409,822,o),
(391,841,o),
(397,870,cs),
(402,899,o),
(426,918,o),
(452,918,cs),
(478,918,o),
(495,899,o),
(490,870,cs),
(484,841,o),
(461,822,o),
(435,822,cs)
);
},
{
closed = 1;
nodes = (
(395,996,o),
(329,948,o),
(315,869,cs),
(302,791,o),
(350,743,o),
(421,743,cs),
(491,743,o),
(557,791,o),
(570,869,cs),
(584,948,o),
(536,996,o),
(466,996,cs)
);
},
{
closed = 1;
nodes = (
(412,265,l),
(261,265,l),
(376,493,l)
);
}
);
width = 755;
}
);
note = Aring;
unicode = 197;
},
{
glyphname = AE;
lastChange = "2022-10-20 15:45:51 +0000";
layers = (
{
layerId = m01;
shapes = (
{
closed = 1;
nodes = (
(522,556,l),
(469,256,l),
(323,256,l)
);
},
{
closed = 1;
nodes = (
(964,550,l),
(991,705,l),
(414,705,l),
(-59,0,l),
(154,0,l),
(225,108,l),
(443,108,l),
(424,0,l),
(867,0,l),
(894,156,l),
(647,156,l),
(670,287,l),
(887,287,l),
(914,435,l),
(697,435,l),
(717,550,l)
);
}
);
width = 971;
}
);
note = AE;
unicode = 198;
},
{
glyphname = Ccedilla;
lastChange = "2022-10-20 15:45:51 +0000";
layers = (
{
layerId = m01;
shapes = (
{
closed = 1;
nodes = (
(22,161,o),
(113,21,o),
(290,-2,c),
(268,-129,l),
(346,-129,ls),
(367,-129,o),
(378,-135,o),
(375,-150,cs),
(372,-164,o),
(359,-171,o),
(338,-171,cs),
(198,-171,l),
(180,-274,l),
(343,-274,ls),
(411,-274,o),
(493,-244,o),
(509,-155,cs),
(525,-66,o),
(454,-37,o),
(400,-37,c),
(406,-1,l),
(554,21,o),
(672,116,o),
(728,257,c),
(517,257,l),
(482,204,o),
(430,175,o),
(372,175,cs),
(282,175,o),
(236,245,o),
(255,354,cs),
(274,462,o),
(345,532,o),
(435,532,cs),
(493,532,o),
(535,503,o),
(551,450,c),
(762,450,l),
(755,610,o),
(647,712,o),
(470,712,cs),
(258,712,o),
(93,564,o),
(56,354,cs)
);
}
);
width = 758;
}
);
note = Ccedilla;
unicode = 199;
},
{
glyphname = Egrave;
lastChange = "2022-10-20 15:45:51 +0000";
layers = (
{
layerId = m01;
shapes = (
{
closed = 1;
nodes = (
(544,705,l),
(93,705,l),
(-31,0,l),
(420,0,l),
(447,157,l),
(192,157,l),
(215,284,l),
(440,284,l),
(466,433,l),
(241,433,l),
(261,548,l),
(516,548,l)
);
},
{
closed = 1;
nodes = (
(210,844,l),
(443,746,l),
(467,879,l),
(236,992,l)
);
}
);
width = 548;
}
);
note = Egrave;
unicode = 200;
},
{
glyphname = Eacute;
lastChange = "2022-10-20 15:45:51 +0000";
layers = (
{
layerId = m01;
shapes = (
{
closed = 1;
nodes = (
(544,705,l),
(93,705,l),
(-31,0,l),
(420,0,l),
(447,157,l),
(192,157,l),
(215,284,l),
(440,284,l),
(466,433,l),
(241,433,l),
(261,548,l),
(516,548,l)
);
},
{
closed = 1;
nodes = (
(217,879,l),
(193,746,l),
(460,844,l),
(486,992,l)
);
}
);
width = 548;
}
);
note = Eacute;
unicode = 201;
},
{
glyphname = Ecircumflex;
lastChange = "2022-10-20 15:45:51 +0000";
layers = (
{
layerId = m01;
shapes = (
{
closed = 1;
nodes = (
(547,705,l),
(96,705,l),
(-28,0,l),
(423,0,l),
(451,157,l),
(196,157,l),
(218,284,l),
(443,284,l),
(469,433,l),
(244,433,l),
(265,548,l),
(520,548,l)
);
},
{
closed = 1;
nodes = (
(508,877,l),
(362,954,l),
(188,877,l),
(164,746,l),
(340,826,l),
(484,746,l)
);
}
);
width = 548;
}
);
note = Ecircumflex;
unicode = 202;
},
{
glyphname = Edieresis;
lastChange = "2022-10-20 15:45:51 +0000";
layers = (
{
layerId = m01;
shapes = (
{
closed = 1;
nodes = (
(550,705,l),
(99,705,l),
(-26,0,l),
(425,0,l),
(453,157,l),
(198,157,l),
(220,284,l),
(445,284,l),
(472,433,l),
(247,433,l),
(267,548,l),
(522,548,l)
);
},
{
closed = 1;
nodes = (
(270,767,o),
(311,801,o),
(318,846,cs),
(327,892,o),
(298,927,o),
(252,927,cs),
(207,927,o),
(167,892,o),
(158,846,cs),
(151,801,o),
(179,767,o),
(224,767,cs)
);
},
{
closed = 1;
nodes = (
(483,767,o),
(523,801,o),
(530,846,cs),
(539,892,o),
(511,927,o),
(465,927,cs),
(420,927,o),
(380,892,o),
(371,846,cs),
(364,801,o),
(392,767,o),
(437,767,cs)
);
}
);
width = 548;
}
);
note = Edieresis;
unicode = 203;
},
{
glyphname = Igrave;
lastChange = "2022-10-20 15:45:51 +0000";
layers = (
{
layerId = m01;
shapes = (
{
closed = 1;
nodes = (
(-31,0,l),
(165,0,l),
(289,705,l),
(93,705,l)
);
},
{
closed = 1;
nodes = (
(88,844,l),
(321,746,l),
(345,879,l),
(114,992,l)
);
}
);
width = 308;
}
);
note = Igrave;
unicode = 204;
},
{
glyphname = Iacute;
lastChange = "2022-10-20 15:45:51 +0000";
layers = (
{
layerId = m01;
shapes = (
{
closed = 1;
nodes = (
(-31,0,l),
(165,0,l),
(289,705,l),
(93,705,l)
);
},
{
closed = 1;
nodes = (
(95,879,l),
(71,746,l),
(338,844,l),
(364,992,l)
);
}
);
width = 308;
}
);
note = Iacute;
unicode = 205;
},
{
glyphname = Icircumflex;
lastChange = "2022-10-20 15:45:51 +0000";
layers = (
{
layerId = m01;
shapes = (
{
closed = 1;
nodes = (
(-28,0,l),
(168,0,l),
(292,705,l),
(96,705,l)
);
},
{
closed = 1;
nodes = (
(385,877,l),
(239,954,l),
(65,877,l),
(41,746,l),
(217,826,l),
(361,746,l)
);
}
);
width = 308;
}
);
note = Icircumflex;
unicode = 206;
},
{
glyphname = Idieresis;
lastChange = "2022-10-20 15:45:51 +0000";
layers = (
{
layerId = m01;
shapes = (
{
closed = 1;
nodes = (
(-26,0,l),
(170,0,l),
(295,705,l),
(99,705,l)
);
},
{
closed = 1;
nodes = (
(147,767,o),
(188,801,o),
(195,846,cs),
(204,892,o),
(175,927,o),
(129,927,cs),
(84,927,o),
(44,892,o),
(35,846,cs),
(28,801,o),
(56,767,o),
(101,767,cs)
);
},
{
closed = 1;
nodes = (
(360,767,o),
(400,801,o),
(407,846,cs),
(416,892,o),
(388,927,o),
(342,927,cs),
(297,927,o),
(257,892,o),
(248,846,cs),
(241,801,o),
(269,767,o),
(314,767,cs)
);
}
);
width = 308;
}
);
note = Idieresis;
unicode = 207;
},
{
glyphname = Eth;
lastChange = "2022-10-20 15:45:51 +0000";
layers = (
{
layerId = m01;
shapes = (
{
closed = 1;
nodes = (
(120,705,l),
(72,433,l),
(16,433,l),
(-12,274,l),
(44,274,l),
(-4,0,l),
(276,0,ls),
(501,0,o),
(670,149,o),
(706,353,cs),
(743,560,o),
(625,705,o),
(400,705,cs)
);
},
{
closed = 1;
nodes = (
(223,172,l),
(241,274,l),
(383,274,l),
(411,433,l),
(269,433,l),
(287,535,l),
(354,535,ls),
(468,535,o),
(527,470,o),
(506,353,cs),
(486,237,o),
(404,172,o),
(290,172,cs)
);
}
);
width = 738;
}
);
note = Eth;
unicode = 208;
},
{
glyphname = Ntilde;
lastChange = "2022-10-20 15:45:51 +0000";
layers = (
{
layerId = m01;
shapes = (
{
closed = 1;
nodes = (
(557,705,l),
(486,306,l),
(296,705,l),
(100,705,l),
(-24,0,l),
(172,0,l),
(241,394,l),
(433,0,l),
(629,0,l),
(753,705,l)
);
},
{
closed = 1;
nodes = (
(315,750,l),
(326,782,o),
(344,796,o),
(368,796,cs),
(408,796,o),
(435,751,o),
(497,751,cs),
(573,751,o),
(635,796,o),
(675,913,c),
(576,913,l),
(566,882,o),
(548,867,o),
(524,867,cs),
(484,867,o),
(457,913,o),
(395,913,cs),
(319,913,o),
(257,867,o),
(217,750,c)
);
}
);
width = 765;
}
);
note = Ntilde;
unicode = 209;
},
{
glyphname = Ograve;
lastChange = "2022-10-20 15:45:51 +0000";
layers = (
{
layerId = m01;
shapes = (
{
closed = 1;
nodes = (
(768,567,o),
(634,716,o),
(433,716,cs),
(233,716,o),
(45,567,o),
(8,355,cs),
(-30,143,o),
(106,-7,o),
(306,-7,cs),
(506,-7,o),
(693,143,o),
(731,355,cs)
);
},
{
closed = 1;
nodes = (
(227,466,o),
(300,536,o),
(402,536,cs),
(503,536,o),
(551,466,o),
(532,355,cs),
(513,246,o),
(439,175,o),
(338,175,cs),
(236,175,o),
(189,246,o),
(208,355,cs)
);
},
{
closed = 1;
nodes = (
(328,844,l),
(561,746,l),
(584,879,l),
(354,992,l)
);
}
);
width = 787;
}
);
note = Ograve;
unicode = 210;
},
{
glyphname = Oacute;
lastChange = "2022-10-20 15:45:51 +0000";
layers = (
{
layerId = m01;
shapes = (
{
closed = 1;
nodes = (
(768,567,o),
(634,716,o),
(433,716,cs),
(233,716,o),
(45,567,o),
(8,355,cs),
(-30,143,o),
(106,-7,o),
(306,-7,cs),
(506,-7,o),
(693,143,o),
(731,355,cs)
);
},
{
closed = 1;
nodes = (
(227,466,o),
(300,536,o),
(402,536,cs),
(503,536,o),
(551,466,o),
(532,355,cs),
(513,246,o),
(439,175,o),
(338,175,cs),
(236,175,o),
(189,246,o),
(208,355,cs)
);
},
{
closed = 1;
nodes = (
(334,879,l),
(311,746,l),
(578,844,l),
(604,992,l)
);
}
);
width = 787;
}
);
note = Oacute;
unicode = 211;
},
{
glyphname = Ocircumflex;
lastChange = "2022-10-20 15:45:51 +0000";
layers = (
{
layerId = m01;
shapes = (
{
closed = 1;
nodes = (
(771,567,o),
(638,716,o),
(437,716,cs),
(237,716,o),
(48,567,o),
(11,355,cs),
(-26,143,o),
(109,-7,o),
(309,-7,cs),
(509,-7,o),
(697,143,o),
(734,355,cs)
);
},
{
closed = 1;
nodes = (
(231,466,o),
(303,536,o),
(405,536,cs),
(506,536,o),
(555,466,o),
(535,355,cs),
(516,246,o),
(442,175,o),
(341,175,cs),
(239,175,o),
(192,246,o),
(211,355,cs)
);
},
{
closed = 1;
nodes = (
(625,877,l),
(480,954,l),
(305,877,l),
(282,746,l),
(457,826,l),
(602,746,l)
);
}
);
width = 787;
}
);
note = Ocircumflex;
unicode = 212;
},
{
glyphname = Otilde;
lastChange = "2022-10-20 15:45:51 +0000";
layers = (
{
layerId = m01;
shapes = (
{
closed = 1;
nodes = (
(775,567,o),
(641,716,o),
(440,716,cs),
(240,716,o),
(52,567,o),
(15,355,cs),
(-23,143,o),
(113,-7,o),
(313,-7,cs),
(513,-7,o),
(700,143,o),
(738,355,cs)
);
},
{
closed = 1;
nodes = (
(234,466,o),
(307,536,o),
(409,536,cs),
(510,536,o),
(558,466,o),
(539,355,cs),
(520,246,o),
(446,175,o),
(345,175,cs),
(243,175,o),
(196,246,o),
(215,355,cs)
);
},
{
closed = 1;
nodes = (
(327,750,l),
(339,782,o),
(356,796,o),
(380,796,cs),
(420,796,o),
(448,751,o),
(510,751,cs),
(586,751,o),
(647,796,o),
(688,913,c),
(589,913,l),
(579,882,o),
(561,867,o),
(537,867,cs),
(497,867,o),
(470,913,o),
(408,913,cs),
(332,913,o),
(270,867,o),
(229,750,c)
);
}
);
width = 787;
}
);
note = Otilde;
unicode = 213;
},
{
glyphname = Odieresis;
lastChange = "2022-10-20 15:45:51 +0000";
layers = (
{
layerId = m01;
shapes = (
{
closed = 1;
nodes = (
(774,567,o),
(640,716,o),
(439,716,cs),
(239,716,o),
(51,567,o),
(13,355,cs),
(-24,143,o),
(112,-7,o),
(312,-7,cs),
(512,-7,o),
(699,143,o),
(736,355,cs)
);
},
{
closed = 1;
nodes = (
(233,466,o),
(305,536,o),
(407,536,cs),
(508,536,o),
(557,466,o),
(537,355,cs),
(518,246,o),
(445,175,o),
(344,175,cs),
(242,175,o),
(194,246,o),
(213,355,cs)
);
},
{
closed = 1;
nodes = (
(387,767,o),
(428,801,o),
(436,846,cs),
(444,892,o),
(415,927,o),
(369,927,cs),
(324,927,o),
(284,892,o),
(276,846,cs),
(268,801,o),
(296,767,o),
(341,767,cs)
);
},
{
closed = 1;
nodes = (
(600,767,o),
(640,801,o),
(648,846,cs),
(656,892,o),
(628,927,o),
(582,927,cs),
(537,927,o),
(497,892,o),
(489,846,cs),
(481,801,o),
(509,767,o),
(554,767,cs)
);
}
);
width = 787;
}
);
note = Odieresis;
unicode = 214;
},
{
glyphname = multiply;
lastChange = "2022-10-20 15:45:51 +0000";
layers = (
{
layerId = m01;
shapes = (
{
closed = 1;
nodes = (
(126,93,l),
(280,225,l),
(390,92,l),
(541,220,l),
(431,354,l),
(578,480,l),
(473,606,l),
(326,481,l),
(223,606,l),
(71,478,l),
(175,351,l),
(21,219,l)
);
}
);
width = 609;
}
);
note = multiply;
unicode = 215;
},
{
glyphname = Oslash;
lastChange = "2022-10-20 15:45:51 +0000";
layers = (
{
layerId = m01;
shapes = (
{
closed = 1;
nodes = (
(771,451,o),
(753,535,o),
(709,597,c),
(828,708,l),
(719,708,l),
(658,651,l),
(606,693,o),
(537,716,o),
(457,716,cs),
(257,716,o),
(68,567,o),
(31,355,cs),
(14,258,o),
(33,175,o),
(77,112,c),
(-42,1,l),
(68,1,l),
(129,58,l),
(181,16,o),
(250,-7,o),
(329,-7,cs),
(529,-7,o),
(717,143,o),
(754,355,cs)
);
},
{
closed = 1;
nodes = (
(251,466,o),
(323,536,o),
(425,536,cs),
(459,536,o),
(488,528,o),
(509,513,c),
(234,258,l),
(226,285,o),
(225,318,o),
(231,355,cs)
);
},
{
closed = 1;
nodes = (
(327,175,o),
(300,183,o),
(278,197,c),
(552,452,l),
(560,425,o),
(562,392,o),
(555,355,cs),
(536,246,o),
(462,175,o),
(361,175,cs)
);
}
);
width = 787;
}
);
note = Oslash;
unicode = 216;
},
{
glyphname = Ugrave;
lastChange = "2022-10-20 15:45:51 +0000";
layers = (
{
layerId = m01;
shapes = (
{
closed = 1;
nodes = (
(18,296,ls),
(-17,95,o),
(93,-7,o),
(263,-7,cs),
(432,-7,o),
(590,95,o),
(625,296,cs),
(697,705,l),
(501,705,l),
(429,296,ls),
(416,223,o),
(373,177,o),
(299,177,cs),
(225,177,o),
(200,223,o),
(213,296,cs),
(285,705,l),
(90,705,l)
);
},
{
closed = 1;
nodes = (
(291,844,l),
(524,746,l),
(547,879,l),
(317,992,l)
);
}
);
width = 712;
}
);
note = Ugrave;
unicode = 217;
},
{
glyphname = Uacute;
lastChange = "2022-10-20 15:45:51 +0000";
layers = (
{
layerId = m01;
shapes = (
{
closed = 1;
nodes = (
(18,296,ls),
(-17,95,o),
(93,-7,o),
(263,-7,cs),
(432,-7,o),
(590,95,o),
(625,296,cs),
(697,705,l),
(501,705,l),
(429,296,ls),
(416,223,o),
(373,177,o),
(299,177,cs),
(225,177,o),
(200,223,o),
(213,296,cs),
(285,705,l),
(90,705,l)
);
},
{
closed = 1;
nodes = (
(297,879,l),
(274,746,l),
(541,844,l),
(567,992,l)
);
}
);
width = 712;
}
);
note = Uacute;
unicode = 218;
},
{
glyphname = Ucircumflex;
lastChange = "2022-10-20 15:45:51 +0000";
layers = (
{
layerId = m01;
shapes = (
{
closed = 1;
nodes = (
(22,296,ls),
(-14,95,o),
(96,-7,o),
(266,-7,cs),
(435,-7,o),
(593,95,o),
(629,296,cs),
(701,705,l),
(505,705,l),
(433,296,ls),
(420,223,o),
(377,177,o),
(303,177,cs),
(229,177,o),
(204,223,o),
(217,296,cs),
(289,705,l),
(94,705,l)
);
},
{
closed = 1;
nodes = (
(587,877,l),
(442,954,l),
(267,877,l),
(244,746,l),
(419,826,l),
(564,746,l)
);
}
);
width = 712;
}
);
note = Ucircumflex;
unicode = 219;
},
{
glyphname = Udieresis;
lastChange = "2022-10-20 15:45:51 +0000";
layers = (
{
layerId = m01;
shapes = (
{
closed = 1;
nodes = (
(24,296,ls),
(-11,95,o),
(99,-7,o),
(269,-7,cs),
(438,-7,o),
(596,95,o),
(631,296,cs),
(703,705,l),
(507,705,l),
(435,296,ls),
(422,223,o),
(379,177,o),
(305,177,cs),
(231,177,o),
(206,223,o),
(219,296,cs),
(291,705,l),
(96,705,l)
);
},
{
closed = 1;
nodes = (
(349,767,o),
(390,801,o),
(398,846,cs),
(406,892,o),
(377,927,o),
(331,927,cs),
(286,927,o),
(246,892,o),
(238,846,cs),
(230,801,o),
(258,767,o),
(303,767,cs)
);
},
{
closed = 1;
nodes = (
(562,767,o),
(602,801,o),
(610,846,cs),
(618,892,o),
(590,927,o),
(544,927,cs),
(499,927,o),
(459,892,o),
(451,846,cs),
(443,801,o),
(471,767,o),
(516,767,cs)
);
}
);
width = 712;
}
);
note = Udieresis;
unicode = 220;
},
{
glyphname = Yacute;
lastChange = "2022-10-20 15:45:51 +0000";
layers = (
{
layerId = m01;
shapes = (
{
closed = 1;
nodes = (
(204,224,l),
(165,0,l),
(362,0,l),
(401,224,l),
(734,705,l),
(513,705,l),
(341,433,l),
(265,705,l),
(41,705,l)
);
},
{
closed = 1;
nodes = (
(291,879,l),
(267,746,l),
(534,844,l),
(560,992,l)
);
}
);
width = 701;
}
);
note = Yacute;
unicode = 221;
},
{
glyphname = Thorn;
lastChange = "2022-10-20 15:45:51 +0000";
layers = (
{
layerId = m01;
shapes = (
{
closed = 1;
nodes = (
(239,276,l),
(266,431,l),
(344,431,ls),
(403,431,o),
(421,400,o),
(413,353,cs),
(405,307,o),
(376,276,o),
(317,276,cs)
);
},
{
closed = 1;
nodes = (
(636,485,o),
(564,580,o),
(389,580,cs),
(291,580,l),
(313,705,l),
(118,705,l),
(-6,0,l),
(190,0,l),
(213,129,l),
(310,129,ls),
(489,129,o),
(592,234,o),
(613,353,cs)
);
}
);
width = 636;
}
);
note = Thorn;
unicode = 222;
},
{
glyphname = germandbls;
lastChange = "2022-10-20 15:45:51 +0000";
layers = (
{
layerId = m01;
shapes = (
{
closed = 1;
nodes = (
(-21,0,l),
(174,0,l),
(264,510,ls),
(274,567,o),
(314,603,o),
(375,603,cs),
(423,603,o),
(452,581,o),
(446,545,cs),
(436,490,o),
(327,441,o),
(313,362,cs),
(303,302,o),
(342,268,o),
(449,226,cs),
(512,201,o),
(522,187,o),
(518,164,cs),
(514,141,o),
(495,128,o),
(469,128,cs),
(436,128,o),
(415,151,o),
(415,184,c),
(239,184,l),
(238,59,o),
(311,-10,o),
(449,-10,cs),
(583,-10,o),
(686,63,o),
(705,173,cs),
(719,254,o),
(686,300,o),
(590,340,cs),
(520,370,o),
(511,380,o),
(514,396,cs),
(520,431,o),
(628,477,o),
(646,579,cs),
(664,682,o),
(570,765,o),
(414,765,cs),
(237,765,o),
(98,671,o),
(71,522,cs)
);
}
);
width = 788;
}
);
note = germandbls;
unicode = 223;
},
{
glyphname = agrave;
lastChange = "2022-10-20 15:45:51 +0000";
layers = (
{
layerId = m01;
shapes = (
{
closed = 1;
nodes = (
(-32,102,o),
(55,-7,o),
(188,-7,cs),
(267,-7,o),
(330,28,o),
(368,78,c),
(354,0,l),
(550,0,l),
(649,561,l),
(453,561,l),
(439,483,l),
(419,533,o),
(369,568,o),
(289,568,cs),
(156,568,o),
(31,460,o),
(0,281,cs)
);
},
{
closed = 1;
nodes = (
(390,205,o),
(336,164,o),
(281,164,cs),
(225,164,o),
(186,206,o),
(200,281,cs),
(213,357,o),
(266,397,o),
(322,397,cs),
(377,397,o),
(417,356,o),
(404,281,cs)
);
},
{
closed = 1;
nodes = (
(266,697,l),
(499,599,l),
(522,732,l),
(292,845,l)
);
}
);
width = 680;
}
);
note = agrave;
unicode = 224;
},
{
glyphname = aacute;
lastChange = "2022-10-20 15:45:51 +0000";
layers = (
{
layerId = m01;
shapes = (
{
closed = 1;
nodes = (
(-32,102,o),
(55,-7,o),
(188,-7,cs),
(267,-7,o),
(330,28,o),
(368,78,c),
(354,0,l),
(550,0,l),
(649,561,l),
(453,561,l),
(439,483,l),
(419,533,o),
(369,568,o),
(289,568,cs),
(156,568,o),
(31,460,o),
(0,281,cs)
);
},
{
closed = 1;
nodes = (
(390,205,o),
(336,164,o),
(281,164,cs),
(225,164,o),
(186,206,o),
(200,281,cs),
(213,357,o),
(266,397,o),
(322,397,cs),
(377,397,o),
(417,356,o),
(404,281,cs)
);
},
{
closed = 1;
nodes = (
(272,732,l),
(249,599,l),
(516,697,l),
(542,845,l)
);
}
);
width = 680;
}
);
note = aacute;
unicode = 225;
},
{
glyphname = acircumflex;
lastChange = "2022-10-20 15:45:51 +0000";
layers = (
{
layerId = m01;
shapes = (
{
closed = 1;
nodes = (
(-29,102,o),
(58,-7,o),
(191,-7,cs),
(270,-7,o),
(333,28,o),
(371,78,c),
(357,0,l),
(553,0,l),
(652,561,l),
(456,561,l),
(443,483,l),
(422,533,o),
(373,568,o),
(293,568,cs),
(160,568,o),
(35,460,o),
(3,281,cs)
);
},
{
closed = 1;
nodes = (
(394,205,o),
(339,164,o),
(284,164,cs),
(228,164,o),
(190,206,o),
(203,281,cs),
(216,357,o),
(269,397,o),
(325,397,cs),
(380,397,o),
(420,356,o),
(407,281,cs)
);
},
{
closed = 1;
nodes = (
(563,730,l),
(418,807,l),
(243,730,l),
(220,599,l),
(395,679,l),
(540,599,l)
);
}
);
width = 680;
}
);
note = acircumflex;
unicode = 226;
},
{
glyphname = atilde;
lastChange = "2022-10-20 15:45:51 +0000";
layers = (
{
layerId = m01;
shapes = (
{
closed = 1;
nodes = (
(-25,102,o),
(62,-7,o),
(195,-7,cs),
(274,-7,o),
(337,28,o),
(375,78,c),
(361,0,l),
(557,0,l),
(656,561,l),
(460,561,l),
(446,483,l),
(426,533,o),
(376,568,o),
(296,568,cs),
(163,568,o),
(38,460,o),
(7,281,cs)
);
},
{
closed = 1;
nodes = (
(397,205,o),
(343,164,o),
(288,164,cs),
(232,164,o),
(193,206,o),
(207,281,cs),
(220,357,o),
(273,397,o),
(329,397,cs),
(384,397,o),
(424,356,o),
(411,281,cs)
);
},
{
closed = 1;
nodes = (
(264,603,l),
(276,635,o),
(294,649,o),
(318,649,cs),
(358,649,o),
(385,604,o),
(447,604,cs),
(523,604,o),
(585,649,o),
(625,766,c),
(526,766,l),
(516,735,o),
(498,720,o),
(474,720,cs),
(434,720,o),
(407,766,o),
(345,766,cs),
(269,766,o),
(207,720,o),
(166,603,c)
);
}
);
width = 680;
}
);
note = atilde;
unicode = 227;
},
{
glyphname = adieresis;
lastChange = "2022-10-20 15:45:51 +0000";
layers = (
{
layerId = m01;
shapes = (
{
closed = 1;
nodes = (
(-26,102,o),
(61,-7,o),
(194,-7,cs),
(273,-7,o),
(336,28,o),
(374,78,c),
(360,0,l),
(556,0,l),
(655,561,l),
(459,561,l),
(445,483,l),
(425,533,o),
(375,568,o),
(295,568,cs),
(162,568,o),
(37,460,o),
(5,281,cs)
);
},
{
closed = 1;
nodes = (
(396,205,o),
(342,164,o),
(287,164,cs),
(231,164,o),
(192,206,o),
(205,281,cs),
(219,357,o),
(272,397,o),
(328,397,cs),
(383,397,o),
(423,356,o),
(409,281,cs)
);
},
{
closed = 1;
nodes = (
(325,620,o),
(366,654,o),
(374,699,cs),
(382,745,o),
(353,780,o),
(307,780,cs),
(262,780,o),
(222,745,o),
(214,699,cs),
(206,654,o),
(234,620,o),
(279,620,cs)
);
},
{
closed = 1;
nodes = (
(538,620,o),
(578,654,o),
(586,699,cs),
(594,745,o),
(566,780,o),
(520,780,cs),
(475,780,o),
(435,745,o),
(427,699,cs),
(419,654,o),
(447,620,o),
(492,620,cs)
);
}
);
width = 680;
}
);
note = adieresis;
unicode = 228;
},
{
glyphname = aring;
lastChange = "2022-10-20 15:45:51 +0000";
layers = (
{
layerId = m01;
shapes = (
{
closed = 1;
nodes = (
(-32,102,o),
(55,-7,o),
(188,-7,cs),
(267,-7,o),
(330,28,o),
(368,78,c),
(354,0,l),
(550,0,l),
(649,561,l),
(453,561,l),
(439,483,l),
(419,533,o),
(369,568,o),
(289,568,cs),
(156,568,o),
(31,460,o),
(-1,281,cs)
);
},
{
closed = 1;
nodes = (
(390,205,o),
(336,164,o),
(281,164,cs),
(225,164,o),
(186,206,o),
(199,281,cs),
(213,357,o),
(266,397,o),
(322,397,cs),
(377,397,o),
(417,356,o),
(403,281,cs)
);
},
{
closed = 1;
nodes = (
(350,849,o),
(285,801,o),
(271,722,cs),
(257,644,o),
(306,596,o),
(377,596,cs),
(447,596,o),
(512,644,o),
(526,722,cs),
(540,801,o),
(491,849,o),
(421,849,cs)
);
},
{
closed = 1;
nodes = (
(365,675,o),
(347,694,o),
(352,723,cs),
(357,752,o),
(382,771,o),
(408,771,cs),
(434,771,o),
(450,752,o),
(445,723,cs),
(440,694,o),
(417,675,o),
(391,675,cs)
);
}
);
width = 680;
}
);
note = aring;
unicode = 229;
},
{
glyphname = ae;
lastChange = "2022-10-20 15:45:51 +0000";
layers = (
{
layerId = m01;
shapes = (
{
closed = 1;
nodes = (
(813,413,o),
(855,385,o),
(847,330,c),
(639,330,l),
(660,390,o),
(708,413,o),
(758,413,cs)
);
},
{
closed = 1;
nodes = (
(801,194,l),
(784,167,o),
(754,148,o),
(706,148,cs),
(658,148,o),
(620,173,o),
(623,242,c),
(1026,242,l),
(1032,257,o),
(1036,273,o),
(1038,288,cs),
(1069,460,o),
(988,568,o),
(845,568,cs),
(765,568,o),
(701,539,o),
(657,484,c),
(670,561,l),
(478,561,l),
(465,484,l),
(442,537,o),
(392,568,o),
(316,568,cs),
(181,568,o),
(56,460,o),
(24,281,cs),
(-7,102,o),
(79,-7,o),
(212,-7,cs),
(290,-7,o),
(353,27,o),
(393,78,c),
(380,0,l),
(572,0,l),
(585,78,l),
(607,26,o),
(662,-7,o),
(743,-7,cs),
(863,-7,o),
(963,79,o),
(1010,194,c)
);
},
{
closed = 1;
nodes = (
(237,357,o),
(291,397,o),
(347,397,cs),
(402,397,o),
(441,356,o),
(428,281,cs),
(415,205,o),
(360,164,o),
(305,164,cs),
(249,164,o),
(211,206,o),
(224,281,cs)
);
}
);
width = 1061;
}
);
note = ae;
unicode = 230;
},
{
glyphname = ccedilla;
lastChange = "2022-10-20 15:45:51 +0000";
layers = (
{
layerId = m01;
shapes = (
{
closed = 1;
nodes = (
(20,124,o),
(93,20,o),
(224,-2,c),
(201,-129,l),
(279,-129,ls),
(300,-129,o),
(311,-135,o),
(309,-150,cs),
(306,-164,o),
(293,-171,o),
(272,-171,cs),
(132,-171,l),
(114,-274,l),
(277,-274,ls),
(345,-274,o),
(427,-244,o),
(443,-155,cs),
(458,-66,o),
(388,-37,o),
(334,-37,c),
(340,-2,l),
(455,18,o),
(549,96,o),
(594,215,c),
(386,215,l),
(369,180,o),
(343,160,o),
(306,160,cs),
(258,160,o),
(233,200,o),
(248,281,cs),
(262,361,o),
(301,401,o),
(349,401,cs),
(386,401,o),
(404,380,o),
(409,346,c),
(617,346,l),
(614,487,o),
(524,568,o),
(382,568,cs),
(215,568,o),
(79,459,o),
(48,281,cs)
);
}
);
width = 607;
}
);
note = ccedilla;
unicode = 231;
},
{
glyphname = egrave;
lastChange = "2022-10-20 15:45:51 +0000";
layers = (
{
layerId = m01;
shapes = (
{
closed = 1;
nodes = (
(352,413,o),
(386,386,o),
(377,336,c),
(204,336,l),
(222,387,o),
(260,413,o),
(307,413,cs)
);
},
{
closed = 1;
nodes = (
(331,194,l),
(316,171,o),
(291,150,o),
(253,150,cs),
(209,150,o),
(179,176,o),
(186,241,c),
(557,241,l),
(562,256,o),
(566,272,o),
(568,287,cs),
(599,461,o),
(501,568,o),
(335,568,cs),
(167,568,o),
(31,459,o),
(-1,281,cs),
(-32,102,o),
(67,-7,o),
(233,-7,cs),
(373,-7,o),
(494,79,o),
(540,194,c)
);
},
{
closed = 1;
nodes = (
(229,702,l),
(462,604,l),
(486,737,l),
(256,850,l)
);
}
);
width = 616;
}
);
note = egrave;
unicode = 232;
},
{
glyphname = eacute;
lastChange = "2022-10-20 15:45:51 +0000";
layers = (
{
layerId = m01;
shapes = (
{
closed = 1;
nodes = (
(352,413,o),
(386,386,o),
(377,336,c),
(204,336,l),
(222,387,o),
(260,413,o),
(307,413,cs)
);
},
{
closed = 1;
nodes = (
(331,194,l),
(316,171,o),
(291,150,o),
(253,150,cs),
(209,150,o),
(179,176,o),
(186,241,c),
(557,241,l),
(562,256,o),
(566,272,o),
(568,287,cs),
(599,461,o),
(501,568,o),
(335,568,cs),
(167,568,o),
(31,459,o),
(-1,281,cs),
(-32,102,o),
(67,-7,o),
(233,-7,cs),
(373,-7,o),
(494,79,o),
(540,194,c)
);
},
{
closed = 1;
nodes = (
(236,737,l),
(212,604,l),
(479,702,l),
(506,850,l)
);
}
);
width = 616;
}
);
note = eacute;
unicode = 233;
},
{
glyphname = ecircumflex;
lastChange = "2022-10-20 15:45:51 +0000";
layers = (
{
layerId = m01;
shapes = (
{
closed = 1;
nodes = (
(355,413,o),
(389,386,o),
(380,336,c),
(207,336,l),
(225,387,o),
(263,413,o),
(310,413,cs)
);
},
{
closed = 1;
nodes = (
(334,194,l),
(319,171,o),
(294,150,o),
(256,150,cs),
(212,150,o),
(182,176,o),
(190,241,c),
(561,241,l),
(565,256,o),
(569,272,o),
(572,287,cs),
(602,461,o),
(504,568,o),
(338,568,cs),
(170,568,o),
(34,459,o),
(3,281,cs),
(-29,102,o),
(71,-7,o),
(237,-7,cs),
(377,-7,o),
(497,79,o),
(543,194,c)
);
},
{
closed = 1;
nodes = (
(527,735,l),
(381,812,l),
(207,735,l),
(184,604,l),
(359,684,l),
(504,604,l)
);
}
);
width = 616;
}
);
note = ecircumflex;
unicode = 234;
},
{
glyphname = edieresis;
lastChange = "2022-10-20 15:45:51 +0000";
layers = (
{
layerId = m01;
shapes = (
{
closed = 1;
nodes = (
(357,413,o),
(391,386,o),
(383,336,c),
(210,336,l),
(228,387,o),
(265,413,o),
(312,413,cs)
);
},
{
closed = 1;
nodes = (
(337,194,l),
(322,171,o),
(297,150,o),
(259,150,cs),
(215,150,o),
(184,176,o),
(192,241,c),
(563,241,l),
(568,256,o),
(571,272,o),
(574,287,cs),
(605,461,o),
(507,568,o),
(341,568,cs),
(173,568,o),
(36,459,o),
(5,281,cs),
(-27,102,o),
(73,-7,o),
(239,-7,cs),
(379,-7,o),
(499,79,o),
(546,194,c)
);
},
{
closed = 1;
nodes = (
(289,625,o),
(330,659,o),
(338,704,cs),
(346,750,o),
(317,785,o),
(271,785,cs),
(226,785,o),
(186,750,o),
(178,704,cs),
(170,659,o),
(198,625,o),
(243,625,cs)
);
},
{
closed = 1;
nodes = (
(502,625,o),
(542,659,o),
(550,704,cs),
(558,750,o),
(530,785,o),
(484,785,cs),
(439,785,o),
(399,750,o),
(391,704,cs),
(383,659,o),
(411,625,o),
(456,625,cs)
);
}
);
width = 616;
}
);
note = edieresis;
unicode = 235;
},
{
glyphname = igrave;
lastChange = "2022-10-20 15:45:51 +0000";
layers = (
{
layerId = m01;
shapes = (
{
closed = 1;
nodes = (
(1,0,l),
(198,0,l),
(296,561,l),
(99,561,l)
);
},
{
closed = 1;
nodes = (
(94,697,l),
(327,599,l),
(351,732,l),
(120,845,l)
);
}
);
width = 347;
}
);
note = igrave;
unicode = 236;
},
{
glyphname = iacute;
lastChange = "2022-10-20 15:45:51 +0000";
layers = (
{
layerId = m01;
shapes = (
{
closed = 1;
nodes = (
(1,0,l),
(198,0,l),
(296,561,l),
(99,561,l)
);
},
{
closed = 1;
nodes = (
(101,732,l),
(77,599,l),
(344,697,l),
(370,845,l)
);
}
);
width = 347;
}
);
note = iacute;
unicode = 237;
},
{
glyphname = icircumflex;
lastChange = "2022-10-20 15:45:51 +0000";
layers = (
{
layerId = m01;
shapes = (
{
closed = 1;
nodes = (
(4,0,l),
(201,0,l),
(300,561,l),
(103,561,l)
);
},
{
closed = 1;
nodes = (
(391,730,l),
(245,807,l),
(71,730,l),
(47,599,l),
(223,679,l),
(367,599,l)
);
}
);
width = 347;
}
);
note = icircumflex;
unicode = 238;
},
{
glyphname = idieresis;
lastChange = "2022-10-20 15:45:51 +0000";
layers = (
{
layerId = m01;
shapes = (
{
closed = 1;
nodes = (
(6,0,l),
(203,0,l),
(302,561,l),
(105,561,l)
);
},
{
closed = 1;
nodes = (
(154,620,o),
(195,654,o),
(202,699,cs),
(211,745,o),
(182,780,o),
(136,780,cs),
(91,780,o),
(51,745,o),
(42,699,cs),
(35,654,o),
(63,620,o),
(108,620,cs)
);
},
{
closed = 1;
nodes = (
(367,620,o),
(407,654,o),
(414,699,cs),
(423,745,o),
(395,780,o),
(349,780,cs),
(304,780,o),
(264,745,o),
(255,699,cs),
(248,654,o),
(276,620,o),
(321,620,cs)
);
}
);
width = 347;
}
);
note = idieresis;
unicode = 239;
},
{
glyphname = eth;
lastChange = "2022-10-20 15:45:51 +0000";
layers = (
{
layerId = m01;
shapes = (
{
closed = 1;
nodes = (
(-22,105,o),
(96,-7,o),
(259,-7,cs),
(419,-7,o),
(571,106,o),
(608,317,cs),
(630,439,o),
(604,559,o),
(550,657,c),
(587,667,l),
(599,737,l),
(514,713,l),
(508,722,o),
(500,731,o),
(493,740,c),
(318,740,l),
(337,721,o),
(355,698,o),
(372,673,c),
(315,657,l),
(303,588,l),
(405,616,l),
(416,594,o),
(425,570,o),
(432,547,c),
(402,559,o),
(371,566,o),
(337,566,cs),
(182,566,o),
(40,459,o),
(9,282,cs)
);
},
{
closed = 1;
nodes = (
(224,365,o),
(281,398,o),
(328,398,cs),
(372,398,o),
(417,365,o),
(402,281,cs),
(387,196,o),
(335,163,o),
(289,163,cs),
(243,163,o),
(194,196,o),
(209,281,cs)
);
}
);
width = 641;
}
);
note = eth;
unicode = 240;
},
{
glyphname = ntilde;
lastChange = "2022-10-20 15:45:51 +0000";
layers = (
{
layerId = m01;
shapes = (
{
closed = 1;
nodes = (
(238,301,ls),
(249,366,o),
(292,404,o),
(350,404,cs),
(406,404,o),
(435,366,o),
(424,301,cs),
(370,0,l),
(566,0,l),
(624,327,ls),
(650,474,o),
(585,566,o),
(455,566,cs),
(376,566,o),
(311,529,o),
(269,481,c),
(283,561,l),
(87,561,l),
(-12,0,l),
(184,0,l)
);
},
{
closed = 1;
nodes = (
(292,603,l),
(303,635,o),
(321,649,o),
(345,649,cs),
(385,649,o),
(412,604,o),
(474,604,cs),
(550,604,o),
(612,649,o),
(653,766,c),
(554,766,l),
(543,735,o),
(525,720,o),
(501,720,cs),
(461,720,o),
(435,766,o),
(373,766,cs),
(297,766,o),
(234,720,o),
(194,603,c)
);
}
);
width = 686;
}
);
note = ntilde;
unicode = 241;
},
{
glyphname = ograve;
lastChange = "2022-10-20 15:45:51 +0000";
layers = (
{
layerId = m01;
shapes = (
{
closed = 1;
nodes = (
(619,459,o),
(511,568,o),
(344,568,cs),
(177,568,o),
(31,459,o),
(-1,281,cs),
(-32,102,o),
(75,-7,o),
(242,-7,cs),
(409,-7,o),
(556,102,o),
(587,281,cs)
);
},
{
closed = 1;
nodes = (
(214,361,o),
(264,398,o),
(314,398,cs),
(364,398,o),
(403,361,o),
(388,281,cs),
(374,200,o),
(322,163,o),
(272,163,cs),
(221,163,o),
(185,200,o),
(199,281,cs)
);
},
{
closed = 1;
nodes = (
(258,699,l),
(491,601,l),
(514,734,l),
(284,847,l)
);
}
);
width = 636;
}
);
note = ograve;
unicode = 242;
},
{
glyphname = oacute;
layers = (
{
layerId = m01;
shapes = (
{
closed = 1;
nodes = (
(612,459,o),
(485,568,o),
(318,568,cs),
(151,568,o),
(24,459,o),
(24,281,cs),
(24,102,o),
(150,-7,o),
(317,-7,cs),
(484,-7,o),
(612,102,o),
(612,281,cs)
);
},
{
closed = 1;
nodes = (
(224,361,o),
(268,398,o),
(318,398,cs),
(368,398,o),
(413,361,o),
(413,281,cs),
(413,200,o),
(367,163,o),
(317,163,cs),
(266,163,o),
(224,200,o),
(224,281,cs)
);
},
{
closed = 1;
nodes = (
(209,734,l),
(209,601,l),
(459,699,l),
(459,847,l)
);
}
);
width = 636;
}
);
note = oacute;
unicode = 243;
},
{
glyphname = ocircumflex;
layers = (
{
layerId = m01;
shapes = (
{
closed = 1;
nodes = (
(612,459,o),
(485,568,o),
(318,568,cs),
(151,568,o),
(24,459,o),
(24,281,cs),
(24,102,o),
(150,-7,o),
(317,-7,cs),
(484,-7,o),
(612,102,o),
(612,281,cs)
);
},
{
closed = 1;
nodes = (
(224,361,o),
(268,398,o),
(318,398,cs),
(368,398,o),
(413,361,o),
(413,281,cs),
(413,200,o),
(367,163,o),
(317,163,cs),
(266,163,o),
(224,200,o),
(224,281,cs)
);
},
{
closed = 1;
nodes = (
(497,732,l),
(338,809,l),
(177,732,l),
(177,601,l),
(338,681,l),
(497,601,l)
);
}
);
width = 636;
}
);
note = ocircumflex;
unicode = 244;
},
{
glyphname = otilde;
layers = (
{
layerId = m01;
shapes = (
{
closed = 1;
nodes = (
(612,459,o),
(485,568,o),
(318,568,cs),
(151,568,o),
(24,459,o),
(24,281,cs),
(24,102,o),
(150,-7,o),
(317,-7,cs),
(484,-7,o),
(612,102,o),
(612,281,cs)
);
},
{
closed = 1;
nodes = (
(224,361,o),
(268,398,o),
(318,398,cs),
(368,398,o),
(413,361,o),
(413,281,cs),
(413,200,o),
(367,163,o),
(317,163,cs),
(266,163,o),
(224,200,o),
(224,281,cs)
);
},
{
closed = 1;
nodes = (
(218,605,l),
(224,637,o),
(239,651,o),
(263,651,cs),
(303,651,o),
(338,606,o),
(400,606,cs),
(476,606,o),
(530,651,o),
(550,768,c),
(451,768,l),
(446,737,o),
(431,722,o),
(407,722,cs),
(367,722,o),
(332,768,o),
(270,768,cs),
(194,768,o),
(140,722,o),
(120,605,c)
);
}
);
width = 636;
}
);
note = otilde;
unicode = 245;
},
{
glyphname = odieresis;
layers = (
{
layerId = m01;
shapes = (
{
closed = 1;
nodes = (
(612,459,o),
(485,568,o),
(318,568,cs),
(151,568,o),
(24,459,o),
(24,281,cs),
(24,102,o),
(150,-7,o),
(317,-7,cs),
(484,-7,o),
(612,102,o),
(612,281,cs)
);
},
{
closed = 1;
nodes = (
(224,361,o),
(268,398,o),
(318,398,cs),
(368,398,o),
(413,361,o),
(413,281,cs),
(413,200,o),
(367,163,o),
(317,163,cs),
(266,163,o),
(224,200,o),
(224,281,cs)
);
},
{
closed = 1;
nodes = (
(276,622,o),
(311,656,o),
(311,701,cs),
(311,747,o),
(276,782,o),
(230,782,cs),
(185,782,o),
(151,747,o),
(151,701,cs),
(151,656,o),
(185,622,o),
(230,622,cs)
);
},
{
closed = 1;
nodes = (
(489,622,o),
(523,656,o),
(523,701,cs),
(523,747,o),
(489,782,o),
(443,782,cs),
(398,782,o),
(364,747,o),
(364,701,cs),
(364,656,o),
(398,622,o),
(443,622,cs)
);
}
);
width = 636;
}
);
note = odieresis;
unicode = 246;
},
{
glyphname = divide;
layers = (
{
layerId = m01;
shapes = (
{
closed = 1;
nodes = (
(37,257,l),
(547,257,l),
(547,434,l),
(37,434,l)
);
},
{
closed = 1;
nodes = (
(410,169,o),
(365,214,o),
(296,214,cs),
(226,214,o),
(181,169,o),
(181,112,cs),
(181,55,o),
(226,11,o),
(296,11,cs),
(365,11,o),
(410,55,o),
(410,112,cs)
);
},
{
closed = 1;
nodes = (
(410,634,o),
(365,679,o),
(296,679,cs),
(226,679,o),
(181,634,o),
(181,577,cs),
(181,520,o),
(226,476,o),
(296,476,cs),
(365,476,o),
(410,520,o),
(410,577,cs)
);
}
);
width = 581;
}
);
note = divide;
unicode = 247;
},
{
glyphname = oslash;
layers = (
{
layerId = m01;
shapes = (
{
closed = 1;
nodes = (
(606,360,o),
(581,426,o),
(538,474,c),
(618,561,l),
(521,561,l),
(484,521,l),
(436,551,o),
(377,568,o),
(312,568,cs),
(145,568,o),
(18,459,o),
(18,281,cs),
(18,201,o),
(43,135,o),
(86,86,c),
(7,0,l),
(104,0,l),
(140,40,l),
(188,9,o),
(246,-7,o),
(311,-7,cs),
(478,-7,o),
(606,102,o),
(606,281,cs)
);
},
{
closed = 1;
nodes = (
(218,361,o),
(262,398,o),
(312,398,cs),
(329,398,o),
(345,394,o),
(360,385,c),
(223,236,l),
(220,249,o),
(218,264,o),
(218,281,cs)
);
},
{
closed = 1;
nodes = (
(294,163,o),
(278,167,o),
(265,175,c),
(402,325,l),
(405,312,o),
(407,297,o),
(407,281,cs),
(407,200,o),
(361,163,o),
(311,163,cs)
);
}
);
width = 625;
}
);
note = oslash;
unicode = 248;
},
{
glyphname = ugrave;
layers = (
{
layerId = m01;
shapes = (
{
closed = 1;
nodes = (
(630,561,l),
(433,561,l),
(433,260,ls),
(433,195,o),
(397,157,o),
(340,157,cs),
(284,157,o),
(247,195,o),
(247,260,cs),
(247,561,l),
(52,561,l),
(52,235,ls),
(52,87,o),
(133,-5,o),
(263,-5,cs),
(342,-5,o),
(401,32,o),
(433,80,c),
(433,0,l),
(630,0,l)
);
},
{
closed = 1;
nodes = (
(215,697,l),
(465,599,l),
(465,732,l),
(215,845,l)
);
}
);
width = 686;
}
);
note = ugrave;
unicode = 249;
},
{
glyphname = uacute;
layers = (
{
layerId = m01;
shapes = (
{
closed = 1;
nodes = (
(630,561,l),
(433,561,l),
(433,260,ls),
(433,195,o),
(397,157,o),
(340,157,cs),
(284,157,o),
(247,195,o),
(247,260,cs),
(247,561,l),
(52,561,l),
(52,235,ls),
(52,87,o),
(133,-5,o),
(263,-5,cs),
(342,-5,o),
(401,32,o),
(433,80,c),
(433,0,l),
(630,0,l)
);
},
{
closed = 1;
nodes = (
(215,732,l),
(215,599,l),
(465,697,l),
(465,845,l)
);
}
);
width = 686;
}
);
note = uacute;
unicode = 250;
},
{
glyphname = ucircumflex;
layers = (
{
layerId = m01;
shapes = (
{
closed = 1;
nodes = (
(630,561,l),
(433,561,l),
(433,260,ls),
(433,195,o),
(397,157,o),
(340,157,cs),
(284,157,o),
(247,195,o),
(247,260,cs),
(247,561,l),
(52,561,l),
(52,235,ls),
(52,87,o),
(133,-5,o),
(263,-5,cs),
(342,-5,o),
(401,32,o),
(433,80,c),
(433,0,l),
(630,0,l)
);
},
{
closed = 1;
nodes = (
(503,730,l),
(344,807,l),
(183,730,l),
(183,599,l),
(344,679,l),
(503,599,l)
);
}
);
width = 686;
}
);
note = ucircumflex;
unicode = 251;
},
{
glyphname = udieresis;
layers = (
{
layerId = m01;
shapes = (
{
closed = 1;
nodes = (
(630,561,l),
(433,561,l),
(433,260,ls),
(433,195,o),
(397,157,o),
(340,157,cs),
(284,157,o),
(247,195,o),
(247,260,cs),
(247,561,l),
(52,561,l),
(52,235,ls),
(52,87,o),
(133,-5,o),
(263,-5,cs),
(342,-5,o),
(401,32,o),
(433,80,c),
(433,0,l),
(630,0,l)
);
},
{
closed = 1;
nodes = (
(282,620,o),
(317,654,o),
(317,699,cs),
(317,745,o),
(282,780,o),
(236,780,cs),
(191,780,o),
(157,745,o),
(157,699,cs),
(157,654,o),
(191,620,o),
(236,620,cs)
);
},
{
closed = 1;
nodes = (
(495,620,o),
(529,654,o),
(529,699,cs),
(529,745,o),
(495,780,o),
(449,780,cs),
(404,780,o),
(370,745,o),
(370,699,cs),
(370,654,o),
(404,620,o),
(449,620,cs)
);
}
);
width = 686;
}
);
note = udieresis;
unicode = 252;
},
{
glyphname = yacute;
layers = (
{
layerId = m01;
shapes = (
{
closed = 1;
nodes = (
(331,243,l),
(213,561,l),
(-5,561,l),
(225,24,l),
(91,-267,l),
(304,-267,l),
(660,561,l),
(445,561,l)
);
},
{
closed = 1;
nodes = (
(200,732,l),
(200,599,l),
(450,697,l),
(450,845,l)
);
}
);
width = 655;
}
);
note = yacute;
unicode = 253;
},
{
glyphname = thorn;
layers = (
{
layerId = m01;
shapes = (
{
closed = 1;
nodes = (
(252,740,l),
(56,740,l),
(56,-268,l),
(252,-268,l),
(252,72,l),
(290,21,o),
(337,-7,o),
(404,-7,cs),
(541,-7,o),
(655,108,o),
(655,278,cs),
(655,448,o),
(541,566,o),
(404,566,cs),
(337,566,o),
(289,545,o),
(252,500,c)
);
},
{
closed = 1;
nodes = (
(456,195,o),
(400,164,o),
(354,164,cs),
(308,164,o),
(252,198,o),
(252,281,cs),
(252,363,o),
(308,396,o),
(354,396,cs),
(400,396,o),
(456,361,o),
(456,278,cs)
);
}
);
width = 680;
}
);
note = thorn;
unicode = 254;
},
{
glyphname = ydieresis;
layers = (
{
layerId = m01;
shapes = (
{
closed = 1;
nodes = (
(331,243,l),
(213,561,l),
(-5,561,l),
(225,24,l),
(91,-267,l),
(304,-267,l),
(660,561,l),
(445,561,l)
);
},
{
closed = 1;
nodes = (
(266,620,o),
(301,654,o),
(301,699,cs),
(301,745,o),
(266,780,o),
(220,780,cs),
(175,780,o),
(141,745,o),
(141,699,cs),
(141,654,o),
(175,620,o),
(220,620,cs)
);
},
{
closed = 1;
nodes = (
(479,620,o),
(513,654,o),
(513,699,cs),
(513,745,o),
(479,780,o),
(433,780,cs),
(388,780,o),
(354,745,o),
(354,699,cs),
(354,654,o),
(388,620,o),
(433,620,cs)
);
}
);
width = 655;
}
);
note = ydieresis;
unicode = 255;
},
{
glyphname = Amacron;
layers = (
{
layerId = m01;
shapes = (
{
closed = 1;
nodes = (
(540,0,l),
(747,0,l),
(491,705,l),
(265,705,l),
(8,0,l),
(214,0,l),
(252,115,l),
(502,115,l)
);
},
{
closed = 1;
nodes = (
(171,772,l),
(587,772,l),
(587,904,l),
(171,904,l)
);
},
{
closed = 1;
nodes = (
(453,265,l),
(302,265,l),
(377,493,l)
);
}
);
width = 755;
}
);
note = Amacron;
unicode = 256;
},
{
glyphname = amacron;
layers = (
{
layerId = m01;
shapes = (
{
closed = 1;
nodes = (
(24,102,o),
(130,-7,o),
(263,-7,cs),
(342,-7,o),
(399,28,o),
(428,78,c),
(428,0,l),
(624,0,l),
(624,561,l),
(428,561,l),
(428,483,l),
(399,533,o),
(343,568,o),
(263,568,cs),
(130,568,o),
(24,460,o),
(24,281,cs)
);
},
{
closed = 1;
nodes = (
(428,205,o),
(381,164,o),
(326,164,cs),
(270,164,o),
(224,206,o),
(224,281,cs),
(224,357,o),
(270,397,o),
(326,397,cs),
(381,397,o),
(428,356,o),
(428,281,cs)
);
},
{
closed = 1;
nodes = (
(138,625,l),
(554,625,l),
(554,757,l),
(138,757,l)
);
}
);
width = 680;
}
);
note = amacron;
unicode = 257;
},
{
glyphname = Abreve;
layers = (
{
layerId = m01;
shapes = (
{
closed = 1;
nodes = (
(540,0,l),
(747,0,l),
(491,705,l),
(265,705,l),
(8,0,l),
(214,0,l),
(252,115,l),
(502,115,l)
);
},
{
closed = 1;
nodes = (
(557,952,l),
(463,952,l),
(463,912,o),
(443,888,o),
(378,888,cs),
(313,888,o),
(293,912,o),
(293,952,c),
(199,952,l),
(199,934,ls),
(199,809,o),
(276,746,o),
(378,746,cs),
(481,746,o),
(557,809,o),
(557,934,cs)
);
},
{
closed = 1;
nodes = (
(453,265,l),
(302,265,l),
(377,493,l)
);
}
);
width = 755;
}
);
note = Abreve;
unicode = 258;
},
{
glyphname = abreve;
layers = (
{
layerId = m01;
shapes = (
{
closed = 1;
nodes = (
(24,102,o),
(130,-7,o),
(263,-7,cs),
(342,-7,o),
(399,28,o),
(428,78,c),
(428,0,l),
(624,0,l),
(624,561,l),
(428,561,l),
(428,483,l),
(399,533,o),
(343,568,o),
(263,568,cs),
(130,568,o),
(24,460,o),
(24,281,cs)
);
},
{
closed = 1;
nodes = (
(428,205,o),
(381,164,o),
(326,164,cs),
(270,164,o),
(224,206,o),
(224,281,cs),
(224,357,o),
(270,397,o),
(326,397,cs),
(381,397,o),
(428,356,o),
(428,281,cs)
);
},
{
closed = 1;
nodes = (
(524,805,l),
(430,805,l),
(430,765,o),
(410,741,o),
(345,741,cs),
(280,741,o),
(260,765,o),
(260,805,c),
(166,805,l),
(166,787,ls),
(166,662,o),
(243,599,o),
(345,599,cs),
(448,599,o),
(524,662,o),
(524,787,cs)
);
}
);
width = 680;
}
);
note = abreve;
unicode = 259;
},
{
glyphname = Aogonek;
layers = (
{
layerId = m01;
shapes = (
{
closed = 1;
nodes = (
(265,705,l),
(8,0,l),
(214,0,l),
(252,115,l),
(502,115,l),
(539,4,l),
(503,-28,o),
(491,-61,o),
(491,-98,cs),
(491,-178,o),
(553,-220,o),
(645,-220,cs),
(684,-220,o),
(720,-214,o),
(751,-204,c),
(751,-99,l),
(720,-109,o),
(694,-114,o),
(673,-114,cs),
(646,-114,o),
(631,-103,o),
(631,-84,cs),
(631,-66,o),
(644,-46,o),
(702,-20,cs),
(747,0,l),
(491,705,l)
);
},
{
closed = 1;
nodes = (
(453,265,l),
(302,265,l),
(377,493,l)
);
}
);
width = 755;
}
);
note = Aogonek;
unicode = 260;
},
{
glyphname = aogonek;
layers = (
{
layerId = m01;
shapes = (
{
closed = 1;
nodes = (
(24,102,o),
(130,-7,o),
(263,-7,cs),
(342,-7,o),
(399,28,o),
(428,78,c),
(428,6,l),
(382,-29,o),
(367,-64,o),
(367,-103,cs),
(367,-178,o),
(429,-220,o),
(522,-220,cs),
(560,-220,o),
(596,-214,o),
(627,-204,c),
(627,-99,l),
(596,-109,o),
(569,-114,o),
(546,-114,cs),
(522,-114,o),
(507,-103,o),
(507,-87,cs),
(507,-66,o),
(527,-48,o),
(579,-22,cs),
(623,0,l),
(624,0,l),
(624,561,l),
(428,561,l),
(428,483,l),
(399,533,o),
(343,568,o),
(263,568,cs),
(130,568,o),
(24,460,o),
(24,281,cs)
);
},
{
closed = 1;
nodes = (
(428,205,o),
(381,164,o),
(326,164,cs),
(270,164,o),
(224,206,o),
(224,281,cs),
(224,357,o),
(270,397,o),
(326,397,cs),
(381,397,o),
(428,356,o),
(428,281,cs)
);
}
);
width = 680;
}
);
note = aogonek;
unicode = 261;
},
{
glyphname = Cacute;
layers = (
{
layerId = m01;
shapes = (
{
closed = 1;
nodes = (
(32,143,o),
(171,-5,o),
(383,-5,cs),
(560,-5,o),
(686,97,o),
(721,257,c),
(510,257,l),
(485,204,o),
(438,175,o),
(380,175,cs),
(290,175,o),
(231,245,o),
(231,354,cs),
(231,462,o),
(290,532,o),
(380,532,cs),
(438,532,o),
(485,503,o),
(510,450,c),
(721,450,l),
(686,610,o),
(560,712,o),
(383,712,cs),
(171,712,o),
(32,564,o),
(32,354,cs)
);
},
{
closed = 1;
nodes = (
(253,880,l),
(253,747,l),
(503,845,l),
(503,993,l)
);
}
);
width = 758;
}
);
note = Cacute;
unicode = 262;
},
{
glyphname = cacute;
layers = (
{
layerId = m01;
shapes = (
{
closed = 1;
nodes = (
(24,102,o),
(141,-7,o),
(308,-7,cs),
(450,-7,o),
(554,76,o),
(582,215,c),
(374,215,l),
(363,180,o),
(341,160,o),
(304,160,cs),
(256,160,o),
(224,200,o),
(224,281,cs),
(224,361,o),
(256,401,o),
(304,401,cs),
(341,401,o),
(363,380,o),
(374,346,c),
(582,346,l),
(554,487,o),
(450,568,o),
(308,568,cs),
(141,568,o),
(24,459,o),
(24,281,cs)
);
},
{
closed = 1;
nodes = (
(171,732,l),
(171,599,l),
(421,697,l),
(421,845,l)
);
}
);
width = 607;
}
);
note = cacute;
unicode = 263;
},
{
glyphname = Cdotaccent;
layers = (
{
layerId = m01;
shapes = (
{
closed = 1;
nodes = (
(32,143,o),
(171,-5,o),
(383,-5,cs),
(560,-5,o),
(686,97,o),
(721,257,c),
(510,257,l),
(485,204,o),
(438,175,o),
(380,175,cs),
(290,175,o),
(231,245,o),
(231,354,cs),
(231,462,o),
(290,532,o),
(380,532,cs),
(438,532,o),
(485,503,o),
(510,450,c),
(721,450,l),
(686,610,o),
(560,712,o),
(383,712,cs),
(171,712,o),
(32,564,o),
(32,354,cs)
);
},
{
closed = 1;
nodes = (
(425,768,o),
(460,802,o),
(460,847,cs),
(460,893,o),
(425,928,o),
(379,928,cs),
(334,928,o),
(300,893,o),
(300,847,cs),
(300,802,o),
(334,768,o),
(379,768,cs)
);
}
);
width = 758;
}
);
note = Cdotaccent;
unicode = 266;
},
{
glyphname = cdotaccent;
layers = (
{
layerId = m01;
shapes = (
{
closed = 1;
nodes = (
(24,102,o),
(141,-7,o),
(308,-7,cs),
(450,-7,o),
(554,76,o),
(582,215,c),
(374,215,l),
(363,180,o),
(341,160,o),
(304,160,cs),
(256,160,o),
(224,200,o),
(224,281,cs),
(224,361,o),
(256,401,o),
(304,401,cs),
(341,401,o),
(363,380,o),
(374,346,c),
(582,346,l),
(554,487,o),
(450,568,o),
(308,568,cs),
(141,568,o),
(24,459,o),
(24,281,cs)
);
},
{
closed = 1;
nodes = (
(344,620,o),
(379,654,o),
(379,699,cs),
(379,745,o),
(344,780,o),
(298,780,cs),
(253,780,o),
(219,745,o),
(219,699,cs),
(219,654,o),
(253,620,o),
(298,620,cs)
);
}
);
width = 607;
}
);
note = cdotaccent;
unicode = 267;
},
{
glyphname = Ccaron;
layers = (
{
layerId = m01;
shapes = (
{
closed = 1;
nodes = (
(32,143,o),
(171,-5,o),
(383,-5,cs),
(560,-5,o),
(686,97,o),
(721,257,c),
(510,257,l),
(485,204,o),
(438,175,o),
(380,175,cs),
(290,175,o),
(231,245,o),
(231,354,cs),
(231,462,o),
(290,532,o),
(380,532,cs),
(438,532,o),
(485,503,o),
(510,450,c),
(721,450,l),
(686,610,o),
(560,712,o),
(383,712,cs),
(171,712,o),
(32,564,o),
(32,354,cs)
);
},
{
closed = 1;
nodes = (
(381,868,l),
(220,955,l),
(220,824,l),
(381,747,l),
(540,824,l),
(540,955,l)
);
}
);
width = 758;
}
);
note = Ccaron;
unicode = 268;
},
{
glyphname = ccaron;
layers = (
{
layerId = m01;
shapes = (
{
closed = 1;
nodes = (
(24,102,o),
(141,-7,o),
(308,-7,cs),
(450,-7,o),
(554,76,o),
(582,215,c),
(374,215,l),
(363,180,o),
(341,160,o),
(304,160,cs),
(256,160,o),
(224,200,o),
(224,281,cs),
(224,361,o),
(256,401,o),
(304,401,cs),
(341,401,o),
(363,380,o),
(374,346,c),
(582,346,l),
(554,487,o),
(450,568,o),
(308,568,cs),
(141,568,o),
(24,459,o),
(24,281,cs)
);
},
{
closed = 1;
nodes = (
(300,720,l),
(139,807,l),
(139,676,l),
(300,599,l),
(459,676,l),
(459,807,l)
);
}
);
width = 607;
}
);
note = ccaron;
unicode = 269;
},
{
glyphname = Dcaron;
layers = (
{
layerId = m01;
shapes = (
{
closed = 1;
nodes = (
(56,705,l),
(56,0,l),
(335,0,ls),
(560,0,o),
(703,149,o),
(703,353,cs),
(703,560,o),
(560,705,o),
(335,705,cs)
);
},
{
closed = 1;
nodes = (
(252,173,l),
(252,535,l),
(320,535,ls),
(433,535,o),
(504,470,o),
(504,353,cs),
(504,237,o),
(433,173,o),
(320,173,cs)
);
},
{
closed = 1;
nodes = (
(358,867,l),
(197,954,l),
(197,823,l),
(358,746,l),
(517,823,l),
(517,954,l)
);
}
);
width = 735;
}
);
note = Dcaron;
unicode = 270;
},
{
glyphname = dcaron;
layers = (
{
layerId = m01;
shapes = (
{
closed = 1;
nodes = (
(682,740,l),
(682,606,l),
(749,606,l),
(749,591,ls),
(749,544,o),
(730,522,o),
(695,522,c),
(695,450,l),
(800,450,o),
(848,521,o),
(848,614,cs),
(848,653,o),
(841,696,o),
(825,740,c)
);
},
{
closed = 1;
nodes = (
(24,102,o),
(130,-7,o),
(263,-7,cs),
(342,-7,o),
(398,28,o),
(427,78,c),
(427,0,l),
(624,0,l),
(624,740,l),
(427,740,l),
(427,484,l),
(396,535,o),
(338,568,o),
(264,568,cs),
(130,568,o),
(24,460,o),
(24,281,cs)
);
},
{
closed = 1;
nodes = (
(428,205,o),
(381,164,o),
(326,164,cs),
(270,164,o),
(224,206,o),
(224,281,cs),
(224,357,o),
(270,397,o),
(326,397,cs),
(381,397,o),
(428,356,o),
(428,281,cs)
);
}
);
width = 858;
}
);
note = dcaron;
unicode = 271;
},
{
glyphname = Dcroat;
layers = (
{
layerId = m01;
shapes = (
{
closed = 1;
nodes = (
(58,705,l),
(58,433,l),
(2,433,l),
(2,274,l),
(58,274,l),
(58,0,l),
(338,0,ls),
(563,0,o),
(706,149,o),
(706,353,cs),
(706,560,o),
(563,705,o),
(338,705,cs)
);
},
{
closed = 1;
nodes = (
(255,172,l),
(255,274,l),
(397,274,l),
(397,433,l),
(255,433,l),
(255,535,l),
(322,535,ls),
(436,535,o),
(506,470,o),
(506,353,cs),
(506,237,o),
(436,172,o),
(322,172,cs)
);
}
);
width = 738;
}
);
note = Dcroat;
unicode = 272;
},
{
glyphname = dcroat;
layers = (
{
layerId = m01;
shapes = (
{
closed = 1;
nodes = (
(24,102,o),
(130,-7,o),
(263,-7,cs),
(342,-7,o),
(398,28,o),
(427,78,c),
(427,0,l),
(624,0,l),
(624,592,l),
(686,592,l),
(686,680,l),
(624,680,l),
(624,740,l),
(427,740,l),
(427,680,l),
(362,680,l),
(362,592,l),
(427,592,l),
(427,484,l),
(396,535,o),
(338,568,o),
(264,568,cs),
(130,568,o),
(24,460,o),
(24,281,cs)
);
},
{
closed = 1;
nodes = (
(428,205,o),
(381,164,o),
(326,164,cs),
(270,164,o),
(224,206,o),
(224,281,cs),
(224,357,o),
(270,397,o),
(326,397,cs),
(381,397,o),
(428,356,o),
(428,281,cs)
);
}
);
width = 698;
}
);
note = dcroat;
unicode = 273;
},
{
glyphname = Emacron;
layers = (
{
layerId = m01;
shapes = (
{
closed = 1;
nodes = (
(507,705,l),
(56,705,l),
(56,0,l),
(507,0,l),
(507,157,l),
(252,157,l),
(252,284,l),
(477,284,l),
(477,433,l),
(252,433,l),
(252,548,l),
(507,548,l)
);
},
{
closed = 1;
nodes = (
(70,772,l),
(486,772,l),
(486,904,l),
(70,904,l)
);
}
);
width = 548;
}
);
note = Emacron;
unicode = 274;
},
{
glyphname = emacron;
layers = (
{
layerId = m01;
shapes = (
{
closed = 1;
nodes = (
(353,413,o),
(392,386,o),
(392,336,c),
(219,336,l),
(228,387,o),
(261,413,o),
(308,413,cs)
);
},
{
closed = 1;
nodes = (
(371,194,l),
(360,171,o),
(339,150,o),
(301,150,cs),
(257,150,o),
(222,176,o),
(218,241,c),
(589,241,l),
(591,256,o),
(592,272,o),
(592,287,cs),
(592,461,o),
(475,568,o),
(309,568,cs),
(141,568,o),
(24,459,o),
(24,281,cs),
(24,102,o),
(143,-7,o),
(309,-7,cs),
(449,-7,o),
(554,79,o),
(580,194,c)
);
},
{
closed = 1;
nodes = (
(101,630,l),
(517,630,l),
(517,762,l),
(101,762,l)
);
}
);
width = 616;
}
);
note = emacron;
unicode = 275;
},
{
glyphname = Ebreve;
layers = (
{
layerId = m01;
shapes = (
{
closed = 1;
nodes = (
(507,705,l),
(56,705,l),
(56,0,l),
(507,0,l),
(507,157,l),
(252,157,l),
(252,284,l),
(477,284,l),
(477,433,l),
(252,433,l),
(252,548,l),
(507,548,l)
);
},
{
closed = 1;
nodes = (
(456,952,l),
(362,952,l),
(362,912,o),
(342,888,o),
(277,888,cs),
(212,888,o),
(192,912,o),
(192,952,c),
(98,952,l),
(98,934,ls),
(98,809,o),
(175,746,o),
(277,746,cs),
(380,746,o),
(456,809,o),
(456,934,cs)
);
}
);
width = 548;
}
);
note = Ebreve;
unicode = 276;
},
{
glyphname = ebreve;
layers = (
{
layerId = m01;
shapes = (
{
closed = 1;
nodes = (
(353,413,o),
(392,386,o),
(392,336,c),
(219,336,l),
(228,387,o),
(261,413,o),
(308,413,cs)
);
},
{
closed = 1;
nodes = (
(371,194,l),
(360,171,o),
(339,150,o),
(301,150,cs),
(257,150,o),
(222,176,o),
(218,241,c),
(589,241,l),
(591,256,o),
(592,272,o),
(592,287,cs),
(592,461,o),
(475,568,o),
(309,568,cs),
(141,568,o),
(24,459,o),
(24,281,cs),
(24,102,o),
(143,-7,o),
(309,-7,cs),
(449,-7,o),
(554,79,o),
(580,194,c)
);
},
{
closed = 1;
nodes = (
(487,810,l),
(393,810,l),
(393,770,o),
(373,746,o),
(308,746,cs),
(243,746,o),
(223,770,o),
(223,810,c),
(129,810,l),
(129,792,ls),
(129,667,o),
(206,604,o),
(308,604,cs),
(411,604,o),
(487,667,o),
(487,792,cs)
);
}
);
width = 616;
}
);
note = ebreve;
unicode = 277;
},
{
glyphname = Edotaccent;
layers = (
{
layerId = m01;
shapes = (
{
closed = 1;
nodes = (
(507,705,l),
(56,705,l),
(56,0,l),
(507,0,l),
(507,157,l),
(252,157,l),
(252,284,l),
(477,284,l),
(477,433,l),
(252,433,l),
(252,548,l),
(507,548,l)
);
},
{
closed = 1;
nodes = (
(322,767,o),
(357,801,o),
(357,846,cs),
(357,892,o),
(322,927,o),
(276,927,cs),
(231,927,o),
(197,892,o),
(197,846,cs),
(197,801,o),
(231,767,o),
(276,767,cs)
);
}
);
width = 548;
}
);
note = Edotaccent;
unicode = 278;
},
{
glyphname = edotaccent;
layers = (
{
layerId = m01;
shapes = (
{
closed = 1;
nodes = (
(353,413,o),
(392,386,o),
(392,336,c),
(219,336,l),
(228,387,o),
(261,413,o),
(308,413,cs)
);
},
{
closed = 1;
nodes = (
(371,194,l),
(360,171,o),
(339,150,o),
(301,150,cs),
(257,150,o),
(222,176,o),
(218,241,c),
(589,241,l),
(591,256,o),
(592,272,o),
(592,287,cs),
(592,461,o),
(475,568,o),
(309,568,cs),
(141,568,o),
(24,459,o),
(24,281,cs),
(24,102,o),
(143,-7,o),
(309,-7,cs),
(449,-7,o),
(554,79,o),
(580,194,c)
);
},
{
closed = 1;
nodes = (
(353,625,o),
(388,659,o),
(388,704,cs),
(388,750,o),
(353,785,o),
(307,785,cs),
(262,785,o),
(228,750,o),
(228,704,cs),
(228,659,o),
(262,625,o),
(307,625,cs)
);
}
);
width = 616;
}
);
note = edotaccent;
unicode = 279;
},
{
glyphname = Eogonek;
layers = (
{
layerId = m01;
shapes = (
{
closed = 1;
nodes = (
(507,705,l),
(56,705,l),
(56,0,l),
(304,0,l),
(264,-33,o),
(251,-66,o),
(251,-103,cs),
(251,-178,o),
(313,-220,o),
(406,-220,cs),
(444,-220,o),
(480,-214,o),
(511,-204,c),
(511,-99,l),
(480,-109,o),
(453,-114,o),
(430,-114,cs),
(406,-114,o),
(391,-103,o),
(391,-87,cs),
(391,-66,o),
(411,-48,o),
(463,-22,cs),
(507,0,l),
(507,157,l),
(252,157,l),
(252,284,l),
(477,284,l),
(477,433,l),
(252,433,l),
(252,548,l),
(507,548,l)
);
}
);
width = 548;
}
);
note = Eogonek;
unicode = 280;
},
{
glyphname = eogonek;
layers = (
{
layerId = m01;
shapes = (
{
closed = 1;
nodes = (
(353,413,o),
(392,386,o),
(392,336,c),
(219,336,l),
(228,387,o),
(261,413,o),
(308,413,cs)
);
},
{
closed = 1;
nodes = (
(410,-90,l),
(379,-100,o),
(352,-105,o),
(329,-105,cs),
(305,-105,o),
(290,-94,o),
(290,-78,cs),
(290,-57,o),
(310,-39,o),
(362,-13,cs),
(401,6,l),
(494,35,o),
(560,106,o),
(580,194,c),
(371,194,l),
(360,171,o),
(339,150,o),
(301,150,cs),
(257,150,o),
(222,176,o),
(218,241,c),
(589,241,l),
(591,256,o),
(592,272,o),
(592,287,cs),
(592,461,o),
(475,568,o),
(309,568,cs),
(141,568,o),
(24,459,o),
(24,281,cs),
(24,143,o),
(95,46,o),
(204,9,c),
(163,-24,o),
(150,-57,o),
(150,-94,cs),
(150,-169,o),
(212,-211,o),
(305,-211,cs),
(343,-211,o),
(379,-205,o),
(410,-195,c)
);
}
);
width = 616;
}
);
note = eogonek;
unicode = 281;
},
{
glyphname = Ecaron;
layers = (
{
layerId = m01;
shapes = (
{
closed = 1;
nodes = (
(507,705,l),
(56,705,l),
(56,0,l),
(507,0,l),
(507,157,l),
(252,157,l),
(252,284,l),
(477,284,l),
(477,433,l),
(252,433,l),
(252,548,l),
(507,548,l)
);
},
{
closed = 1;
nodes = (
(278,867,l),
(117,954,l),
(117,823,l),
(278,746,l),
(437,823,l),
(437,954,l)
);
}
);
width = 548;
}
);
note = Ecaron;
unicode = 282;
},
{
glyphname = ecaron;
layers = (
{
layerId = m01;
shapes = (
{
closed = 1;
nodes = (
(353,413,o),
(392,386,o),
(392,336,c),
(219,336,l),
(228,387,o),
(261,413,o),
(308,413,cs)
);
},
{
closed = 1;
nodes = (
(371,194,l),
(360,171,o),
(339,150,o),
(301,150,cs),
(257,150,o),
(222,176,o),
(218,241,c),
(589,241,l),
(591,256,o),
(592,272,o),
(592,287,cs),
(592,461,o),
(475,568,o),
(309,568,cs),
(141,568,o),
(24,459,o),
(24,281,cs),
(24,102,o),
(143,-7,o),
(309,-7,cs),
(449,-7,o),
(554,79,o),
(580,194,c)
);
},
{
closed = 1;
nodes = (
(309,725,l),
(148,812,l),
(148,681,l),
(309,604,l),
(468,681,l),
(468,812,l)
);
}
);
width = 616;
}
);
note = ecaron;
unicode = 283;
},
{
glyphname = Gbreve;
layers = (
{
layerId = m01;
shapes = (
{
closed = 1;
nodes = (
(173,712,o),
(32,564,o),
(32,354,cs),
(32,143,o),
(174,-5,o),
(390,-5,cs),
(574,-5,o),
(683,109,o),
(725,212,c),
(725,402,l),
(359,402,l),
(359,261,l),
(556,261,l),
(527,200,o),
(477,168,o),
(409,168,cs),
(293,168,o),
(231,233,o),
(231,354,cs),
(231,462,o),
(291,531,o),
(390,531,cs),
(444,531,o),
(484,510,o),
(506,473,c),
(717,473,l),
(689,620,o),
(567,712,o),
(389,712,cs)
);
},
{
closed = 1;
nodes = (
(558,952,l),
(464,952,l),
(464,912,o),
(444,888,o),
(379,888,cs),
(314,888,o),
(294,912,o),
(294,952,c),
(200,952,l),
(200,934,ls),
(200,809,o),
(277,746,o),
(379,746,cs),
(482,746,o),
(558,809,o),
(558,934,cs)
);
}
);
width = 757;
}
);
note = Gbreve;
unicode = 286;
},
{
glyphname = gbreve;
layers = (
{
layerId = m01;
shapes = (
{
closed = 1;
nodes = (
(24,102,o),
(130,-7,o),
(263,-7,cs),
(342,-7,o),
(399,28,o),
(428,78,c),
(428,6,ls),
(428,-81,o),
(383,-106,o),
(328,-106,cs),
(278,-106,o),
(244,-85,o),
(236,-49,c),
(43,-49,l),
(57,-188,o),
(165,-276,o),
(340,-276,cs),
(542,-276,o),
(624,-144,o),
(624,6,cs),
(624,561,l),
(428,561,l),
(428,483,l),
(399,533,o),
(342,568,o),
(263,568,cs),
(130,568,o),
(24,460,o),
(24,281,cs)
);
},
{
closed = 1;
nodes = (
(428,205,o),
(381,164,o),
(326,164,cs),
(270,164,o),
(224,206,o),
(224,281,cs),
(224,357,o),
(270,397,o),
(326,397,cs),
(381,397,o),
(428,356,o),
(428,281,cs)
);
},
{
closed = 1;
nodes = (
(524,805,l),
(430,805,l),
(430,765,o),
(410,741,o),
(345,741,cs),
(280,741,o),
(260,765,o),
(260,805,c),
(166,805,l),
(166,787,ls),
(166,662,o),
(243,599,o),
(345,599,cs),
(448,599,o),
(524,662,o),
(524,787,cs)
);
}
);
width = 680;
}
);
note = gbreve;
unicode = 287;
},
{
glyphname = Gdotaccent;
layers = (
{
layerId = m01;
shapes = (
{
closed = 1;
nodes = (
(173,712,o),
(32,564,o),
(32,354,cs),
(32,143,o),
(174,-5,o),
(390,-5,cs),
(574,-5,o),
(683,109,o),
(725,212,c),
(725,402,l),
(359,402,l),
(359,261,l),
(556,261,l),
(527,200,o),
(477,168,o),
(409,168,cs),
(293,168,o),
(231,233,o),
(231,354,cs),
(231,462,o),
(291,531,o),
(390,531,cs),
(444,531,o),
(484,510,o),
(506,473,c),
(717,473,l),
(689,620,o),
(567,712,o),
(389,712,cs)
);
},
{
closed = 1;
nodes = (
(423,767,o),
(458,801,o),
(458,846,cs),
(458,892,o),
(423,927,o),
(377,927,cs),
(332,927,o),
(298,892,o),
(298,846,cs),
(298,801,o),
(332,767,o),
(377,767,cs)
);
}
);
width = 757;
}
);
note = Gdotaccent;
unicode = 288;
},
{
glyphname = gdotaccent;
layers = (
{
layerId = m01;
shapes = (
{
closed = 1;
nodes = (
(24,102,o),
(130,-7,o),
(263,-7,cs),
(342,-7,o),
(399,28,o),
(428,78,c),
(428,6,ls),
(428,-81,o),
(383,-106,o),
(328,-106,cs),
(278,-106,o),
(244,-85,o),
(236,-49,c),
(43,-49,l),
(57,-188,o),
(165,-276,o),
(340,-276,cs),
(542,-276,o),
(624,-144,o),
(624,6,cs),
(624,561,l),
(428,561,l),
(428,483,l),
(399,533,o),
(342,568,o),
(263,568,cs),
(130,568,o),
(24,460,o),
(24,281,cs)
);
},
{
closed = 1;
nodes = (
(428,205,o),
(381,164,o),
(326,164,cs),
(270,164,o),
(224,206,o),
(224,281,cs),
(224,357,o),
(270,397,o),
(326,397,cs),
(381,397,o),
(428,356,o),
(428,281,cs)
);
},
{
closed = 1;
nodes = (
(389,620,o),
(424,654,o),
(424,699,cs),
(424,745,o),
(389,780,o),
(343,780,cs),
(298,780,o),
(264,745,o),
(264,699,cs),
(264,654,o),
(298,620,o),
(343,620,cs)
);
}
);
width = 680;
}
);
note = gdotaccent;
unicode = 289;
},
{
glyphname = uni0122;
layers = (
{
layerId = m01;
shapes = (
{
closed = 1;
nodes = (
(306,-38,l),
(306,-173,l),
(374,-173,l),
(374,-186,ls),
(374,-235,o),
(355,-257,o),
(320,-257,c),
(320,-328,l),
(425,-328,o),
(473,-257,o),
(473,-164,cs),
(473,-125,o),
(465,-82,o),
(450,-38,c)
);
},
{
closed = 1;
nodes = (
(173,712,o),
(32,564,o),
(32,354,cs),
(32,143,o),
(174,-5,o),
(390,-5,cs),
(574,-5,o),
(683,109,o),
(725,212,c),
(725,402,l),
(359,402,l),
(359,261,l),
(556,261,l),
(527,200,o),
(477,168,o),
(409,168,cs),
(293,168,o),
(231,233,o),
(231,354,cs),
(231,462,o),
(291,531,o),
(390,531,cs),
(444,531,o),
(484,510,o),
(506,473,c),
(717,473,l),
(689,620,o),
(567,712,o),
(389,712,cs)
);
}
);
width = 760;
}
);
note = uni0122;
unicode = 290;
},
{
glyphname = uni0123;
layers = (
{
layerId = m01;
shapes = (
{
closed = 1;
nodes = (
(427,599,l),
(427,734,l),
(360,734,l),
(360,747,ls),
(360,796,o),
(380,818,o),
(413,818,c),
(413,889,l),
(310,889,o),
(262,818,o),
(262,725,cs),
(262,686,o),
(268,643,o),
(284,599,c)
);
},
{
closed = 1;
nodes = (
(24,102,o),
(130,-7,o),
(263,-7,cs),
(342,-7,o),
(399,28,o),
(428,78,c),
(428,6,ls),
(428,-81,o),
(383,-106,o),
(328,-106,cs),
(278,-106,o),
(244,-85,o),
(236,-49,c),
(43,-49,l),
(57,-188,o),
(165,-276,o),
(340,-276,cs),
(542,-276,o),
(624,-144,o),
(624,6,cs),
(624,561,l),
(428,561,l),
(428,483,l),
(399,533,o),
(342,568,o),
(263,568,cs),
(130,568,o),
(24,460,o),
(24,281,cs)
);
},
{
closed = 1;
nodes = (
(428,205,o),
(381,164,o),
(326,164,cs),
(270,164,o),
(224,206,o),
(224,281,cs),
(224,357,o),
(270,397,o),
(326,397,cs),
(381,397,o),
(428,356,o),
(428,281,cs)
);
}
);
width = 680;
}
);
note = uni0123;
unicode = 291;
},
{
glyphname = Itilde;
layers = (
{
layerId = m01;
shapes = (
{
closed = 1;
nodes = (
(56,0,l),
(252,0,l),
(252,705,l),
(56,705,l)
);
},
{
closed = 1;
nodes = (
(35,750,l),
(41,782,o),
(56,796,o),
(80,796,cs),
(120,796,o),
(155,751,o),
(217,751,cs),
(293,751,o),
(347,796,o),
(367,913,c),
(268,913,l),
(263,882,o),
(248,867,o),
(224,867,cs),
(184,867,o),
(149,913,o),
(87,913,cs),
(11,913,o),
(-43,867,o),
(-63,750,c)
);
}
);
width = 308;
}
);
note = Itilde;
unicode = 296;
},
{
glyphname = itilde;
layers = (
{
layerId = m01;
shapes = (
{
closed = 1;
nodes = (
(75,0,l),
(272,0,l),
(272,561,l),
(75,561,l)
);
},
{
closed = 1;
nodes = (
(54,603,l),
(60,635,o),
(75,649,o),
(99,649,cs),
(139,649,o),
(174,604,o),
(236,604,cs),
(312,604,o),
(366,649,o),
(386,766,c),
(287,766,l),
(282,735,o),
(267,720,o),
(243,720,cs),
(203,720,o),
(168,766,o),
(106,766,cs),
(30,766,o),
(-24,720,o),
(-44,603,c)
);
}
);
width = 347;
}
);
note = itilde;
unicode = 297;
},
{
glyphname = Imacron;
layers = (
{
layerId = m01;
shapes = (
{
closed = 1;
nodes = (
(56,0,l),
(252,0,l),
(252,705,l),
(56,705,l)
);
},
{
closed = 1;
nodes = (
(-53,772,l),
(363,772,l),
(363,904,l),
(-53,904,l)
);
}
);
width = 308;
}
);
note = Imacron;
unicode = 298;
},
{
glyphname = imacron;
layers = (
{
layerId = m01;
shapes = (
{
closed = 1;
nodes = (
(75,0,l),
(272,0,l),
(272,561,l),
(75,561,l)
);
},
{
closed = 1;
nodes = (
(-33,625,l),
(383,625,l),
(383,757,l),
(-33,757,l)
);
}
);
width = 347;
}
);
note = imacron;
unicode = 299;
},
{
glyphname = uni012C;
layers = (
{
layerId = m01;
shapes = (
{
closed = 1;
nodes = (
(56,0,l),
(252,0,l),
(252,705,l),
(56,705,l)
);
},
{
closed = 1;
nodes = (
(334,952,l),
(240,952,l),
(240,912,o),
(220,888,o),
(155,888,cs),
(90,888,o),
(70,912,o),
(70,952,c),
(-24,952,l),
(-24,934,ls),
(-24,809,o),
(53,746,o),
(155,746,cs),
(258,746,o),
(334,809,o),
(334,934,cs)
);
}
);
width = 308;
}
);
note = uni012C;
unicode = 300;
},
{
glyphname = uni012D;
layers = (
{
layerId = m01;
shapes = (
{
closed = 1;
nodes = (
(75,0,l),
(272,0,l),
(272,561,l),
(75,561,l)
);
},
{
closed = 1;
nodes = (
(353,805,l),
(259,805,l),
(259,765,o),
(239,741,o),
(174,741,cs),
(109,741,o),
(89,765,o),
(89,805,c),
(-5,805,l),
(-5,787,ls),
(-5,662,o),
(72,599,o),
(174,599,cs),
(277,599,o),
(353,662,o),
(353,787,cs)
);
}
);
width = 347;
}
);
note = uni012D;
unicode = 301;
},
{
glyphname = Iogonek;
layers = (
{
layerId = m01;
shapes = (
{
closed = 1;
nodes = (
(256,-99,l),
(225,-109,o),
(198,-114,o),
(175,-114,cs),
(151,-114,o),
(136,-103,o),
(136,-87,cs),
(136,-66,o),
(156,-48,o),
(208,-22,cs),
(252,0,l),
(252,705,l),
(56,705,l),
(56,5,l),
(11,-30,o),
(-4,-64,o),
(-4,-103,cs),
(-4,-178,o),
(58,-220,o),
(151,-220,cs),
(189,-220,o),
(225,-214,o),
(256,-204,c)
);
}
);
width = 308;
}
);
note = Iogonek;
unicode = 302;
},
